<?xml version="1.0" standalone="no"?>
<!DOCTYPE svg PUBLIC "-//W3C//DTD SVG 1.1//EN" "http://www.w3.org/Graphics/SVG/1.1/DTD/svg11.dtd" >
<svg>
<metadata>
Created by FontForge 20090622 at Tue Mar 27 15:25:11 2018
 By deploy user
Copyright 2010 The Josefin Sans Project Authors (https://github.com/ThomasJockin/JosefinSansFont-master), with Reserved Font Name "Josefin Sans".
</metadata>
<defs>
<font id="JosefinSans-Bold" horiz-adv-x="0" >
  <font-face 
    font-family="Josefin Sans"
    font-weight="700"
    font-stretch="normal"
    units-per-em="1000"
    panose-1="0 0 8 0 0 0 0 0 0 0"
    ascent="750"
    descent="-250"
    x-height="437"
    cap-height="736"
    bbox="-576 -246 1348 1242"
    underline-thickness="50"
    underline-position="-50"
    unicode-range="U+000D-U+FB02"
  />
<missing-glyph horiz-adv-x="300" 
 />
    <glyph glyph-name="f_f" unicode="ff" horiz-adv-x="748" 
d="M567 439h132v-124h-132v-315h-140v315h-173v-315h-140v315h-74v124h74v152q0 88 50.5 141.5t142.5 53.5q30 0 64 -9t59 -27l-59 -101q-18 22 -49 22t-49.5 -21t-18.5 -63v-148h173v152q0 88 50.5 141.5t142.5 53.5q30 0 64 -9t59 -27l-59 -101q-18 22 -49 22t-49.5 -21
t-18.5 -63v-148z" />
    <glyph glyph-name="f_f_i" unicode="ffi" horiz-adv-x="949" 
d="M567 439h132v-124h-132v-315h-140v315h-173v-315h-140v315h-74v124h74v152q0 88 50.5 141.5t142.5 53.5q30 0 64 -9t59 -27l-59 -101q-18 22 -49 22t-49.5 -21t-18.5 -63v-148h173v152q0 88 50.5 141.5t142.5 53.5q30 0 64 -9t59 -27l-59 -101q-18 22 -49 22t-49.5 -21
t-18.5 -63v-148zM877 437v-437h-140v437h140zM757.5 642.5q23.5 20.5 53.5 20.5q29 0 52 -20.5t23 -50.5t-23 -50t-52 -20q-30 0 -53.5 20t-23.5 50t23.5 50.5z" />
    <glyph glyph-name="f_f_l" unicode="ffl" horiz-adv-x="1032" 
d="M567 439h132v-124h-132v-315h-140v315h-173v-315h-140v315h-74v124h74v152q0 88 50.5 141.5t142.5 53.5q30 0 64 -9t59 -27l-59 -101q-18 22 -49 22t-49.5 -21t-18.5 -63v-148h173v152q0 88 50.5 141.5t142.5 53.5q30 0 64 -9t59 -27l-59 -101q-18 22 -49 22t-49.5 -21
t-18.5 -63v-148zM960 789v-789h-140v789h140z" />
    <glyph glyph-name="fi" unicode="fi" horiz-adv-x="634" 
d="M114 315h-74v124h74v152q0 88 50.5 141.5t142.5 53.5q30 0 64 -9t59 -27l-59 -101q-18 22 -49 22t-49.5 -21t-18.5 -63v-148h112v-124h-112v-315h-140v315zM442.5 642.5q23.5 20.5 53.5 20.5q29 0 52 -20.5t23 -50.5t-23 -50t-52 -20q-30 0 -53.5 20t-23.5 50t23.5 50.5z
M562 437v-437h-140v437h140z" />
    <glyph glyph-name="fl" unicode="fl" horiz-adv-x="634" 
d="M562 789v-789h-140v736l-51 -87q-18 22 -49 22t-49.5 -21t-18.5 -63v-148h112v-124h-112v-315h-140v315h-74v124h74v152q0 88 50.5 141.5t142.5 53.5q28 0 59.5 -8t55.5 -23v34h140z" />
    <glyph glyph-name=".notdef" horiz-adv-x="300" 
 />
    <glyph glyph-name="NULL" 
 />
    <glyph glyph-name="NULL" 
 />
    <glyph glyph-name="nonmarkingreturn" unicode="&#xd;" horiz-adv-x="325" 
 />
    <glyph glyph-name="space" unicode=" " horiz-adv-x="325" 
 />
    <glyph glyph-name="A" unicode="A" horiz-adv-x="696" 
d="M459 144h-244l-60 -144h-143l332 765h8l332 -765h-168zM411 266l-71 179l-74 -179h145z" />
    <glyph glyph-name="Aacute" unicode="&#xc1;" horiz-adv-x="696" 
d="M459 144h-244l-60 -144h-143l332 765h8l332 -765h-168zM411 266l-71 179l-74 -179h145zM386 804h-85l78 135h155z" />
    <glyph glyph-name="Abreve" unicode="&#x102;" horiz-adv-x="696" 
d="M459 144h-244l-60 -144h-143l332 765h8l332 -765h-168zM411 266l-71 179l-74 -179h145zM237.5 850q-40.5 46 -57.5 141h93q10 -48 26 -71t49 -23t48.5 23t25.5 71h93q-16 -97 -56.5 -142t-110.5 -45t-110.5 46z" />
    <glyph glyph-name="uni1EAE" unicode="&#x1eae;" horiz-adv-x="696" 
d="M459 144h-244l-60 -144h-143l332 765h8l332 -765h-168zM411 266l-71 179l-74 -179h145zM237.5 850q-40.5 46 -57.5 141h93q10 -48 26 -71t49 -23t48.5 23t25.5 71h93q-16 -97 -56.5 -142t-110.5 -45t-110.5 46zM385 1027h-85l78 135h155z" />
    <glyph glyph-name="uni1EB6" unicode="&#x1eb6;" horiz-adv-x="696" 
d="M459 144h-244l-60 -144h-143l332 765h8l332 -765h-168zM411 266l-71 179l-74 -179h145zM292.5 -66.5q23.5 20.5 53.5 20.5q29 0 52 -20.5t23 -50.5t-23 -50t-52 -20q-30 0 -53.5 20t-23.5 50t23.5 50.5zM237.5 850q-40.5 46 -57.5 141h93q10 -48 26 -71t49 -23t48.5 23
t25.5 71h93q-16 -97 -56.5 -142t-110.5 -45t-110.5 46z" />
    <glyph glyph-name="uni1EB0" unicode="&#x1eb0;" horiz-adv-x="696" 
d="M459 144h-244l-60 -144h-143l332 765h8l332 -765h-168zM411 266l-71 179l-74 -179h145zM237.5 850q-40.5 46 -57.5 141h93q10 -48 26 -71t49 -23t48.5 23t25.5 71h93q-16 -97 -56.5 -142t-110.5 -45t-110.5 46zM316 1166l62 -135h-85l-132 135h155z" />
    <glyph glyph-name="uni1EB2" unicode="&#x1eb2;" horiz-adv-x="696" 
d="M459 144h-244l-60 -144h-143l332 765h8l332 -765h-168zM411 266l-71 179l-74 -179h145zM237.5 850q-40.5 46 -57.5 141h93q10 -48 26 -71t49 -23t48.5 23t25.5 71h93q-16 -97 -56.5 -142t-110.5 -45t-110.5 46zM366.5 1106.5q9.5 11.5 9.5 27.5q0 33 -29 33
q-13 0 -23 -7.5t-16 -19.5l-50 30q17 35 46 53.5t62 18.5q43 0 65 -26.5t22 -61.5q0 -36 -23.5 -62.5t-63.5 -47.5l-29 37q20 14 29.5 25.5z" />
    <glyph glyph-name="uni1EB4" unicode="&#x1eb4;" horiz-adv-x="696" 
d="M459 144h-244l-60 -144h-143l332 765h8l332 -765h-168zM411 266l-71 179l-74 -179h145zM237.5 850q-40.5 46 -57.5 141h93q10 -48 26 -71t49 -23t48.5 23t25.5 71h93q-16 -97 -56.5 -142t-110.5 -45t-110.5 46zM374 1077q-21 11 -48 33q-27 23 -44 23q-16 0 -23.5 -14.5
t-7.5 -36.5l1 -14h-70q-1 7 -1 22q0 55 29 93t80 38q22 0 39.5 -10.5t42.5 -31.5q20 -17 29.5 -23.5t20.5 -6.5q29 0 25 69h70q3 -16 3 -32q0 -52 -27.5 -86t-67.5 -34q-30 0 -51 11z" />
    <glyph glyph-name="Acircumflex" unicode="&#xc2;" horiz-adv-x="696" 
d="M459 144h-244l-60 -144h-143l332 765h8l332 -765h-168zM411 266l-71 179l-74 -179h145zM401 816l-65 62l-58 -62h-126l185 184h1l189 -184h-126z" />
    <glyph glyph-name="uni1EA4" unicode="&#x1ea4;" horiz-adv-x="696" 
d="M459 144h-244l-60 -144h-143l332 765h8l332 -765h-168zM411 266l-71 179l-74 -179h145zM414 828l-65 62l-58 -62h-126l185 184h1l189 -184h-126zM572 935h-85l78 135h155z" />
    <glyph glyph-name="uni1EAC" unicode="&#x1eac;" horiz-adv-x="696" 
d="M459 144h-244l-60 -144h-143l332 765h8l332 -765h-168zM411 266l-71 179l-74 -179h145zM292.5 -66.5q23.5 20.5 53.5 20.5q29 0 52 -20.5t23 -50.5t-23 -50t-52 -20q-30 0 -53.5 20t-23.5 50t23.5 50.5zM401 816l-65 62l-58 -62h-126l185 184h1l189 -184h-126z" />
    <glyph glyph-name="uni1EA6" unicode="&#x1ea6;" horiz-adv-x="696" 
d="M459 144h-244l-60 -144h-143l332 765h8l332 -765h-168zM411 266l-71 179l-74 -179h145zM406 828l-65 62l-58 -62h-126l185 184h1l189 -184h-126zM148 1074l62 -135h-85l-132 135h155z" />
    <glyph glyph-name="uni1EA8" unicode="&#x1ea8;" horiz-adv-x="696" 
d="M459 144h-244l-60 -144h-143l332 765h8l332 -765h-168zM411 266l-71 179l-74 -179h145zM410 828l-65 62l-58 -62h-126l185 184h1l189 -184h-126zM566.5 964.5q9.5 11.5 9.5 27.5q0 33 -29 33q-13 0 -23 -7.5t-16 -19.5l-50 30q17 35 46 53.5t62 18.5q43 0 65 -26.5
t22 -61.5q0 -36 -23.5 -62.5t-63.5 -47.5l-29 37q20 14 29.5 25.5z" />
    <glyph glyph-name="uni1EAA" unicode="&#x1eaa;" horiz-adv-x="696" 
d="M459 144h-244l-60 -144h-143l332 765h8l332 -765h-168zM411 266l-71 179l-74 -179h145zM402 828l-65 62l-58 -62h-126l185 184h1l189 -184h-126zM370 1052q-21 11 -48 33q-27 23 -44 23q-16 0 -23.5 -14.5t-7.5 -36.5l1 -14h-70q-1 7 -1 22q0 55 29 93t80 38
q22 0 39.5 -10.5t42.5 -31.5q20 -17 29.5 -23.5t20.5 -6.5q29 0 25 69h70q3 -16 3 -32q0 -52 -27.5 -86t-67.5 -34q-30 0 -51 11z" />
    <glyph glyph-name="uni0200" unicode="&#x200;" horiz-adv-x="696" 
d="M459 144h-244l-60 -144h-143l332 765h8l332 -765h-168zM411 266l-71 179l-74 -179h145zM267 946l62 -135h-85l-132 135h155zM437 946l62 -135h-85l-132 135h155z" />
    <glyph glyph-name="Adieresis" unicode="&#xc4;" horiz-adv-x="696" 
d="M459 144h-244l-60 -144h-143l332 765h8l332 -765h-168zM411 266l-71 179l-74 -179h145zM192 926q22 21 50 21q26 0 48 -21.5t22 -51.5q0 -31 -22 -51.5t-48 -20.5q-28 0 -50 20.5t-22 51.5t22 52zM392 926q22 21 50 21q26 0 48 -21.5t22 -51.5q0 -31 -22 -51.5t-48 -20.5
q-28 0 -50 20.5t-22 51.5t22 52z" />
    <glyph glyph-name="uni1EA0" unicode="&#x1ea0;" horiz-adv-x="696" 
d="M459 144h-244l-60 -144h-143l332 765h8l332 -765h-168zM411 266l-71 179l-74 -179h145zM292.5 -66.5q23.5 20.5 53.5 20.5q29 0 52 -20.5t23 -50.5t-23 -50t-52 -20q-30 0 -53.5 20t-23.5 50t23.5 50.5z" />
    <glyph glyph-name="Agrave" unicode="&#xc0;" horiz-adv-x="696" 
d="M459 144h-244l-60 -144h-143l332 765h8l332 -765h-168zM411 266l-71 179l-74 -179h145zM317 943l62 -135h-85l-132 135h155z" />
    <glyph glyph-name="uni1EA2" unicode="&#x1ea2;" horiz-adv-x="696" 
d="M459 144h-244l-60 -144h-143l332 765h8l332 -765h-168zM411 266l-71 179l-74 -179h145zM367.5 883.5q9.5 11.5 9.5 27.5q0 33 -29 33q-13 0 -23 -7.5t-16 -19.5l-50 30q17 35 46 53.5t62 18.5q43 0 65 -26.5t22 -61.5q0 -36 -23.5 -62.5t-63.5 -47.5l-29 37
q20 14 29.5 25.5z" />
    <glyph glyph-name="uni0202" unicode="&#x202;" horiz-adv-x="696" 
d="M459 144h-244l-60 -144h-143l332 765h8l332 -765h-168zM411 266l-71 179l-74 -179h145zM452.5 918q40.5 -46 57.5 -141h-93q-10 48 -26 71t-49 23t-48.5 -23t-25.5 -71h-93q16 97 56.5 142t110.5 45t110.5 -46z" />
    <glyph glyph-name="Amacron" unicode="&#x100;" horiz-adv-x="696" 
d="M459 144h-244l-60 -144h-143l332 765h8l332 -765h-168zM411 266l-71 179l-74 -179h145zM471 907v-97h-255v97h255z" />
    <glyph glyph-name="Aogonek" unicode="&#x104;" horiz-adv-x="696" 
d="M722 -157q-22 -33 -61 -54t-74 -21q-63 0 -104.5 35.5t-41.5 93.5q0 32 19.5 61t53.5 47l-55 139h-244l-60 -144h-143l332 765h8l332 -765q-66 -25 -97 -45t-31 -47q0 -42 44 -42q39 0 72 49zM411 266l-71 179l-74 -179h145z" />
    <glyph glyph-name="Aring" unicode="&#xc5;" horiz-adv-x="696" 
d="M459 144h-244l-60 -144h-143l332 765h8l332 -765h-168zM411 266l-71 179l-74 -179h145zM271.5 975.5q31.5 28.5 80.5 28.5q48 0 79.5 -28.5t31.5 -75.5t-31.5 -76t-79.5 -29q-49 0 -80.5 29t-31.5 76t31.5 75.5zM323.5 868q10.5 -11 28.5 -11t28.5 11t10.5 30
q0 21 -10.5 31.5t-28.5 10.5t-28.5 -10.5t-10.5 -31.5q0 -19 10.5 -30z" />
    <glyph glyph-name="Aringacute" unicode="&#x1fa;" horiz-adv-x="696" 
d="M459 144h-244l-60 -144h-143l332 765h8l332 -765h-168zM411 266l-71 179l-74 -179h145zM271.5 975.5q31.5 28.5 80.5 28.5q48 0 79.5 -28.5t31.5 -75.5t-31.5 -76t-79.5 -29q-49 0 -80.5 29t-31.5 76t31.5 75.5zM323.5 868q10.5 -11 28.5 -11t28.5 11t10.5 30
q0 21 -10.5 31.5t-28.5 10.5t-28.5 -10.5t-10.5 -31.5q0 -19 10.5 -30zM386 1042h-85l78 135h155z" />
    <glyph glyph-name="Atilde" unicode="&#xc3;" horiz-adv-x="696" 
d="M459 144h-244l-60 -144h-143l332 765h8l332 -765h-168zM411 266l-71 179l-74 -179h145zM375 854q-21 11 -48 33q-27 23 -44 23q-16 0 -23.5 -14.5t-7.5 -36.5l1 -14h-70q-1 7 -1 22q0 55 29 93t80 38q22 0 39.5 -10.5t42.5 -31.5q20 -17 29.5 -23.5t20.5 -6.5q29 0 25 69
h70q3 -16 3 -32q0 -52 -27.5 -86t-67.5 -34q-30 0 -51 11z" />
    <glyph glyph-name="AE" unicode="&#xc6;" horiz-adv-x="967" 
d="M912 140v-140h-426v161h-216l-97 -161h-168l481 736h412v-140h-267v-159h226v-140h-226v-157h281zM486 276v241l-146 -241h146z" />
    <glyph glyph-name="AEacute" unicode="&#x1fc;" horiz-adv-x="967" 
d="M912 140v-140h-426v161h-216l-97 -161h-168l481 736h412v-140h-267v-159h226v-140h-226v-157h281zM486 276v241l-146 -241h146zM711 784h-85l78 135h155z" />
    <glyph glyph-name="B" unicode="B" horiz-adv-x="647" 
d="M564.5 317.5q32.5 -43.5 32.5 -100.5q0 -112 -73.5 -164.5t-183.5 -52.5h-245v736h216q117 0 184 -47.5t67 -137.5q0 -55 -23 -96.5t-65 -66.5q58 -27 90.5 -70.5zM240 435h88q40 0 62 24.5t22 60.5q0 37 -25 56.5t-69 19.5h-78v-161zM415.5 155.5q31.5 20.5 31.5 61.5
q0 78 -124 78h-83v-160h93q51 0 82.5 20.5z" />
    <glyph glyph-name="C" unicode="C" horiz-adv-x="697" 
d="M558 15q-61 -23 -133 -23q-115 0 -200 50t-130 134.5t-45 185.5q0 111 45 198t126 135.5t187 48.5q67 0 124 -18t100 -45l-57 -137q-79 60 -162 60q-56 0 -105 -31t-78 -84.5t-29 -118.5q0 -71 27 -124.5t77 -83.5t117 -30q54 0 97 17.5t68 41.5l60 -130q-28 -23 -89 -46
z" />
    <glyph glyph-name="Cacute" unicode="&#x106;" horiz-adv-x="697" 
d="M558 15q-61 -23 -133 -23q-115 0 -200 50t-130 134.5t-45 185.5q0 111 45 198t126 135.5t187 48.5q67 0 124 -18t100 -45l-57 -137q-79 60 -162 60q-56 0 -105 -31t-78 -84.5t-29 -118.5q0 -71 27 -124.5t77 -83.5t117 -30q54 0 97 17.5t68 41.5l60 -130q-28 -23 -89 -46
zM427 784h-85l78 135h155z" />
    <glyph glyph-name="Ccaron" unicode="&#x10c;" horiz-adv-x="697" 
d="M558 15q-61 -23 -133 -23q-115 0 -200 50t-130 134.5t-45 185.5q0 111 45 198t126 135.5t187 48.5q67 0 124 -18t100 -45l-57 -137q-79 60 -162 60q-56 0 -105 -31t-78 -84.5t-29 -118.5q0 -71 27 -124.5t77 -83.5t117 -30q54 0 97 17.5t68 41.5l60 -130q-28 -23 -89 -46
zM574 957l-185 -184h-1l-189 184h126l65 -62l58 62h126z" />
    <glyph glyph-name="Ccedilla" unicode="&#xc7;" horiz-adv-x="697" 
d="M515.5 -60.5q31.5 -23.5 31.5 -64.5q0 -54 -45.5 -82.5t-110.5 -28.5q-74 0 -117 45l43 55q10 -12 26 -19.5t34 -7.5q19 0 36.5 9.5t17.5 26.5q0 33 -53 33q-20 0 -60 -11l-19 66l51 37q-93 16 -161 68t-103.5 129t-35.5 167q0 111 45 198t126 135.5t187 48.5
q67 0 124 -18t100 -45l-57 -137q-79 60 -162 60q-56 0 -105 -31t-78 -84.5t-29 -118.5q0 -71 27 -124.5t77 -83.5t117 -30q54 0 97 17.5t68 41.5l60 -130q-23 -19 -74.5 -40.5t-114.5 -27.5l-24 -27q50 -3 81.5 -26.5z" />
    <glyph glyph-name="Ccircumflex" unicode="&#x108;" horiz-adv-x="697" 
d="M558 15q-61 -23 -133 -23q-115 0 -200 50t-130 134.5t-45 185.5q0 111 45 198t126 135.5t187 48.5q67 0 124 -18t100 -45l-57 -137q-79 60 -162 60q-56 0 -105 -31t-78 -84.5t-29 -118.5q0 -71 27 -124.5t77 -83.5t117 -30q54 0 97 17.5t68 41.5l60 -130q-28 -23 -89 -46
zM442 796l-65 62l-58 -62h-126l185 184h1l189 -184h-126z" />
    <glyph glyph-name="Cdotaccent" unicode="&#x10a;" horiz-adv-x="697" 
d="M558 15q-61 -23 -133 -23q-115 0 -200 50t-130 134.5t-45 185.5q0 111 45 198t126 135.5t187 48.5q67 0 124 -18t100 -45l-57 -137q-79 60 -162 60q-56 0 -105 -31t-78 -84.5t-29 -118.5q0 -71 27 -124.5t77 -83.5t117 -30q54 0 97 17.5t68 41.5l60 -130q-28 -23 -89 -46
zM336.5 901.5q23.5 20.5 53.5 20.5q29 0 52 -20.5t23 -50.5t-23 -50t-52 -20q-30 0 -53.5 20t-23.5 50t23.5 50.5z" />
    <glyph glyph-name="D" unicode="D" horiz-adv-x="771" 
d="M95 736h220q141 0 232 -54.5t132.5 -141t41.5 -185.5q0 -106 -50 -187t-134.5 -124.5t-185.5 -43.5h-256v736zM326 140q113 0 179 58t66 167q0 88 -36.5 140t-85 72t-91.5 20h-118v-457h86z" />
    <glyph glyph-name="uni01C4" unicode="&#x1c4;" horiz-adv-x="1398" 
d="M95 736h220q141 0 232 -54.5t132.5 -141t41.5 -185.5q0 -106 -50 -187t-134.5 -124.5t-185.5 -43.5h-256v736zM326 140q113 0 179 58t66 167q0 88 -36.5 140t-85 72t-91.5 20h-118v-457h86zM970 140h377v-140h-626l374 596h-224q-34 0 -65.5 21.5t-31.5 50.5v105h133v-14
q0 -17 4 -20.5t13 -3t15 0.5h409zM1222 937l-185 -184h-1l-189 184h126l65 -62l58 62h126z" />
    <glyph glyph-name="Eth" unicode="&#xd0;" horiz-adv-x="771" 
d="M547 681.5q91 -54.5 132.5 -141t41.5 -185.5q0 -106 -50 -187t-134.5 -124.5t-185.5 -43.5h-256v299h-75v130h75v307h220q141 0 232 -54.5zM505 198q66 58 66 167q0 88 -36.5 140t-85 72t-91.5 20h-118v-168h95v-130h-95v-159h86q113 0 179 58z" />
    <glyph glyph-name="Dcaron" unicode="&#x10e;" horiz-adv-x="771" 
d="M95 736h220q141 0 232 -54.5t132.5 -141t41.5 -185.5q0 -106 -50 -187t-134.5 -124.5t-185.5 -43.5h-256v736zM326 140q113 0 179 58t66 167q0 88 -36.5 140t-85 72t-91.5 20h-118v-457h86zM503 937l-185 -184h-1l-189 184h126l65 -62l58 62h126z" />
    <glyph glyph-name="Dcroat" unicode="&#x110;" horiz-adv-x="785" 
d="M561 681.5q91 -54.5 132.5 -141t41.5 -185.5q0 -106 -50 -187t-134.5 -124.5t-185.5 -43.5h-256v299h-75v130h75v307h220q141 0 232 -54.5zM519 198q66 58 66 167q0 88 -36.5 140t-85 72t-91.5 20h-118v-168h95v-130h-95v-159h86q113 0 179 58z" />
    <glyph glyph-name="uni01C5" unicode="&#x1c5;" horiz-adv-x="1293" 
d="M95 736h220q141 0 232 -54.5t132.5 -141t41.5 -185.5q0 -106 -50 -187t-134.5 -124.5t-185.5 -43.5h-256v736zM326 140q113 0 179 58t66 167q0 88 -36.5 140t-85 72t-91.5 20h-118v-457h86zM1015 114h219v-114h-443l222 323h-102q-37 0 -63.5 26.5t-26.5 69.5v60h105v-14
q0 -20 6.5 -24t27.5 -4h277zM1230 673l-185 -184h-1l-189 184h126l65 -62l58 62h126z" />
    <glyph glyph-name="E" unicode="E" horiz-adv-x="666" 
d="M597 736v-140h-357v-157h316v-140h-316v-159h371v-140h-516v736h502z" />
    <glyph glyph-name="Eacute" unicode="&#xc9;" horiz-adv-x="666" 
d="M597 736v-140h-357v-157h316v-140h-316v-159h371v-140h-516v736h502zM384 784h-85l78 135h155z" />
    <glyph glyph-name="Ebreve" unicode="&#x114;" horiz-adv-x="666" 
d="M597 736v-140h-357v-157h316v-140h-316v-159h371v-140h-516v736h502zM235.5 830q-40.5 46 -57.5 141h93q10 -48 26 -71t49 -23t48.5 23t25.5 71h93q-16 -97 -56.5 -142t-110.5 -45t-110.5 46z" />
    <glyph glyph-name="Ecaron" unicode="&#x11a;" horiz-adv-x="666" 
d="M597 736v-140h-357v-157h316v-140h-316v-159h371v-140h-516v736h502zM531 957l-185 -184h-1l-189 184h126l65 -62l58 62h126z" />
    <glyph glyph-name="Ecircumflex" unicode="&#xca;" horiz-adv-x="666" 
d="M597 736v-140h-357v-157h316v-140h-316v-159h371v-140h-516v736h502zM399 796l-65 62l-58 -62h-126l185 184h1l189 -184h-126z" />
    <glyph glyph-name="uni1EBE" unicode="&#x1ebe;" horiz-adv-x="666" 
d="M597 736v-140h-357v-157h316v-140h-316v-159h371v-140h-516v736h502zM412 808l-65 62l-58 -62h-126l185 184h1l189 -184h-126zM570 915h-85l78 135h155z" />
    <glyph glyph-name="uni1EC6" unicode="&#x1ec6;" horiz-adv-x="666" 
d="M597 736v-140h-357v-157h316v-140h-316v-159h371v-140h-516v736h502zM290.5 -66.5q23.5 20.5 53.5 20.5q29 0 52 -20.5t23 -50.5t-23 -50t-52 -20q-30 0 -53.5 20t-23.5 50t23.5 50.5zM399 796l-65 62l-58 -62h-126l185 184h1l189 -184h-126z" />
    <glyph glyph-name="uni1EC0" unicode="&#x1ec0;" horiz-adv-x="666" 
d="M597 736v-140h-357v-157h316v-140h-316v-159h371v-140h-516v736h502zM404 808l-65 62l-58 -62h-126l185 184h1l189 -184h-126zM146 1054l62 -135h-85l-132 135h155z" />
    <glyph glyph-name="uni1EC2" unicode="&#x1ec2;" horiz-adv-x="666" 
d="M597 736v-140h-357v-157h316v-140h-316v-159h371v-140h-516v736h502zM408 808l-65 62l-58 -62h-126l185 184h1l189 -184h-126zM564.5 944.5q9.5 11.5 9.5 27.5q0 33 -29 33q-13 0 -23 -7.5t-16 -19.5l-50 30q17 35 46 53.5t62 18.5q43 0 65 -26.5t22 -61.5
q0 -36 -23.5 -62.5t-63.5 -47.5l-29 37q20 14 29.5 25.5z" />
    <glyph glyph-name="uni1EC4" unicode="&#x1ec4;" horiz-adv-x="666" 
d="M597 736v-140h-357v-157h316v-140h-316v-159h371v-140h-516v736h502zM400 808l-65 62l-58 -62h-126l185 184h1l189 -184h-126zM368 1032q-21 11 -48 33q-27 23 -44 23q-16 0 -23.5 -14.5t-7.5 -36.5l1 -14h-70q-1 7 -1 22q0 55 29 93t80 38q22 0 39.5 -10.5t42.5 -31.5
q20 -17 29.5 -23.5t20.5 -6.5q29 0 25 69h70q3 -16 3 -32q0 -52 -27.5 -86t-67.5 -34q-30 0 -51 11z" />
    <glyph glyph-name="uni0204" unicode="&#x204;" horiz-adv-x="666" 
d="M597 736v-140h-357v-157h316v-140h-316v-159h371v-140h-516v736h502zM265 926l62 -135h-85l-132 135h155zM435 926l62 -135h-85l-132 135h155z" />
    <glyph glyph-name="Edieresis" unicode="&#xcb;" horiz-adv-x="666" 
d="M597 736v-140h-357v-157h316v-140h-316v-159h371v-140h-516v736h502zM190 906q22 21 50 21q26 0 48 -21.5t22 -51.5q0 -31 -22 -51.5t-48 -20.5q-28 0 -50 20.5t-22 51.5t22 52zM390 906q22 21 50 21q26 0 48 -21.5t22 -51.5q0 -31 -22 -51.5t-48 -20.5q-28 0 -50 20.5
t-22 51.5t22 52z" />
    <glyph glyph-name="Edotaccent" unicode="&#x116;" horiz-adv-x="666" 
d="M597 736v-140h-357v-157h316v-140h-316v-159h371v-140h-516v736h502zM293.5 901.5q23.5 20.5 53.5 20.5q29 0 52 -20.5t23 -50.5t-23 -50t-52 -20q-30 0 -53.5 20t-23.5 50t23.5 50.5z" />
    <glyph glyph-name="uni1EB8" unicode="&#x1eb8;" horiz-adv-x="666" 
d="M597 736v-140h-357v-157h316v-140h-316v-159h371v-140h-516v736h502zM290.5 -66.5q23.5 20.5 53.5 20.5q29 0 52 -20.5t23 -50.5t-23 -50t-52 -20q-30 0 -53.5 20t-23.5 50t23.5 50.5z" />
    <glyph glyph-name="Egrave" unicode="&#xc8;" horiz-adv-x="666" 
d="M597 736v-140h-357v-157h316v-140h-316v-159h371v-140h-516v736h502zM315 923l62 -135h-85l-132 135h155z" />
    <glyph glyph-name="uni1EBA" unicode="&#x1eba;" horiz-adv-x="666" 
d="M597 736v-140h-357v-157h316v-140h-316v-159h371v-140h-516v736h502zM365.5 863.5q9.5 11.5 9.5 27.5q0 33 -29 33q-13 0 -23 -7.5t-16 -19.5l-50 30q17 35 46 53.5t62 18.5q43 0 65 -26.5t22 -61.5q0 -36 -23.5 -62.5t-63.5 -47.5l-29 37q20 14 29.5 25.5z" />
    <glyph glyph-name="uni0206" unicode="&#x206;" horiz-adv-x="666" 
d="M597 736v-140h-357v-157h316v-140h-316v-159h371v-140h-516v736h502zM450.5 898q40.5 -46 57.5 -141h-93q-10 48 -26 71t-49 23t-48.5 -23t-25.5 -71h-93q16 97 56.5 142t110.5 45t110.5 -46z" />
    <glyph glyph-name="Emacron" unicode="&#x112;" horiz-adv-x="666" 
d="M597 736v-140h-357v-157h316v-140h-316v-159h371v-140h-516v736h502zM469 887v-97h-255v97h255z" />
    <glyph glyph-name="Eogonek" unicode="&#x118;" horiz-adv-x="666" 
d="M649 -157q-22 -33 -61 -54t-74 -21q-63 0 -104.5 35.5t-41.5 93.5q0 29 17 57t47 46h-337v736h502v-140h-357v-157h316v-140h-316v-159h371v-140q-66 -25 -97 -45t-31 -47q0 -42 44 -42q39 0 72 49z" />
    <glyph glyph-name="uni1EBC" unicode="&#x1ebc;" horiz-adv-x="666" 
d="M597 736v-140h-357v-157h316v-140h-316v-159h371v-140h-516v736h502zM373 834q-21 11 -48 33q-27 23 -44 23q-16 0 -23.5 -14.5t-7.5 -36.5l1 -14h-70q-1 7 -1 22q0 55 29 93t80 38q22 0 39.5 -10.5t42.5 -31.5q20 -17 29.5 -23.5t20.5 -6.5q29 0 25 69h70q3 -16 3 -32
q0 -52 -27.5 -86t-67.5 -34q-30 0 -51 11z" />
    <glyph glyph-name="F" unicode="F" horiz-adv-x="600" 
d="M555 736v-140h-315v-167h273v-140h-273v-289h-145v736h460z" />
    <glyph glyph-name="G" unicode="G" horiz-adv-x="762" 
d="M631.5 36.5q-43.5 -19.5 -96 -32t-95.5 -12.5q-117 0 -205.5 45.5t-136.5 126t-48 183.5q0 129 51 218.5t137 134t190 44.5q67 0 126 -15t104 -39l-47 -135q-29 16 -79.5 29.5t-84.5 13.5q-120 0 -183.5 -60t-63.5 -178q0 -68 31 -118.5t86.5 -77.5t126.5 -27
q68 0 101 19v89h-127v140h274v-311q-17 -18 -60.5 -37.5z" />
    <glyph glyph-name="Gbreve" unicode="&#x11e;" horiz-adv-x="762" 
d="M631.5 36.5q-43.5 -19.5 -96 -32t-95.5 -12.5q-117 0 -205.5 45.5t-136.5 126t-48 183.5q0 129 51 218.5t137 134t190 44.5q67 0 126 -15t104 -39l-47 -135q-29 16 -79.5 29.5t-84.5 13.5q-120 0 -183.5 -60t-63.5 -178q0 -68 31 -118.5t86.5 -77.5t126.5 -27
q68 0 101 19v89h-127v140h274v-311q-17 -18 -60.5 -37.5zM300.5 810q-40.5 46 -57.5 141h93q10 -48 26 -71t49 -23t48.5 23t25.5 71h93q-16 -97 -56.5 -142t-110.5 -45t-110.5 46z" />
    <glyph glyph-name="Gcaron" unicode="&#x1e6;" horiz-adv-x="762" 
d="M631.5 36.5q-43.5 -19.5 -96 -32t-95.5 -12.5q-117 0 -205.5 45.5t-136.5 126t-48 183.5q0 129 51 218.5t137 134t190 44.5q67 0 126 -15t104 -39l-47 -135q-29 16 -79.5 29.5t-84.5 13.5q-120 0 -183.5 -60t-63.5 -178q0 -68 31 -118.5t86.5 -77.5t126.5 -27
q68 0 101 19v89h-127v140h274v-311q-17 -18 -60.5 -37.5zM596 937l-185 -184h-1l-189 184h126l65 -62l58 62h126z" />
    <glyph glyph-name="Gcircumflex" unicode="&#x11c;" horiz-adv-x="762" 
d="M631.5 36.5q-43.5 -19.5 -96 -32t-95.5 -12.5q-117 0 -205.5 45.5t-136.5 126t-48 183.5q0 129 51 218.5t137 134t190 44.5q67 0 126 -15t104 -39l-47 -135q-29 16 -79.5 29.5t-84.5 13.5q-120 0 -183.5 -60t-63.5 -178q0 -68 31 -118.5t86.5 -77.5t126.5 -27
q68 0 101 19v89h-127v140h274v-311q-17 -18 -60.5 -37.5zM464 776l-65 62l-58 -62h-126l185 184h1l189 -184h-126z" />
    <glyph glyph-name="Gcommaaccent" unicode="&#x122;" horiz-adv-x="762" 
d="M631.5 36.5q-43.5 -19.5 -96 -32t-95.5 -12.5q-117 0 -205.5 45.5t-136.5 126t-48 183.5q0 129 51 218.5t137 134t190 44.5q67 0 126 -15t104 -39l-47 -135q-29 16 -79.5 29.5t-84.5 13.5q-120 0 -183.5 -60t-63.5 -178q0 -68 31 -118.5t86.5 -77.5t126.5 -27
q68 0 101 19v89h-127v140h274v-311q-17 -18 -60.5 -37.5zM284 -186q17 16 27 46t10 61q0 15 -3 30l122 -1q2 -14 2 -22q0 -43 -24 -90t-62 -72z" />
    <glyph glyph-name="Gdotaccent" unicode="&#x120;" horiz-adv-x="762" 
d="M631.5 36.5q-43.5 -19.5 -96 -32t-95.5 -12.5q-117 0 -205.5 45.5t-136.5 126t-48 183.5q0 129 51 218.5t137 134t190 44.5q67 0 126 -15t104 -39l-47 -135q-29 16 -79.5 29.5t-84.5 13.5q-120 0 -183.5 -60t-63.5 -178q0 -68 31 -118.5t86.5 -77.5t126.5 -27
q68 0 101 19v89h-127v140h274v-311q-17 -18 -60.5 -37.5zM358.5 881.5q23.5 20.5 53.5 20.5q29 0 52 -20.5t23 -50.5t-23 -50t-52 -20q-30 0 -53.5 20t-23.5 50t23.5 50.5z" />
    <glyph glyph-name="H" unicode="H" horiz-adv-x="809" 
d="M714 0h-145v299h-329v-299h-145v736h145v-297h329v297h145v-736z" />
    <glyph glyph-name="Hbar" unicode="&#x126;" horiz-adv-x="975" 
d="M880 499h-74v-499h-145v299h-329v-299h-145v499h-92v107h92v130h145v-130h329v130h145v-130h74v-107zM661 499h-329v-60h329v60z" />
    <glyph glyph-name="Hcircumflex" unicode="&#x124;" horiz-adv-x="809" 
d="M714 0h-145v299h-329v-299h-145v736h145v-297h329v297h145v-736zM458 776l-65 62l-58 -62h-126l185 184h1l189 -184h-126z" />
    <glyph glyph-name="I" unicode="I" horiz-adv-x="335" 
d="M240 736v-736h-145v736h145z" />
    <glyph glyph-name="IJ" unicode="&#x132;" horiz-adv-x="735" 
d="M240 736v-736h-145v736h145zM602.5 -7.5q-37.5 -68.5 -105.5 -105.5t-157 -40v141q154 8 154 170v578h146v-581q0 -94 -37.5 -162.5z" />
    <glyph glyph-name="Iacute" unicode="&#xcd;" horiz-adv-x="335" 
d="M240 736v-736h-145v736h145zM206 784h-85l78 135h155z" />
    <glyph glyph-name="Ibreve" unicode="&#x12c;" horiz-adv-x="335" 
d="M240 736v-736h-145v736h145zM57.5 830q-40.5 46 -57.5 141h93q10 -48 26 -71t49 -23t48.5 23t25.5 71h93q-16 -97 -56.5 -142t-110.5 -45t-110.5 46z" />
    <glyph glyph-name="Icircumflex" unicode="&#xce;" horiz-adv-x="335" 
d="M240 736v-736h-145v736h145zM221 796l-65 62l-58 -62h-126l185 184h1l189 -184h-126z" />
    <glyph glyph-name="uni0208" unicode="&#x208;" horiz-adv-x="335" 
d="M240 736v-736h-145v736h145zM87 926l62 -135h-85l-132 135h155zM257 926l62 -135h-85l-132 135h155z" />
    <glyph glyph-name="Idieresis" unicode="&#xcf;" horiz-adv-x="335" 
d="M240 736v-736h-145v736h145zM12 906q22 21 50 21q26 0 48 -21.5t22 -51.5q0 -31 -22 -51.5t-48 -20.5q-28 0 -50 20.5t-22 51.5t22 52zM212 906q22 21 50 21q26 0 48 -21.5t22 -51.5q0 -31 -22 -51.5t-48 -20.5q-28 0 -50 20.5t-22 51.5t22 52z" />
    <glyph glyph-name="Idotaccent" unicode="&#x130;" horiz-adv-x="335" 
d="M240 736v-736h-145v736h145zM115.5 901.5q23.5 20.5 53.5 20.5q29 0 52 -20.5t23 -50.5t-23 -50t-52 -20q-30 0 -53.5 20t-23.5 50t23.5 50.5z" />
    <glyph glyph-name="uni1ECA" unicode="&#x1eca;" horiz-adv-x="335" 
d="M240 736v-736h-145v736h145zM112.5 -66.5q23.5 20.5 53.5 20.5q29 0 52 -20.5t23 -50.5t-23 -50t-52 -20q-30 0 -53.5 20t-23.5 50t23.5 50.5z" />
    <glyph glyph-name="Igrave" unicode="&#xcc;" horiz-adv-x="335" 
d="M240 736v-736h-145v736h145zM137 923l62 -135h-85l-132 135h155z" />
    <glyph glyph-name="uni1EC8" unicode="&#x1ec8;" horiz-adv-x="335" 
d="M240 736v-736h-145v736h145zM187.5 863.5q9.5 11.5 9.5 27.5q0 33 -29 33q-13 0 -23 -7.5t-16 -19.5l-50 30q17 35 46 53.5t62 18.5q43 0 65 -26.5t22 -61.5q0 -36 -23.5 -62.5t-63.5 -47.5l-29 37q20 14 29.5 25.5z" />
    <glyph glyph-name="uni020A" unicode="&#x20a;" horiz-adv-x="335" 
d="M240 736v-736h-145v736h145zM272.5 898q40.5 -46 57.5 -141h-93q-10 48 -26 71t-49 23t-48.5 -23t-25.5 -71h-93q16 97 56.5 142t110.5 45t110.5 -46z" />
    <glyph glyph-name="Imacron" unicode="&#x12a;" horiz-adv-x="335" 
d="M240 736v-736h-145v736h145zM291 887v-97h-255v97h255z" />
    <glyph glyph-name="Iogonek" unicode="&#x12e;" horiz-adv-x="285" 
d="M288 -157q-22 -33 -61 -54t-74 -21q-64 0 -105 31t-41 88q0 34 22.5 65.5t62.5 47.5h3v736h145v-736h-5q-57 -22 -85 -42.5t-28 -49.5q0 -42 44 -42q39 0 72 49z" />
    <glyph glyph-name="Itilde" unicode="&#x128;" horiz-adv-x="335" 
d="M240 736v-736h-145v736h145zM195 834q-21 11 -48 33q-27 23 -44 23q-16 0 -23.5 -14.5t-7.5 -36.5l1 -14h-70q-1 7 -1 22q0 55 29 93t80 38q22 0 39.5 -10.5t42.5 -31.5q20 -17 29.5 -23.5t20.5 -6.5q29 0 25 69h70q3 -16 3 -32q0 -52 -27.5 -86t-67.5 -34q-30 0 -51 11z
" />
    <glyph glyph-name="J" unicode="J" horiz-adv-x="400" 
d="M267.5 -7.5q-37.5 -68.5 -105.5 -105.5t-157 -40v141q154 8 154 170v578h146v-581q0 -94 -37.5 -162.5z" />
    <glyph glyph-name="Jcircumflex" unicode="&#x134;" horiz-adv-x="400" 
d="M267.5 -7.5q-37.5 -68.5 -105.5 -105.5t-157 -40v141q154 8 154 170v578h146v-581q0 -94 -37.5 -162.5zM291 796l-65 62l-58 -62h-126l185 184h1l189 -184h-126z" />
    <glyph glyph-name="K" unicode="K" horiz-adv-x="704" 
d="M238 437l22 28l240 271h188l-304 -330l305 -406h-184l-227 314l-36 -36v-278h-147v736h147v-262z" />
    <glyph glyph-name="Kcommaaccent" unicode="&#x136;" horiz-adv-x="704" 
d="M238 437l22 28l240 271h188l-304 -330l305 -406h-184l-227 314l-36 -36v-278h-147v736h147v-262zM233 -186q17 16 27 46t10 61q0 15 -3 30l122 -1q2 -14 2 -22q0 -43 -24 -90t-62 -72z" />
    <glyph glyph-name="L" unicode="L" horiz-adv-x="641" 
d="M240 736v-596h346v-140h-491v736h145z" />
    <glyph glyph-name="uni01C7" unicode="&#x1c7;" horiz-adv-x="1041" 
d="M240 736v-596h346v-140h-491v736h145zM908.5 -7.5q-37.5 -68.5 -105.5 -105.5t-157 -40v141q154 8 154 170v578h146v-581q0 -94 -37.5 -162.5z" />
    <glyph glyph-name="Lacute" unicode="&#x139;" horiz-adv-x="641" 
d="M240 736v-596h346v-140h-491v736h145zM203 784h-85l78 135h155z" />
    <glyph glyph-name="Lcaron" unicode="&#x13d;" horiz-adv-x="640" 
d="M240 736v-596h346v-140h-491v736h145zM429 587q19 18 32 48.5t13 60.5q0 8 -2 22l107 7q2 -12 2 -19q0 -41 -24 -85t-56 -62z" />
    <glyph glyph-name="Lcommaaccent" unicode="&#x13b;" horiz-adv-x="641" 
d="M240 736v-596h346v-140h-491v736h145zM231 -186q17 16 27 46t10 61q0 15 -3 30l122 -1q2 -14 2 -22q0 -43 -24 -90t-62 -72z" />
    <glyph glyph-name="Ldot" unicode="&#x13f;" horiz-adv-x="634" 
d="M240 736v-596h346v-140h-491v736h145zM469 444.5q22 21.5 50 21.5q26 0 48 -21.5t22 -51.5q0 -31 -21.5 -51.5t-48.5 -20.5q-28 0 -50 20t-22 52q0 30 22 51.5z" />
    <glyph glyph-name="uni01C8" unicode="&#x1c8;" horiz-adv-x="936" 
d="M240 736v-596h346v-140h-491v736h145zM661 -124q63 46 63 132v429h140v-437q0 -80 -28.5 -131t-93.5 -80zM742.5 642.5q23.5 20.5 53.5 20.5q29 0 52 -20.5t23 -50.5t-23 -50t-52 -20q-30 0 -53.5 20t-23.5 50t23.5 50.5z" />
    <glyph glyph-name="Lslash" unicode="&#x141;" horiz-adv-x="640" 
d="M586 140v-140h-491v274l-60 -19l-30 113l90 28v340h145v-295l171 53l30 -113l-201 -62v-179h346z" />
    <glyph glyph-name="M" unicode="M" horiz-adv-x="948" 
d="M853 766v-766h-145v351l-240 -341h-2l-231 319v-329h-140v766h1l373 -529l382 529h2z" />
    <glyph glyph-name="N" unicode="N" horiz-adv-x="853" 
d="M758 736v-766h-4l-515 465l3 -435h-147v765h6l514 -472l-3 443h146z" />
    <glyph glyph-name="uni01CA" unicode="&#x1ca;" horiz-adv-x="1253" 
d="M758 736v-766h-4l-515 465l3 -435h-147v765h6l514 -472l-3 443h146zM1120.5 -7.5q-37.5 -68.5 -105.5 -105.5t-157 -40v141q154 8 154 170v578h146v-581q0 -94 -37.5 -162.5z" />
    <glyph glyph-name="Nacute" unicode="&#x143;" horiz-adv-x="853" 
d="M758 736v-766h-4l-515 465l3 -435h-147v765h6l514 -472l-3 443h146zM445 764h-85l78 135h155z" />
    <glyph glyph-name="Ncaron" unicode="&#x147;" horiz-adv-x="853" 
d="M758 736v-766h-4l-515 465l3 -435h-147v765h6l514 -472l-3 443h146zM592 937l-185 -184h-1l-189 184h126l65 -62l58 62h126z" />
    <glyph glyph-name="Ncommaaccent" unicode="&#x145;" horiz-adv-x="853" 
d="M758 736v-766h-4l-515 465l3 -435h-147v765h6l514 -472l-3 443h146zM330 -186q17 16 27 46t10 61q0 15 -3 30l122 -1q2 -14 2 -22q0 -43 -24 -90t-62 -72z" />
    <glyph glyph-name="Eng" unicode="&#x14a;" horiz-adv-x="803" 
d="M733 736v-736q0 -147 -122 -211l-80 87q63 46 63 132v84l-380 343l3 -435h-147v765h6l514 -472l-3 443h146z" />
    <glyph glyph-name="uni019D" unicode="&#x19d;" horiz-adv-x="828" 
d="M733 736v-732l-4 -34l-515 465l3 -405v-30q0 -147 -122 -211l-88 87q63 46 63 132v757h6l514 -472l-3 443h146z" />
    <glyph glyph-name="uni01CB" unicode="&#x1cb;" horiz-adv-x="1148" 
d="M758 736v-766h-4l-515 465l3 -435h-147v765h6l514 -472l-3 443h146zM873 -124q63 46 63 132v429h140v-437q0 -80 -28.5 -131t-93.5 -80zM954.5 642.5q23.5 20.5 53.5 20.5q29 0 52 -20.5t23 -50.5t-23 -50t-52 -20q-30 0 -53.5 20t-23.5 50t23.5 50.5z" />
    <glyph glyph-name="Ntilde" unicode="&#xd1;" horiz-adv-x="853" 
d="M758 736v-766h-4l-515 465l3 -435h-147v765h6l514 -472l-3 443h146zM434 814q-21 11 -48 33q-27 23 -44 23q-16 0 -23.5 -14.5t-7.5 -36.5l1 -14h-70q-1 7 -1 22q0 55 29 93t80 38q22 0 39.5 -10.5t42.5 -31.5q20 -17 29.5 -23.5t20.5 -6.5q29 0 25 69h70q3 -16 3 -32
q0 -52 -27.5 -86t-67.5 -34q-30 0 -51 11z" />
    <glyph glyph-name="O" unicode="O" horiz-adv-x="852" 
d="M100.5 554q50.5 87 137 138.5t187.5 51.5t187.5 -51.5t138 -138.5t51.5 -187q0 -102 -51.5 -188t-138 -136.5t-187.5 -50.5q-102 0 -188 50.5t-136.5 136.5t-50.5 188q0 100 50.5 187zM230.5 249q30.5 -54 83 -85.5t116.5 -31.5q62 0 113 31.5t80 85t29 118.5
q0 66 -30 120t-81.5 85.5t-114.5 31.5t-114.5 -31.5t-81.5 -85.5t-30 -120q0 -64 30.5 -118z" />
    <glyph glyph-name="Oacute" unicode="&#xd3;" horiz-adv-x="852" 
d="M100.5 554q50.5 87 137 138.5t187.5 51.5t187.5 -51.5t138 -138.5t51.5 -187q0 -102 -51.5 -188t-138 -136.5t-187.5 -50.5q-102 0 -188 50.5t-136.5 136.5t-50.5 188q0 100 50.5 187zM230.5 249q30.5 -54 83 -85.5t116.5 -31.5q62 0 113 31.5t80 85t29 118.5
q0 66 -30 120t-81.5 85.5t-114.5 31.5t-114.5 -31.5t-81.5 -85.5t-30 -120q0 -64 30.5 -118zM464 774h-85l78 135h155z" />
    <glyph glyph-name="Obreve" unicode="&#x14e;" horiz-adv-x="852" 
d="M100.5 554q50.5 87 137 138.5t187.5 51.5t187.5 -51.5t138 -138.5t51.5 -187q0 -102 -51.5 -188t-138 -136.5t-187.5 -50.5q-102 0 -188 50.5t-136.5 136.5t-50.5 188q0 100 50.5 187zM230.5 249q30.5 -54 83 -85.5t116.5 -31.5q62 0 113 31.5t80 85t29 118.5
q0 66 -30 120t-81.5 85.5t-114.5 31.5t-114.5 -31.5t-81.5 -85.5t-30 -120q0 -64 30.5 -118zM315.5 820q-40.5 46 -57.5 141h93q10 -48 26 -71t49 -23t48.5 23t25.5 71h93q-16 -97 -56.5 -142t-110.5 -45t-110.5 46z" />
    <glyph glyph-name="Ocircumflex" unicode="&#xd4;" horiz-adv-x="852" 
d="M100.5 554q50.5 87 137 138.5t187.5 51.5t187.5 -51.5t138 -138.5t51.5 -187q0 -102 -51.5 -188t-138 -136.5t-187.5 -50.5q-102 0 -188 50.5t-136.5 136.5t-50.5 188q0 100 50.5 187zM230.5 249q30.5 -54 83 -85.5t116.5 -31.5q62 0 113 31.5t80 85t29 118.5
q0 66 -30 120t-81.5 85.5t-114.5 31.5t-114.5 -31.5t-81.5 -85.5t-30 -120q0 -64 30.5 -118zM479 786l-65 62l-58 -62h-126l185 184h1l189 -184h-126z" />
    <glyph glyph-name="uni1ED0" unicode="&#x1ed0;" horiz-adv-x="852" 
d="M100.5 554q50.5 87 137 138.5t187.5 51.5t187.5 -51.5t138 -138.5t51.5 -187q0 -102 -51.5 -188t-138 -136.5t-187.5 -50.5q-102 0 -188 50.5t-136.5 136.5t-50.5 188q0 100 50.5 187zM230.5 249q30.5 -54 83 -85.5t116.5 -31.5q62 0 113 31.5t80 85t29 118.5
q0 66 -30 120t-81.5 85.5t-114.5 31.5t-114.5 -31.5t-81.5 -85.5t-30 -120q0 -64 30.5 -118zM492 798l-65 62l-58 -62h-126l185 184h1l189 -184h-126zM650 905h-85l78 135h155z" />
    <glyph glyph-name="uni1ED8" unicode="&#x1ed8;" horiz-adv-x="852" 
d="M100.5 554q50.5 87 137 138.5t187.5 51.5t187.5 -51.5t138 -138.5t51.5 -187q0 -102 -51.5 -188t-138 -136.5t-187.5 -50.5q-102 0 -188 50.5t-136.5 136.5t-50.5 188q0 100 50.5 187zM230.5 249q30.5 -54 83 -85.5t116.5 -31.5q62 0 113 31.5t80 85t29 118.5
q0 66 -30 120t-81.5 85.5t-114.5 31.5t-114.5 -31.5t-81.5 -85.5t-30 -120q0 -64 30.5 -118zM370.5 -66.5q23.5 20.5 53.5 20.5q29 0 52 -20.5t23 -50.5t-23 -50t-52 -20q-30 0 -53.5 20t-23.5 50t23.5 50.5zM479 786l-65 62l-58 -62h-126l185 184h1l189 -184h-126z" />
    <glyph glyph-name="uni1ED2" unicode="&#x1ed2;" horiz-adv-x="852" 
d="M100.5 554q50.5 87 137 138.5t187.5 51.5t187.5 -51.5t138 -138.5t51.5 -187q0 -102 -51.5 -188t-138 -136.5t-187.5 -50.5q-102 0 -188 50.5t-136.5 136.5t-50.5 188q0 100 50.5 187zM230.5 249q30.5 -54 83 -85.5t116.5 -31.5q62 0 113 31.5t80 85t29 118.5
q0 66 -30 120t-81.5 85.5t-114.5 31.5t-114.5 -31.5t-81.5 -85.5t-30 -120q0 -64 30.5 -118zM484 798l-65 62l-58 -62h-126l185 184h1l189 -184h-126zM226 1044l62 -135h-85l-132 135h155z" />
    <glyph glyph-name="uni1ED4" unicode="&#x1ed4;" horiz-adv-x="852" 
d="M100.5 554q50.5 87 137 138.5t187.5 51.5t187.5 -51.5t138 -138.5t51.5 -187q0 -102 -51.5 -188t-138 -136.5t-187.5 -50.5q-102 0 -188 50.5t-136.5 136.5t-50.5 188q0 100 50.5 187zM230.5 249q30.5 -54 83 -85.5t116.5 -31.5q62 0 113 31.5t80 85t29 118.5
q0 66 -30 120t-81.5 85.5t-114.5 31.5t-114.5 -31.5t-81.5 -85.5t-30 -120q0 -64 30.5 -118zM488 798l-65 62l-58 -62h-126l185 184h1l189 -184h-126zM644.5 934.5q9.5 11.5 9.5 27.5q0 33 -29 33q-13 0 -23 -7.5t-16 -19.5l-50 30q17 35 46 53.5t62 18.5q43 0 65 -26.5
t22 -61.5q0 -36 -23.5 -62.5t-63.5 -47.5l-29 37q20 14 29.5 25.5z" />
    <glyph glyph-name="uni1ED6" unicode="&#x1ed6;" horiz-adv-x="852" 
d="M100.5 554q50.5 87 137 138.5t187.5 51.5t187.5 -51.5t138 -138.5t51.5 -187q0 -102 -51.5 -188t-138 -136.5t-187.5 -50.5q-102 0 -188 50.5t-136.5 136.5t-50.5 188q0 100 50.5 187zM230.5 249q30.5 -54 83 -85.5t116.5 -31.5q62 0 113 31.5t80 85t29 118.5
q0 66 -30 120t-81.5 85.5t-114.5 31.5t-114.5 -31.5t-81.5 -85.5t-30 -120q0 -64 30.5 -118zM480 798l-65 62l-58 -62h-126l185 184h1l189 -184h-126zM448 1022q-21 11 -48 33q-27 23 -44 23q-16 0 -23.5 -14.5t-7.5 -36.5l1 -14h-70q-1 7 -1 22q0 55 29 93t80 38
q22 0 39.5 -10.5t42.5 -31.5q20 -17 29.5 -23.5t20.5 -6.5q29 0 25 69h70q3 -16 3 -32q0 -52 -27.5 -86t-67.5 -34q-30 0 -51 11z" />
    <glyph glyph-name="uni020C" unicode="&#x20c;" horiz-adv-x="852" 
d="M100.5 554q50.5 87 137 138.5t187.5 51.5t187.5 -51.5t138 -138.5t51.5 -187q0 -102 -51.5 -188t-138 -136.5t-187.5 -50.5q-102 0 -188 50.5t-136.5 136.5t-50.5 188q0 100 50.5 187zM230.5 249q30.5 -54 83 -85.5t116.5 -31.5q62 0 113 31.5t80 85t29 118.5
q0 66 -30 120t-81.5 85.5t-114.5 31.5t-114.5 -31.5t-81.5 -85.5t-30 -120q0 -64 30.5 -118zM345 916l62 -135h-85l-132 135h155zM515 916l62 -135h-85l-132 135h155z" />
    <glyph glyph-name="Odieresis" unicode="&#xd6;" horiz-adv-x="852" 
d="M100.5 554q50.5 87 137 138.5t187.5 51.5t187.5 -51.5t138 -138.5t51.5 -187q0 -102 -51.5 -188t-138 -136.5t-187.5 -50.5q-102 0 -188 50.5t-136.5 136.5t-50.5 188q0 100 50.5 187zM230.5 249q30.5 -54 83 -85.5t116.5 -31.5q62 0 113 31.5t80 85t29 118.5
q0 66 -30 120t-81.5 85.5t-114.5 31.5t-114.5 -31.5t-81.5 -85.5t-30 -120q0 -64 30.5 -118zM270 896q22 21 50 21q26 0 48 -21.5t22 -51.5q0 -31 -22 -51.5t-48 -20.5q-28 0 -50 20.5t-22 51.5t22 52zM470 896q22 21 50 21q26 0 48 -21.5t22 -51.5q0 -31 -22 -51.5
t-48 -20.5q-28 0 -50 20.5t-22 51.5t22 52z" />
    <glyph glyph-name="uni022A" unicode="&#x22a;" horiz-adv-x="852" 
d="M100.5 554q50.5 87 137 138.5t187.5 51.5t187.5 -51.5t138 -138.5t51.5 -187q0 -102 -51.5 -188t-138 -136.5t-187.5 -50.5q-102 0 -188 50.5t-136.5 136.5t-50.5 188q0 100 50.5 187zM230.5 249q30.5 -54 83 -85.5t116.5 -31.5q62 0 113 31.5t80 85t29 118.5
q0 66 -30 120t-81.5 85.5t-114.5 31.5t-114.5 -31.5t-81.5 -85.5t-30 -120q0 -64 30.5 -118zM270 896q22 21 50 21q26 0 48 -21.5t22 -51.5q0 -31 -22 -51.5t-48 -20.5q-28 0 -50 20.5t-22 51.5t22 52zM470 896q22 21 50 21q26 0 48 -21.5t22 -51.5q0 -31 -22 -51.5
t-48 -20.5q-28 0 -50 20.5t-22 51.5t22 52zM549 1049v-97h-255v97h255z" />
    <glyph glyph-name="uni0230" unicode="&#x230;" horiz-adv-x="852" 
d="M100.5 554q50.5 87 137 138.5t187.5 51.5t187.5 -51.5t138 -138.5t51.5 -187q0 -102 -51.5 -188t-138 -136.5t-187.5 -50.5q-102 0 -188 50.5t-136.5 136.5t-50.5 188q0 100 50.5 187zM230.5 249q30.5 -54 83 -85.5t116.5 -31.5q62 0 113 31.5t80 85t29 118.5
q0 66 -30 120t-81.5 85.5t-114.5 31.5t-114.5 -31.5t-81.5 -85.5t-30 -120q0 -64 30.5 -118zM373.5 891.5q23.5 20.5 53.5 20.5q29 0 52 -20.5t23 -50.5t-23 -50t-52 -20q-30 0 -53.5 20t-23.5 50t23.5 50.5zM550 1043v-97h-255v97h255z" />
    <glyph glyph-name="uni1ECC" unicode="&#x1ecc;" horiz-adv-x="852" 
d="M100.5 554q50.5 87 137 138.5t187.5 51.5t187.5 -51.5t138 -138.5t51.5 -187q0 -102 -51.5 -188t-138 -136.5t-187.5 -50.5q-102 0 -188 50.5t-136.5 136.5t-50.5 188q0 100 50.5 187zM230.5 249q30.5 -54 83 -85.5t116.5 -31.5q62 0 113 31.5t80 85t29 118.5
q0 66 -30 120t-81.5 85.5t-114.5 31.5t-114.5 -31.5t-81.5 -85.5t-30 -120q0 -64 30.5 -118zM370.5 -66.5q23.5 20.5 53.5 20.5q29 0 52 -20.5t23 -50.5t-23 -50t-52 -20q-30 0 -53.5 20t-23.5 50t23.5 50.5z" />
    <glyph glyph-name="Ograve" unicode="&#xd2;" horiz-adv-x="852" 
d="M100.5 554q50.5 87 137 138.5t187.5 51.5t187.5 -51.5t138 -138.5t51.5 -187q0 -102 -51.5 -188t-138 -136.5t-187.5 -50.5q-102 0 -188 50.5t-136.5 136.5t-50.5 188q0 100 50.5 187zM230.5 249q30.5 -54 83 -85.5t116.5 -31.5q62 0 113 31.5t80 85t29 118.5
q0 66 -30 120t-81.5 85.5t-114.5 31.5t-114.5 -31.5t-81.5 -85.5t-30 -120q0 -64 30.5 -118zM395 913l62 -135h-85l-132 135h155z" />
    <glyph glyph-name="uni1ECE" unicode="&#x1ece;" horiz-adv-x="852" 
d="M100.5 554q50.5 87 137 138.5t187.5 51.5t187.5 -51.5t138 -138.5t51.5 -187q0 -102 -51.5 -188t-138 -136.5t-187.5 -50.5q-102 0 -188 50.5t-136.5 136.5t-50.5 188q0 100 50.5 187zM230.5 249q30.5 -54 83 -85.5t116.5 -31.5q62 0 113 31.5t80 85t29 118.5
q0 66 -30 120t-81.5 85.5t-114.5 31.5t-114.5 -31.5t-81.5 -85.5t-30 -120q0 -64 30.5 -118zM445.5 853.5q9.5 11.5 9.5 27.5q0 33 -29 33q-13 0 -23 -7.5t-16 -19.5l-50 30q17 35 46 53.5t62 18.5q43 0 65 -26.5t22 -61.5q0 -36 -23.5 -62.5t-63.5 -47.5l-29 37
q20 14 29.5 25.5z" />
    <glyph glyph-name="Ohorn" unicode="&#x1a0;" horiz-adv-x="852" 
d="M751.5 552.5q50.5 -86.5 50.5 -185.5q0 -102 -51.5 -188t-138 -136.5t-187.5 -50.5q-102 0 -188 50.5t-136.5 136.5t-50.5 188q0 100 50.5 187t137 138.5t187.5 51.5q40 0 72 -7q34 0 47 14.5t22 59.5h103q-14 -85 -52 -121q84 -51 134.5 -137.5zM543 163.5
q51 31.5 80 85t29 118.5q0 66 -30 120t-81.5 85.5t-114.5 31.5t-114.5 -31.5t-81.5 -85.5t-30 -120q0 -64 30.5 -118t83 -85.5t116.5 -31.5q62 0 113 31.5z" />
    <glyph glyph-name="uni1EDA" unicode="&#x1eda;" horiz-adv-x="852" 
d="M751.5 552.5q50.5 -86.5 50.5 -185.5q0 -102 -51.5 -188t-138 -136.5t-187.5 -50.5q-102 0 -188 50.5t-136.5 136.5t-50.5 188q0 100 50.5 187t137 138.5t187.5 51.5q40 0 72 -7q34 0 47 14.5t22 59.5h103q-14 -85 -52 -121q84 -51 134.5 -137.5zM543 163.5
q51 31.5 80 85t29 118.5q0 66 -30 120t-81.5 85.5t-114.5 31.5t-114.5 -31.5t-81.5 -85.5t-30 -120q0 -64 30.5 -118t83 -85.5t116.5 -31.5q62 0 113 31.5zM464 774h-85l78 135h155z" />
    <glyph glyph-name="uni1EE2" unicode="&#x1ee2;" horiz-adv-x="852" 
d="M751.5 552.5q50.5 -86.5 50.5 -185.5q0 -102 -51.5 -188t-138 -136.5t-187.5 -50.5q-102 0 -188 50.5t-136.5 136.5t-50.5 188q0 100 50.5 187t137 138.5t187.5 51.5q40 0 72 -7q34 0 47 14.5t22 59.5h103q-14 -85 -52 -121q84 -51 134.5 -137.5zM543 163.5
q51 31.5 80 85t29 118.5q0 66 -30 120t-81.5 85.5t-114.5 31.5t-114.5 -31.5t-81.5 -85.5t-30 -120q0 -64 30.5 -118t83 -85.5t116.5 -31.5q62 0 113 31.5zM370.5 -66.5q23.5 20.5 53.5 20.5q29 0 52 -20.5t23 -50.5t-23 -50t-52 -20q-30 0 -53.5 20t-23.5 50t23.5 50.5z
" />
    <glyph glyph-name="uni1EDC" unicode="&#x1edc;" horiz-adv-x="852" 
d="M751.5 552.5q50.5 -86.5 50.5 -185.5q0 -102 -51.5 -188t-138 -136.5t-187.5 -50.5q-102 0 -188 50.5t-136.5 136.5t-50.5 188q0 100 50.5 187t137 138.5t187.5 51.5q40 0 72 -7q34 0 47 14.5t22 59.5h103q-14 -85 -52 -121q84 -51 134.5 -137.5zM543 163.5
q51 31.5 80 85t29 118.5q0 66 -30 120t-81.5 85.5t-114.5 31.5t-114.5 -31.5t-81.5 -85.5t-30 -120q0 -64 30.5 -118t83 -85.5t116.5 -31.5q62 0 113 31.5zM433 913l62 -135h-85l-132 135h155z" />
    <glyph glyph-name="uni1EDE" unicode="&#x1ede;" horiz-adv-x="852" 
d="M751.5 552.5q50.5 -86.5 50.5 -185.5q0 -102 -51.5 -188t-138 -136.5t-187.5 -50.5q-102 0 -188 50.5t-136.5 136.5t-50.5 188q0 100 50.5 187t137 138.5t187.5 51.5q40 0 72 -7q34 0 47 14.5t22 59.5h103q-14 -85 -52 -121q84 -51 134.5 -137.5zM543 163.5
q51 31.5 80 85t29 118.5q0 66 -30 120t-81.5 85.5t-114.5 31.5t-114.5 -31.5t-81.5 -85.5t-30 -120q0 -64 30.5 -118t83 -85.5t116.5 -31.5q62 0 113 31.5zM445.5 853.5q9.5 11.5 9.5 27.5q0 33 -29 33q-13 0 -23 -7.5t-16 -19.5l-50 30q17 35 46 53.5t62 18.5
q43 0 65 -26.5t22 -61.5q0 -36 -23.5 -62.5t-63.5 -47.5l-29 37q20 14 29.5 25.5z" />
    <glyph glyph-name="uni1EE0" unicode="&#x1ee0;" horiz-adv-x="852" 
d="M751.5 552.5q50.5 -86.5 50.5 -185.5q0 -102 -51.5 -188t-138 -136.5t-187.5 -50.5q-102 0 -188 50.5t-136.5 136.5t-50.5 188q0 100 50.5 187t137 138.5t187.5 51.5q40 0 72 -7q34 0 47 14.5t22 59.5h103q-14 -85 -52 -121q84 -51 134.5 -137.5zM543 163.5
q51 31.5 80 85t29 118.5q0 66 -30 120t-81.5 85.5t-114.5 31.5t-114.5 -31.5t-81.5 -85.5t-30 -120q0 -64 30.5 -118t83 -85.5t116.5 -31.5q62 0 113 31.5zM453 824q-21 11 -48 33q-27 23 -44 23q-16 0 -23.5 -14.5t-7.5 -36.5l1 -14h-70q-1 7 -1 22q0 55 29 93t80 38
q22 0 39.5 -10.5t42.5 -31.5q20 -17 29.5 -23.5t20.5 -6.5q29 0 25 69h70q3 -16 3 -32q0 -52 -27.5 -86t-67.5 -34q-30 0 -51 11z" />
    <glyph glyph-name="Ohungarumlaut" unicode="&#x150;" horiz-adv-x="852" 
d="M100.5 554q50.5 87 137 138.5t187.5 51.5t187.5 -51.5t138 -138.5t51.5 -187q0 -102 -51.5 -188t-138 -136.5t-187.5 -50.5q-102 0 -188 50.5t-136.5 136.5t-50.5 188q0 100 50.5 187zM230.5 249q30.5 -54 83 -85.5t116.5 -31.5q62 0 113 31.5t80 85t29 118.5
q0 66 -30 120t-81.5 85.5t-114.5 31.5t-114.5 -31.5t-81.5 -85.5t-30 -120q0 -64 30.5 -118zM331 780h-85l78 135h155zM515 778h-85l78 135h155z" />
    <glyph glyph-name="uni020E" unicode="&#x20e;" horiz-adv-x="852" 
d="M100.5 554q50.5 87 137 138.5t187.5 51.5t187.5 -51.5t138 -138.5t51.5 -187q0 -102 -51.5 -188t-138 -136.5t-187.5 -50.5q-102 0 -188 50.5t-136.5 136.5t-50.5 188q0 100 50.5 187zM230.5 249q30.5 -54 83 -85.5t116.5 -31.5q62 0 113 31.5t80 85t29 118.5
q0 66 -30 120t-81.5 85.5t-114.5 31.5t-114.5 -31.5t-81.5 -85.5t-30 -120q0 -64 30.5 -118zM530.5 888q40.5 -46 57.5 -141h-93q-10 48 -26 71t-49 23t-48.5 -23t-25.5 -71h-93q16 97 56.5 142t110.5 45t110.5 -46z" />
    <glyph glyph-name="Omacron" unicode="&#x14c;" horiz-adv-x="852" 
d="M100.5 554q50.5 87 137 138.5t187.5 51.5t187.5 -51.5t138 -138.5t51.5 -187q0 -102 -51.5 -188t-138 -136.5t-187.5 -50.5q-102 0 -188 50.5t-136.5 136.5t-50.5 188q0 100 50.5 187zM230.5 249q30.5 -54 83 -85.5t116.5 -31.5q62 0 113 31.5t80 85t29 118.5
q0 66 -30 120t-81.5 85.5t-114.5 31.5t-114.5 -31.5t-81.5 -85.5t-30 -120q0 -64 30.5 -118zM549 877v-97h-255v97h255z" />
    <glyph glyph-name="uni01EA" unicode="&#x1ea;" horiz-adv-x="852" 
d="M595 10q-45 -34 -64.5 -55t-19.5 -45q0 -44 44 -44q39 0 72 49l50 -72q-22 -33 -61 -54t-74 -21q-64 0 -105 31t-41 88q0 32 19.5 61t53.5 47q-21 -3 -44 -3q-102 0 -188 50.5t-136.5 136.5t-50.5 188q0 100 50.5 187t137 138.5t187.5 51.5t187.5 -51.5t138 -138.5
t51.5 -187q0 -105 -38 -176.5t-101 -126.5q-24 -22 -68 -54zM230.5 249.5q30.5 -53.5 83 -85t116.5 -31.5q62 0 113 31.5t80 85t29 117.5t-30 117.5t-82 84.5t-114 31q-63 0 -114.5 -31t-81.5 -84.5t-30 -117.5t30.5 -117.5z" />
    <glyph glyph-name="Oslash" unicode="&#xd8;" horiz-adv-x="858" 
d="M778.5 494.5q23.5 -61.5 23.5 -127.5q0 -102 -51.5 -188t-138 -136.5t-187.5 -50.5q-106 0 -196 55l-61 -70l-92 83l59 69q-41 49 -63 110t-22 128q0 100 50.5 187t137 138.5t187.5 51.5q103 0 194 -56l62 71l90 -84l-58 -68q42 -51 65.5 -112.5zM234 243l292 337
q-45 24 -100 24q-63 0 -114.5 -31.5t-81.5 -85.5t-30 -120q0 -68 34 -124zM543 163.5q51 31.5 80 85t29 118.5q0 70 -35 129l-293 -338q49 -26 106 -26q62 0 113 31.5z" />
    <glyph glyph-name="Oslashacute" unicode="&#x1fe;" horiz-adv-x="858" 
d="M778.5 494.5q23.5 -61.5 23.5 -127.5q0 -102 -51.5 -188t-138 -136.5t-187.5 -50.5q-106 0 -196 55l-61 -70l-92 83l59 69q-41 49 -63 110t-22 128q0 100 50.5 187t137 138.5t187.5 51.5q103 0 194 -56l62 71l90 -84l-58 -68q42 -51 65.5 -112.5zM234 243l292 337
q-45 24 -100 24q-63 0 -114.5 -31.5t-81.5 -85.5t-30 -120q0 -68 34 -124zM543 163.5q51 31.5 80 85t29 118.5q0 70 -35 129l-293 -338q49 -26 106 -26q62 0 113 31.5zM467 764h-85l78 135h155z" />
    <glyph glyph-name="Otilde" unicode="&#xd5;" horiz-adv-x="852" 
d="M100.5 554q50.5 87 137 138.5t187.5 51.5t187.5 -51.5t138 -138.5t51.5 -187q0 -102 -51.5 -188t-138 -136.5t-187.5 -50.5q-102 0 -188 50.5t-136.5 136.5t-50.5 188q0 100 50.5 187zM230.5 249q30.5 -54 83 -85.5t116.5 -31.5q62 0 113 31.5t80 85t29 118.5
q0 66 -30 120t-81.5 85.5t-114.5 31.5t-114.5 -31.5t-81.5 -85.5t-30 -120q0 -64 30.5 -118zM453 824q-21 11 -48 33q-27 23 -44 23q-16 0 -23.5 -14.5t-7.5 -36.5l1 -14h-70q-1 7 -1 22q0 55 29 93t80 38q22 0 39.5 -10.5t42.5 -31.5q20 -17 29.5 -23.5t20.5 -6.5
q29 0 25 69h70q3 -16 3 -32q0 -52 -27.5 -86t-67.5 -34q-30 0 -51 11z" />
    <glyph glyph-name="uni022C" unicode="&#x22c;" horiz-adv-x="852" 
d="M100.5 554q50.5 87 137 138.5t187.5 51.5t187.5 -51.5t138 -138.5t51.5 -187q0 -102 -51.5 -188t-138 -136.5t-187.5 -50.5q-102 0 -188 50.5t-136.5 136.5t-50.5 188q0 100 50.5 187zM230.5 249q30.5 -54 83 -85.5t116.5 -31.5q62 0 113 31.5t80 85t29 118.5
q0 66 -30 120t-81.5 85.5t-114.5 31.5t-114.5 -31.5t-81.5 -85.5t-30 -120q0 -64 30.5 -118zM453 824q-21 11 -48 33q-27 23 -44 23q-16 0 -23.5 -14.5t-7.5 -36.5l1 -14h-70q-1 7 -1 22q0 55 29 93t80 38q22 0 39.5 -10.5t42.5 -31.5q20 -17 29.5 -23.5t20.5 -6.5
q29 0 25 69h70q3 -16 3 -32q0 -52 -27.5 -86t-67.5 -34q-30 0 -51 11zM549 1125v-97h-255v97h255z" />
    <glyph glyph-name="OE" unicode="&#x152;" horiz-adv-x="1021" 
d="M963 0h-454q-38 -8 -75 -8q-102 0 -188 50.5t-136.5 136.5t-50.5 188q0 100 50.5 187t137 138.5t187.5 51.5q36 0 74 -8h441v-135h-322v-164h281v-138h-281v-160h336v-139zM240 249.5q31 -53.5 83.5 -85t115.5 -31.5q20 0 38 3v460q-19 4 -42 4q-62 0 -114 -31.5
t-82 -84.5t-30 -117t31 -117.5z" />
    <glyph glyph-name="P" unicode="P" horiz-adv-x="636" 
d="M527 669.5q74 -66.5 74 -181.5q0 -66 -25.5 -123.5t-83 -94.5t-148.5 -37h-104v-233h-145v736h223q135 0 209 -66.5zM409 392.5q25 18.5 36 43.5t11 48q0 39 -23 75.5t-89 36.5h-104v-222h103q41 0 66 18.5z" />
    <glyph glyph-name="Thorn" unicode="&#xde;" horiz-adv-x="636" 
d="M601 368q0 -107 -57.5 -181t-189.5 -74h-109v-113h-150v732h150v-116h103q253 0 253 -248zM421.5 285.5q29.5 31.5 29.5 78.5q0 45 -25.5 78.5t-86.5 33.5h-94v-222h93q54 0 83.5 31.5z" />
    <glyph glyph-name="Q" unicode="Q" horiz-adv-x="893" 
d="M843 0h-341q-40 -8 -77 -8q-102 0 -188 50.5t-136.5 136.5t-50.5 188q0 100 50.5 187t137 138.5t187.5 51.5t187.5 -51.5t138 -138.5t51.5 -187q0 -62 -20 -119.5t-56 -105.5h117v-142zM230.5 249.5q30.5 -53.5 83 -85t116.5 -31.5q62 0 113 31.5t80 85t29 117.5
t-30 117.5t-82 84.5t-114 31q-63 0 -114.5 -31t-81.5 -84.5t-30 -117.5t30.5 -117.5z" />
    <glyph glyph-name="R" unicode="R" horiz-adv-x="686" 
d="M492 0l-155 234h-97v-234h-145v736h223q137 0 212.5 -66.5t75.5 -181.5q0 -68 -28.5 -127.5t-87.5 -93.5l171 -267h-169zM240 374h103q59 0 86 34.5t27 74.5t-23 76.5t-89 36.5h-104v-222z" />
    <glyph glyph-name="Racute" unicode="&#x154;" horiz-adv-x="686" 
d="M492 0l-155 234h-97v-234h-145v736h223q137 0 212.5 -66.5t75.5 -181.5q0 -68 -28.5 -127.5t-87.5 -93.5l171 -267h-169zM240 374h103q59 0 86 34.5t27 74.5t-23 76.5t-89 36.5h-104v-222zM359 784h-85l78 135h155z" />
    <glyph glyph-name="Rcaron" unicode="&#x158;" horiz-adv-x="686" 
d="M492 0l-155 234h-97v-234h-145v736h223q137 0 212.5 -66.5t75.5 -181.5q0 -68 -28.5 -127.5t-87.5 -93.5l171 -267h-169zM240 374h103q59 0 86 34.5t27 74.5t-23 76.5t-89 36.5h-104v-222zM506 957l-185 -184h-1l-189 184h126l65 -62l58 62h126z" />
    <glyph glyph-name="Rcommaaccent" unicode="&#x156;" horiz-adv-x="686" 
d="M492 0l-155 234h-97v-234h-145v736h223q137 0 212.5 -66.5t75.5 -181.5q0 -68 -28.5 -127.5t-87.5 -93.5l171 -267h-169zM240 374h103q59 0 86 34.5t27 74.5t-23 76.5t-89 36.5h-104v-222zM264 -186q17 16 27 46t10 61q0 15 -3 30l122 -1q2 -14 2 -22q0 -43 -24 -90
t-62 -72z" />
    <glyph glyph-name="uni0210" unicode="&#x210;" horiz-adv-x="686" 
d="M492 0l-155 234h-97v-234h-145v736h223q137 0 212.5 -66.5t75.5 -181.5q0 -68 -28.5 -127.5t-87.5 -93.5l171 -267h-169zM240 374h103q59 0 86 34.5t27 74.5t-23 76.5t-89 36.5h-104v-222zM240 926l62 -135h-85l-132 135h155zM410 926l62 -135h-85l-132 135h155z" />
    <glyph glyph-name="uni0212" unicode="&#x212;" horiz-adv-x="686" 
d="M492 0l-155 234h-97v-234h-145v736h223q137 0 212.5 -66.5t75.5 -181.5q0 -68 -28.5 -127.5t-87.5 -93.5l171 -267h-169zM240 374h103q59 0 86 34.5t27 74.5t-23 76.5t-89 36.5h-104v-222zM425.5 898q40.5 -46 57.5 -141h-93q-10 48 -26 71t-49 23t-48.5 -23t-25.5 -71
h-93q16 97 56.5 142t110.5 45t110.5 -46z" />
    <glyph glyph-name="S" unicode="S" horiz-adv-x="583" 
d="M321 611q-48 0 -74.5 -19t-26.5 -57q0 -35 38.5 -61.5t102.5 -50.5q52 -19 89 -43.5t61.5 -67.5t24.5 -109q0 -57 -29.5 -105.5t-86.5 -77t-136 -28.5q-66 0 -131 19.5t-121 59.5l64 113q38 -28 87 -46t88 -18q46 0 80 19.5t34 63.5q0 57 -107 99q-63 25 -105 48
t-72.5 66t-30.5 108q0 95 62.5 153t166.5 63q82 0 137 -18.5t107 -52.5l-55 -111q-96 53 -167 53z" />
    <glyph glyph-name="Sacute" unicode="&#x15a;" horiz-adv-x="583" 
d="M321 611q-48 0 -74.5 -19t-26.5 -57q0 -35 38.5 -61.5t102.5 -50.5q52 -19 89 -43.5t61.5 -67.5t24.5 -109q0 -57 -29.5 -105.5t-86.5 -77t-136 -28.5q-66 0 -131 19.5t-121 59.5l64 113q38 -28 87 -46t88 -18q46 0 80 19.5t34 63.5q0 57 -107 99q-63 25 -105 48
t-72.5 66t-30.5 108q0 95 62.5 153t166.5 63q82 0 137 -18.5t107 -52.5l-55 -111q-96 53 -167 53zM327 764h-85l78 135h155z" />
    <glyph glyph-name="Scaron" unicode="&#x160;" horiz-adv-x="583" 
d="M321 611q-48 0 -74.5 -19t-26.5 -57q0 -35 38.5 -61.5t102.5 -50.5q52 -19 89 -43.5t61.5 -67.5t24.5 -109q0 -57 -29.5 -105.5t-86.5 -77t-136 -28.5q-66 0 -131 19.5t-121 59.5l64 113q38 -28 87 -46t88 -18q46 0 80 19.5t34 63.5q0 57 -107 99q-63 25 -105 48
t-72.5 66t-30.5 108q0 95 62.5 153t166.5 63q82 0 137 -18.5t107 -52.5l-55 -111q-96 53 -167 53zM474 937l-185 -184h-1l-189 184h126l65 -62l58 62h126z" />
    <glyph glyph-name="Scedilla" unicode="&#x15e;" horiz-adv-x="583" 
d="M450 379.5q37 -24.5 61.5 -67.5t24.5 -109q0 -71 -45 -126.5t-127 -75.5l-40 -45q50 -3 81.5 -26.5t31.5 -64.5q0 -54 -45.5 -82.5t-110.5 -28.5q-74 0 -117 45l43 55q10 -12 26 -19.5t34 -7.5q19 0 36.5 9.5t17.5 26.5q0 33 -53 33q-20 0 -60 -11l-19 66l58 43
q-121 10 -215 77l64 113q38 -28 87 -46t88 -18q46 0 80 19.5t34 63.5q0 57 -107 99q-63 25 -105 48t-72.5 66t-30.5 108q0 95 62.5 153t166.5 63q82 0 137 -18.5t107 -52.5l-55 -111q-96 53 -167 53q-48 0 -74.5 -19t-26.5 -57q0 -35 38.5 -61.5t102.5 -50.5
q52 -19 89 -43.5z" />
    <glyph glyph-name="Scircumflex" unicode="&#x15c;" horiz-adv-x="583" 
d="M321 611q-48 0 -74.5 -19t-26.5 -57q0 -35 38.5 -61.5t102.5 -50.5q52 -19 89 -43.5t61.5 -67.5t24.5 -109q0 -57 -29.5 -105.5t-86.5 -77t-136 -28.5q-66 0 -131 19.5t-121 59.5l64 113q38 -28 87 -46t88 -18q46 0 80 19.5t34 63.5q0 57 -107 99q-63 25 -105 48
t-72.5 66t-30.5 108q0 95 62.5 153t166.5 63q82 0 137 -18.5t107 -52.5l-55 -111q-96 53 -167 53zM342 776l-65 62l-58 -62h-126l185 184h1l189 -184h-126z" />
    <glyph glyph-name="Scommaaccent" unicode="&#x218;" horiz-adv-x="583" 
d="M321 611q-48 0 -74.5 -19t-26.5 -57q0 -35 38.5 -61.5t102.5 -50.5q52 -19 89 -43.5t61.5 -67.5t24.5 -109q0 -57 -29.5 -105.5t-86.5 -77t-136 -28.5q-66 0 -131 19.5t-121 59.5l64 113q38 -28 87 -46t88 -18q46 0 80 19.5t34 63.5q0 57 -107 99q-63 25 -105 48
t-72.5 66t-30.5 108q0 95 62.5 153t166.5 63q82 0 137 -18.5t107 -52.5l-55 -111q-96 53 -167 53zM192 -196q17 16 27 46t10 61q0 15 -3 30l122 -1q2 -14 2 -22q0 -43 -24 -90t-62 -72z" />
    <glyph glyph-name="uni1E9E" unicode="&#x1e9e;" horiz-adv-x="839" 
d="M721.5 367q30.5 -23 54 -63.5t23.5 -100.5q0 -57 -27 -105.5t-79.5 -77t-125.5 -28.5q-66 0 -131 19.5t-121 59.5l64 113q38 -28 87 -46t88 -18q38 0 66 19.5t28 63.5q0 30 -24.5 51t-72.5 48q-68 36 -113 84t-45 120q0 55 21 95t60 63q-28 7 -61 7q-82 0 -127 -62.5
t-45 -191.5v-417h-146v421q0 108 36 190.5t104.5 128.5t162.5 46q51 0 107.5 -14.5t102.5 -37t69 -47.5l-38 -107q-19 15 -45 15q-27 0 -42 -18t-15 -47q0 -24 13.5 -42.5t28 -28.5t55.5 -36q57 -33 87.5 -56z" />
    <glyph glyph-name="uni018F" unicode="&#x18f;" horiz-adv-x="785" 
d="M566.5 696.5q81.5 -46.5 125 -128t43.5 -183.5q0 -108 -49 -196t-132.5 -138.5t-180.5 -50.5q-134 0 -220.5 87.5t-112.5 244.5l509 165q-29 49 -77 76.5t-99 27.5t-105 -24t-82 -60l-72 118q42 42 122 75t140 33q109 0 190.5 -46.5zM481 161.5q45 32.5 72.5 89.5
t27.5 126v13l-364 -121q21 -65 63 -102.5t104 -37.5q52 0 97 32.5z" />
    <glyph glyph-name="T" unicode="T" horiz-adv-x="586" 
d="M541 736v-140h-179v-596h-145v596h-172v140h496z" />
    <glyph glyph-name="Tbar" unicode="&#x166;" horiz-adv-x="586" 
d="M362 596v-167h84v-130h-84v-299h-145v299h-86v130h86v167h-172v140h496v-140h-179z" />
    <glyph glyph-name="Tcaron" unicode="&#x164;" horiz-adv-x="586" 
d="M541 736v-140h-179v-596h-145v596h-172v140h496zM478 937l-185 -184h-1l-189 184h126l65 -62l58 62h126z" />
    <glyph glyph-name="uni0162" unicode="&#x162;" horiz-adv-x="586" 
d="M362 596v-584h7l-7 -8v-4h-4l-30 -34q50 -3 81.5 -26.5t31.5 -64.5q0 -54 -45.5 -82.5t-110.5 -28.5q-74 0 -117 45l43 55q10 -12 26 -19.5t34 -7.5q19 0 36.5 9.5t17.5 26.5q0 33 -53 33q-20 0 -60 -11l-19 66l53 39h-29v596h-172v140h496v-140h-179z" />
    <glyph glyph-name="uni021A" unicode="&#x21a;" horiz-adv-x="586" 
d="M541 736v-140h-179v-596h-145v596h-172v140h496zM196 -186q17 16 27 46t10 61q0 15 -3 30l122 -1q2 -14 2 -22q0 -43 -24 -90t-62 -72z" />
    <glyph glyph-name="U" unicode="U" horiz-adv-x="756" 
d="M246 205q21 -32 56 -52t75 -20q43 0 79 20t56.5 52t20.5 67v464h143v-467q0 -79 -40 -142.5t-108.5 -99t-150.5 -35.5t-150 35.5t-107.5 99t-39.5 142.5v467h145v-464q0 -35 21 -67z" />
    <glyph glyph-name="Uacute" unicode="&#xda;" horiz-adv-x="756" 
d="M246 205q21 -32 56 -52t75 -20q43 0 79 20t56.5 52t20.5 67v464h143v-467q0 -79 -40 -142.5t-108.5 -99t-150.5 -35.5t-150 35.5t-107.5 99t-39.5 142.5v467h145v-464q0 -35 21 -67zM416 784h-85l78 135h155z" />
    <glyph glyph-name="Ubreve" unicode="&#x16c;" horiz-adv-x="756" 
d="M246 205q21 -32 56 -52t75 -20q43 0 79 20t56.5 52t20.5 67v464h143v-467q0 -79 -40 -142.5t-108.5 -99t-150.5 -35.5t-150 35.5t-107.5 99t-39.5 142.5v467h145v-464q0 -35 21 -67zM267.5 830q-40.5 46 -57.5 141h93q10 -48 26 -71t49 -23t48.5 23t25.5 71h93
q-16 -97 -56.5 -142t-110.5 -45t-110.5 46z" />
    <glyph glyph-name="uni01D3" unicode="&#x1d3;" horiz-adv-x="756" 
d="M246 205q21 -32 56 -52t75 -20q43 0 79 20t56.5 52t20.5 67v464h143v-467q0 -79 -40 -142.5t-108.5 -99t-150.5 -35.5t-150 35.5t-107.5 99t-39.5 142.5v467h145v-464q0 -35 21 -67zM563 957l-185 -184h-1l-189 184h126l65 -62l58 62h126z" />
    <glyph glyph-name="Ucircumflex" unicode="&#xdb;" horiz-adv-x="756" 
d="M246 205q21 -32 56 -52t75 -20q43 0 79 20t56.5 52t20.5 67v464h143v-467q0 -79 -40 -142.5t-108.5 -99t-150.5 -35.5t-150 35.5t-107.5 99t-39.5 142.5v467h145v-464q0 -35 21 -67zM431 796l-65 62l-58 -62h-126l185 184h1l189 -184h-126z" />
    <glyph glyph-name="uni0214" unicode="&#x214;" horiz-adv-x="756" 
d="M246 205q21 -32 56 -52t75 -20q43 0 79 20t56.5 52t20.5 67v464h143v-467q0 -79 -40 -142.5t-108.5 -99t-150.5 -35.5t-150 35.5t-107.5 99t-39.5 142.5v467h145v-464q0 -35 21 -67zM297 926l62 -135h-85l-132 135h155zM467 926l62 -135h-85l-132 135h155z" />
    <glyph glyph-name="Udieresis" unicode="&#xdc;" horiz-adv-x="756" 
d="M246 205q21 -32 56 -52t75 -20q43 0 79 20t56.5 52t20.5 67v464h143v-467q0 -79 -40 -142.5t-108.5 -99t-150.5 -35.5t-150 35.5t-107.5 99t-39.5 142.5v467h145v-464q0 -35 21 -67zM222 906q22 21 50 21q26 0 48 -21.5t22 -51.5q0 -31 -22 -51.5t-48 -20.5
q-28 0 -50 20.5t-22 51.5t22 52zM422 906q22 21 50 21q26 0 48 -21.5t22 -51.5q0 -31 -22 -51.5t-48 -20.5q-28 0 -50 20.5t-22 51.5t22 52z" />
    <glyph glyph-name="uni1EE4" unicode="&#x1ee4;" horiz-adv-x="756" 
d="M246 205q21 -32 56 -52t75 -20q43 0 79 20t56.5 52t20.5 67v464h143v-467q0 -79 -40 -142.5t-108.5 -99t-150.5 -35.5t-150 35.5t-107.5 99t-39.5 142.5v467h145v-464q0 -35 21 -67zM322.5 -66.5q23.5 20.5 53.5 20.5q29 0 52 -20.5t23 -50.5t-23 -50t-52 -20
q-30 0 -53.5 20t-23.5 50t23.5 50.5z" />
    <glyph glyph-name="Ugrave" unicode="&#xd9;" horiz-adv-x="756" 
d="M246 205q21 -32 56 -52t75 -20q43 0 79 20t56.5 52t20.5 67v464h143v-467q0 -79 -40 -142.5t-108.5 -99t-150.5 -35.5t-150 35.5t-107.5 99t-39.5 142.5v467h145v-464q0 -35 21 -67zM347 923l62 -135h-85l-132 135h155z" />
    <glyph glyph-name="uni1EE6" unicode="&#x1ee6;" horiz-adv-x="756" 
d="M246 205q21 -32 56 -52t75 -20q43 0 79 20t56.5 52t20.5 67v464h143v-467q0 -79 -40 -142.5t-108.5 -99t-150.5 -35.5t-150 35.5t-107.5 99t-39.5 142.5v467h145v-464q0 -35 21 -67zM397.5 863.5q9.5 11.5 9.5 27.5q0 33 -29 33q-13 0 -23 -7.5t-16 -19.5l-50 30
q17 35 46 53.5t62 18.5q43 0 65 -26.5t22 -61.5q0 -36 -23.5 -62.5t-63.5 -47.5l-29 37q20 14 29.5 25.5z" />
    <glyph glyph-name="Uhorn" unicode="&#x1af;" horiz-adv-x="791" 
d="M776 621q-36 -34 -100 -37v-315q0 -79 -40 -142.5t-108.5 -99t-150.5 -35.5t-150 35.5t-107.5 99t-39.5 142.5v467h145v-464q0 -35 21 -67t56 -52t75 -20q43 0 79 20t56.5 52t20.5 67v464h143v-68q21 4 30 19t17 53h103q-14 -85 -50 -119z" />
    <glyph glyph-name="uni1EE8" unicode="&#x1ee8;" horiz-adv-x="791" 
d="M776 621q-36 -34 -100 -37v-315q0 -79 -40 -142.5t-108.5 -99t-150.5 -35.5t-150 35.5t-107.5 99t-39.5 142.5v467h145v-464q0 -35 21 -67t56 -52t75 -20q43 0 79 20t56.5 52t20.5 67v464h143v-68q21 4 30 19t17 53h103q-14 -85 -50 -119zM416 784h-85l78 135h155z" />
    <glyph glyph-name="uni1EF0" unicode="&#x1ef0;" horiz-adv-x="791" 
d="M776 621q-36 -34 -100 -37v-315q0 -79 -40 -142.5t-108.5 -99t-150.5 -35.5t-150 35.5t-107.5 99t-39.5 142.5v467h145v-464q0 -35 21 -67t56 -52t75 -20q43 0 79 20t56.5 52t20.5 67v464h143v-68q21 4 30 19t17 53h103q-14 -85 -50 -119zM322.5 -66.5
q23.5 20.5 53.5 20.5q29 0 52 -20.5t23 -50.5t-23 -50t-52 -20q-30 0 -53.5 20t-23.5 50t23.5 50.5z" />
    <glyph glyph-name="uni1EEA" unicode="&#x1eea;" horiz-adv-x="791" 
d="M776 621q-36 -34 -100 -37v-315q0 -79 -40 -142.5t-108.5 -99t-150.5 -35.5t-150 35.5t-107.5 99t-39.5 142.5v467h145v-464q0 -35 21 -67t56 -52t75 -20q43 0 79 20t56.5 52t20.5 67v464h143v-68q21 4 30 19t17 53h103q-14 -85 -50 -119zM347 923l62 -135h-85l-132 135
h155z" />
    <glyph glyph-name="uni1EEC" unicode="&#x1eec;" horiz-adv-x="791" 
d="M776 621q-36 -34 -100 -37v-315q0 -79 -40 -142.5t-108.5 -99t-150.5 -35.5t-150 35.5t-107.5 99t-39.5 142.5v467h145v-464q0 -35 21 -67t56 -52t75 -20q43 0 79 20t56.5 52t20.5 67v464h143v-68q21 4 30 19t17 53h103q-14 -85 -50 -119zM397.5 863.5q9.5 11.5 9.5 27.5
q0 33 -29 33q-13 0 -23 -7.5t-16 -19.5l-50 30q17 35 46 53.5t62 18.5q43 0 65 -26.5t22 -61.5q0 -36 -23.5 -62.5t-63.5 -47.5l-29 37q20 14 29.5 25.5z" />
    <glyph glyph-name="uni1EEE" unicode="&#x1eee;" horiz-adv-x="791" 
d="M776 621q-36 -34 -100 -37v-315q0 -79 -40 -142.5t-108.5 -99t-150.5 -35.5t-150 35.5t-107.5 99t-39.5 142.5v467h145v-464q0 -35 21 -67t56 -52t75 -20q43 0 79 20t56.5 52t20.5 67v464h143v-68q21 4 30 19t17 53h103q-14 -85 -50 -119zM405 834q-21 11 -48 33
q-27 23 -44 23q-16 0 -23.5 -14.5t-7.5 -36.5l1 -14h-70q-1 7 -1 22q0 55 29 93t80 38q22 0 39.5 -10.5t42.5 -31.5q20 -17 29.5 -23.5t20.5 -6.5q29 0 25 69h70q3 -16 3 -32q0 -52 -27.5 -86t-67.5 -34q-30 0 -51 11z" />
    <glyph glyph-name="Uhungarumlaut" unicode="&#x170;" horiz-adv-x="756" 
d="M246 205q21 -32 56 -52t75 -20q43 0 79 20t56.5 52t20.5 67v464h143v-467q0 -79 -40 -142.5t-108.5 -99t-150.5 -35.5t-150 35.5t-107.5 99t-39.5 142.5v467h145v-464q0 -35 21 -67zM283 790h-85l78 135h155zM467 788h-85l78 135h155z" />
    <glyph glyph-name="uni0216" unicode="&#x216;" horiz-adv-x="756" 
d="M246 205q21 -32 56 -52t75 -20q43 0 79 20t56.5 52t20.5 67v464h143v-467q0 -79 -40 -142.5t-108.5 -99t-150.5 -35.5t-150 35.5t-107.5 99t-39.5 142.5v467h145v-464q0 -35 21 -67zM482.5 898q40.5 -46 57.5 -141h-93q-10 48 -26 71t-49 23t-48.5 -23t-25.5 -71h-93
q16 97 56.5 142t110.5 45t110.5 -46z" />
    <glyph glyph-name="Umacron" unicode="&#x16a;" horiz-adv-x="756" 
d="M246 205q21 -32 56 -52t75 -20q43 0 79 20t56.5 52t20.5 67v464h143v-467q0 -79 -40 -142.5t-108.5 -99t-150.5 -35.5t-150 35.5t-107.5 99t-39.5 142.5v467h145v-464q0 -35 21 -67zM501 887v-97h-255v97h255z" />
    <glyph glyph-name="Uogonek" unicode="&#x172;" horiz-adv-x="756" 
d="M476 -35q-20 -25 -20 -57q0 -42 44 -42q39 0 72 49l50 -72q-22 -33 -61 -54t-74 -21q-63 0 -104.5 35.5t-41.5 93.5q0 26 14 52t39 43h-17q-89 0 -156.5 35.5t-104 98.5t-36.5 143v467h145v-464q0 -35 21 -67t56 -52t75 -20q43 0 79 20t56.5 52t20.5 67v464h143v-476
q0 -56 -19.5 -98.5t-47 -71t-70.5 -64.5t-63 -61z" />
    <glyph glyph-name="Uring" unicode="&#x16e;" horiz-adv-x="756" 
d="M246 205q21 -32 56 -52t75 -20q43 0 79 20t56.5 52t20.5 67v464h143v-467q0 -79 -40 -142.5t-108.5 -99t-150.5 -35.5t-150 35.5t-107.5 99t-39.5 142.5v467h145v-464q0 -35 21 -67zM301.5 955.5q31.5 28.5 80.5 28.5q48 0 79.5 -28.5t31.5 -75.5t-31.5 -76t-79.5 -29
q-49 0 -80.5 29t-31.5 76t31.5 75.5zM353.5 848q10.5 -11 28.5 -11t28.5 11t10.5 30q0 21 -10.5 31.5t-28.5 10.5t-28.5 -10.5t-10.5 -31.5q0 -19 10.5 -30z" />
    <glyph glyph-name="Utilde" unicode="&#x168;" horiz-adv-x="756" 
d="M246 205q21 -32 56 -52t75 -20q43 0 79 20t56.5 52t20.5 67v464h143v-467q0 -79 -40 -142.5t-108.5 -99t-150.5 -35.5t-150 35.5t-107.5 99t-39.5 142.5v467h145v-464q0 -35 21 -67zM405 834q-21 11 -48 33q-27 23 -44 23q-16 0 -23.5 -14.5t-7.5 -36.5l1 -14h-70
q-1 7 -1 22q0 55 29 93t80 38q22 0 39.5 -10.5t42.5 -31.5q20 -17 29.5 -23.5t20.5 -6.5q29 0 25 69h70q3 -16 3 -32q0 -52 -27.5 -86t-67.5 -34q-30 0 -51 11z" />
    <glyph glyph-name="V" unicode="V" horiz-adv-x="736" 
d="M704 736l-336 -770l-336 770h174l168 -415l158 415h172z" />
    <glyph glyph-name="W" unicode="W" horiz-adv-x="1023" 
d="M707 -32l-175 436l-204 -438l-296 765h170l145 -426l112 281l-58 145h144l165 -409l125 409h156z" />
    <glyph glyph-name="Wacute" unicode="&#x1e82;" horiz-adv-x="1023" 
d="M707 -32l-175 436l-204 -438l-296 765h170l145 -426l112 281l-58 145h144l165 -409l125 409h156zM550 774h-85l78 135h155z" />
    <glyph glyph-name="Wcircumflex" unicode="&#x174;" horiz-adv-x="1023" 
d="M707 -32l-175 436l-204 -438l-296 765h170l145 -426l112 281l-58 145h144l165 -409l125 409h156zM565 786l-65 62l-58 -62h-126l185 184h1l189 -184h-126z" />
    <glyph glyph-name="Wdieresis" unicode="&#x1e84;" horiz-adv-x="1023" 
d="M707 -32l-175 436l-204 -438l-296 765h170l145 -426l112 281l-58 145h144l165 -409l125 409h156zM356 896q22 21 50 21q26 0 48 -21.5t22 -51.5q0 -31 -22 -51.5t-48 -20.5q-28 0 -50 20.5t-22 51.5t22 52zM556 896q22 21 50 21q26 0 48 -21.5t22 -51.5q0 -31 -22 -51.5
t-48 -20.5q-28 0 -50 20.5t-22 51.5t22 52z" />
    <glyph glyph-name="Wgrave" unicode="&#x1e80;" horiz-adv-x="1023" 
d="M707 -32l-175 436l-204 -438l-296 765h170l145 -426l112 281l-58 145h144l165 -409l125 409h156zM481 913l62 -135h-85l-132 135h155z" />
    <glyph glyph-name="X" unicode="X" horiz-adv-x="725" 
d="M513 0l-165 254l-143 -254h-180l241 380l-231 356h185l159 -244l138 244h176l-234 -366l241 -370h-187z" />
    <glyph glyph-name="Y" unicode="Y" horiz-adv-x="722" 
d="M707 736l-276 -507v-229h-145v229l-271 507h179l169 -340l165 340h179z" />
    <glyph glyph-name="Yacute" unicode="&#xdd;" horiz-adv-x="722" 
d="M707 736l-276 -507v-229h-145v229l-271 507h179l169 -340l165 340h179zM419 784h-85l78 135h155z" />
    <glyph glyph-name="Ycircumflex" unicode="&#x176;" horiz-adv-x="722" 
d="M707 736l-276 -507v-229h-145v229l-271 507h179l169 -340l165 340h179zM434 796l-65 62l-58 -62h-126l185 184h1l189 -184h-126z" />
    <glyph glyph-name="Ydieresis" unicode="&#x178;" horiz-adv-x="722" 
d="M707 736l-276 -507v-229h-145v229l-271 507h179l169 -340l165 340h179zM225 906q22 21 50 21q26 0 48 -21.5t22 -51.5q0 -31 -22 -51.5t-48 -20.5q-28 0 -50 20.5t-22 51.5t22 52zM425 906q22 21 50 21q26 0 48 -21.5t22 -51.5q0 -31 -22 -51.5t-48 -20.5q-28 0 -50 20.5
t-22 51.5t22 52z" />
    <glyph glyph-name="uni1EF4" unicode="&#x1ef4;" horiz-adv-x="722" 
d="M707 736l-276 -507v-229h-145v229l-271 507h179l169 -340l165 340h179zM305.5 -66.5q23.5 20.5 53.5 20.5q29 0 52 -20.5t23 -50.5t-23 -50t-52 -20q-30 0 -53.5 20t-23.5 50t23.5 50.5z" />
    <glyph glyph-name="Ygrave" unicode="&#x1ef2;" horiz-adv-x="722" 
d="M707 736l-276 -507v-229h-145v229l-271 507h179l169 -340l165 340h179zM350 923l62 -135h-85l-132 135h155z" />
    <glyph glyph-name="uni1EF6" unicode="&#x1ef6;" horiz-adv-x="722" 
d="M707 736l-276 -507v-229h-145v229l-271 507h179l169 -340l165 340h179zM400.5 863.5q9.5 11.5 9.5 27.5q0 33 -29 33q-13 0 -23 -7.5t-16 -19.5l-50 30q17 35 46 53.5t62 18.5q43 0 65 -26.5t22 -61.5q0 -36 -23.5 -62.5t-63.5 -47.5l-29 37q20 14 29.5 25.5z" />
    <glyph glyph-name="uni0232" unicode="&#x232;" horiz-adv-x="722" 
d="M707 736l-276 -507v-229h-145v229l-271 507h179l169 -340l165 340h179zM504 887v-97h-255v97h255z" />
    <glyph glyph-name="uni1EF8" unicode="&#x1ef8;" horiz-adv-x="722" 
d="M707 736l-276 -507v-229h-145v229l-271 507h179l169 -340l165 340h179zM408 834q-21 11 -48 33q-27 23 -44 23q-16 0 -23.5 -14.5t-7.5 -36.5l1 -14h-70q-1 7 -1 22q0 55 29 93t80 38q22 0 39.5 -10.5t42.5 -31.5q20 -17 29.5 -23.5t20.5 -6.5q29 0 25 69h70q3 -16 3 -32
q0 -52 -27.5 -86t-67.5 -34q-30 0 -51 11z" />
    <glyph glyph-name="Z" unicode="Z" horiz-adv-x="722" 
d="M294 140h377v-140h-626l374 596h-224q-34 0 -65.5 21.5t-31.5 50.5v105h133v-14q0 -17 4 -20.5t13 -3t15 0.5h409z" />
    <glyph glyph-name="Zacute" unicode="&#x179;" horiz-adv-x="722" 
d="M294 140h377v-140h-626l374 596h-224q-34 0 -65.5 21.5t-31.5 50.5v105h133v-14q0 -17 4 -20.5t13 -3t15 0.5h409zM399 764h-85l78 135h155z" />
    <glyph glyph-name="Zcaron" unicode="&#x17d;" horiz-adv-x="722" 
d="M294 140h377v-140h-626l374 596h-224q-34 0 -65.5 21.5t-31.5 50.5v105h133v-14q0 -17 4 -20.5t13 -3t15 0.5h409zM546 937l-185 -184h-1l-189 184h126l65 -62l58 62h126z" />
    <glyph glyph-name="Zdotaccent" unicode="&#x17b;" horiz-adv-x="722" 
d="M294 140h377v-140h-626l374 596h-224q-34 0 -65.5 21.5t-31.5 50.5v105h133v-14q0 -17 4 -20.5t13 -3t15 0.5h409zM308.5 881.5q23.5 20.5 53.5 20.5q29 0 52 -20.5t23 -50.5t-23 -50t-52 -20q-30 0 -53.5 20t-23.5 50t23.5 50.5z" />
    <glyph glyph-name="a" unicode="a" horiz-adv-x="614" 
d="M542 437v-437h-140v54q-63 -66 -146 -66q-97 0 -157.5 58t-60.5 172q0 72 29.5 126.5t78.5 84.5t105 30q58 0 92 -17.5t60 -49.5l9 45h130zM402 168v107q-12 32 -41.5 51t-69.5 19q-46 0 -78.5 -34t-32.5 -86q0 -34 16 -62.5t42.5 -44.5t57.5 -16q73 0 106 66z" />
    <glyph glyph-name="aacute" unicode="&#xe1;" horiz-adv-x="614" 
d="M542 437v-437h-140v54q-63 -66 -146 -66q-97 0 -157.5 58t-60.5 172q0 72 29.5 126.5t78.5 84.5t105 30q58 0 92 -17.5t60 -49.5l9 45h130zM402 168v107q-12 32 -41.5 51t-69.5 19q-46 0 -78.5 -34t-32.5 -86q0 -34 16 -62.5t42.5 -44.5t57.5 -16q73 0 106 66zM375 509
h-85l78 135h155z" />
    <glyph glyph-name="abreve" unicode="&#x103;" horiz-adv-x="614" 
d="M542 437v-437h-140v54q-63 -66 -146 -66q-97 0 -157.5 58t-60.5 172q0 72 29.5 126.5t78.5 84.5t105 30q58 0 92 -17.5t60 -49.5l9 45h130zM402 168v107q-12 32 -41.5 51t-69.5 19q-46 0 -78.5 -34t-32.5 -86q0 -34 16 -62.5t42.5 -44.5t57.5 -16q73 0 106 66zM220.5 536
q-40.5 46 -57.5 141h93q10 -48 26 -71t49 -23t48.5 23t25.5 71h93q-16 -97 -56.5 -142t-110.5 -45t-110.5 46z" />
    <glyph glyph-name="uni1EAF" unicode="&#x1eaf;" horiz-adv-x="614" 
d="M542 437v-437h-140v54q-63 -66 -146 -66q-97 0 -157.5 58t-60.5 172q0 72 29.5 126.5t78.5 84.5t105 30q58 0 92 -17.5t60 -49.5l9 45h130zM402 168v107q-12 32 -41.5 51t-69.5 19q-46 0 -78.5 -34t-32.5 -86q0 -34 16 -62.5t42.5 -44.5t57.5 -16q73 0 106 66zM220.5 536
q-40.5 46 -57.5 141h93q10 -48 26 -71t49 -23t48.5 23t25.5 71h93q-16 -97 -56.5 -142t-110.5 -45t-110.5 46zM363 700h-85l78 135h155z" />
    <glyph glyph-name="uni1EB7" unicode="&#x1eb7;" horiz-adv-x="614" 
d="M542 437v-437h-140v54q-63 -66 -146 -66q-97 0 -157.5 58t-60.5 172q0 72 29.5 126.5t78.5 84.5t105 30q58 0 92 -17.5t60 -49.5l9 45h130zM402 168v107q-12 32 -41.5 51t-69.5 19q-46 0 -78.5 -34t-32.5 -86q0 -34 16 -62.5t42.5 -44.5t57.5 -16q73 0 106 66zM263 -67.5
q20 16.5 44 16.5t43 -16.5t19 -41.5t-19 -41.5t-43 -16.5q-25 0 -44.5 16.5t-19.5 41.5t20 41.5zM220.5 536q-40.5 46 -57.5 141h93q10 -48 26 -71t49 -23t48.5 23t25.5 71h93q-16 -97 -56.5 -142t-110.5 -45t-110.5 46z" />
    <glyph glyph-name="uni1EB1" unicode="&#x1eb1;" horiz-adv-x="614" 
d="M542 437v-437h-140v54q-63 -66 -146 -66q-97 0 -157.5 58t-60.5 172q0 72 29.5 126.5t78.5 84.5t105 30q58 0 92 -17.5t60 -49.5l9 45h130zM402 168v107q-12 32 -41.5 51t-69.5 19q-46 0 -78.5 -34t-32.5 -86q0 -34 16 -62.5t42.5 -44.5t57.5 -16q73 0 106 66zM220.5 536
q-40.5 46 -57.5 141h93q10 -48 26 -71t49 -23t48.5 23t25.5 71h93q-16 -97 -56.5 -142t-110.5 -45t-110.5 46zM316 836l62 -135h-85l-132 135h155z" />
    <glyph glyph-name="uni1EB3" unicode="&#x1eb3;" horiz-adv-x="614" 
d="M542 437v-437h-140v54q-63 -66 -146 -66q-97 0 -157.5 58t-60.5 172q0 72 29.5 126.5t78.5 84.5t105 30q58 0 92 -17.5t60 -49.5l9 45h130zM402 168v107q-12 32 -41.5 51t-69.5 19q-46 0 -78.5 -34t-32.5 -86q0 -34 16 -62.5t42.5 -44.5t57.5 -16q73 0 106 66zM220.5 536
q-40.5 46 -57.5 141h93q10 -48 26 -71t49 -23t48.5 23t25.5 71h93q-16 -97 -56.5 -142t-110.5 -45t-110.5 46zM357.5 756.5q9.5 11.5 9.5 27.5q0 33 -29 33q-13 0 -23 -7.5t-16 -19.5l-50 30q17 35 46 53.5t62 18.5q43 0 65 -26.5t22 -61.5q0 -36 -23.5 -62.5t-63.5 -47.5
l-29 37q20 14 29.5 25.5z" />
    <glyph glyph-name="uni1EB5" unicode="&#x1eb5;" horiz-adv-x="614" 
d="M542 437v-437h-140v54q-63 -66 -146 -66q-97 0 -157.5 58t-60.5 172q0 72 29.5 126.5t78.5 84.5t105 30q58 0 92 -17.5t60 -49.5l9 45h130zM402 168v107q-12 32 -41.5 51t-69.5 19q-46 0 -78.5 -34t-32.5 -86q0 -34 16 -62.5t42.5 -44.5t57.5 -16q73 0 106 66zM220.5 536
q-40.5 46 -57.5 141h93q10 -48 26 -71t49 -23t48.5 23t25.5 71h93q-16 -97 -56.5 -142t-110.5 -45t-110.5 46zM365 717q-21 11 -48 33q-27 23 -44 23q-16 0 -23.5 -14.5t-7.5 -36.5l1 -14h-70q-1 7 -1 22q0 55 29 93t80 38q22 0 39.5 -10.5t42.5 -31.5q20 -17 29.5 -23.5
t20.5 -6.5q29 0 25 69h70q3 -16 3 -32q0 -52 -27.5 -86t-67.5 -34q-30 0 -51 11z" />
    <glyph glyph-name="acircumflex" unicode="&#xe2;" horiz-adv-x="614" 
d="M542 437v-437h-140v54q-63 -66 -146 -66q-97 0 -157.5 58t-60.5 172q0 72 29.5 126.5t78.5 84.5t105 30q58 0 92 -17.5t60 -49.5l9 45h130zM402 168v107q-12 32 -41.5 51t-69.5 19q-46 0 -78.5 -34t-32.5 -86q0 -34 16 -62.5t42.5 -44.5t57.5 -16q73 0 106 66zM387 509
l-65 62l-58 -62h-126l185 184h1l189 -184h-126z" />
    <glyph glyph-name="uni1EA5" unicode="&#x1ea5;" horiz-adv-x="614" 
d="M542 437v-437h-140v54q-63 -66 -146 -66q-97 0 -157.5 58t-60.5 172q0 72 29.5 126.5t78.5 84.5t105 30q58 0 92 -17.5t60 -49.5l9 45h130zM402 168v107q-12 32 -41.5 51t-69.5 19q-46 0 -78.5 -34t-32.5 -86q0 -34 16 -62.5t42.5 -44.5t57.5 -16q73 0 106 66zM393 509
l-65 62l-58 -62h-126l185 184h1l189 -184h-126zM551 616h-85l78 135h155z" />
    <glyph glyph-name="uni1EAD" unicode="&#x1ead;" horiz-adv-x="614" 
d="M542 437v-437h-140v54q-63 -66 -146 -66q-97 0 -157.5 58t-60.5 172q0 72 29.5 126.5t78.5 84.5t105 30q58 0 92 -17.5t60 -49.5l9 45h130zM402 168v107q-12 32 -41.5 51t-69.5 19q-46 0 -78.5 -34t-32.5 -86q0 -34 16 -62.5t42.5 -44.5t57.5 -16q73 0 106 66zM263 -67.5
q20 16.5 44 16.5t43 -16.5t19 -41.5t-19 -41.5t-43 -16.5q-25 0 -44.5 16.5t-19.5 41.5t20 41.5zM387 509l-65 62l-58 -62h-126l185 184h1l189 -184h-126z" />
    <glyph glyph-name="uni1EA7" unicode="&#x1ea7;" horiz-adv-x="614" 
d="M542 437v-437h-140v54q-63 -66 -146 -66q-97 0 -157.5 58t-60.5 172q0 72 29.5 126.5t78.5 84.5t105 30q58 0 92 -17.5t60 -49.5l9 45h130zM402 168v107q-12 32 -41.5 51t-69.5 19q-46 0 -78.5 -34t-32.5 -86q0 -34 16 -62.5t42.5 -44.5t57.5 -16q73 0 106 66zM385 509
l-65 62l-58 -62h-126l185 184h1l189 -184h-126zM127 755l62 -135h-85l-132 135h155z" />
    <glyph glyph-name="uni1EA9" unicode="&#x1ea9;" horiz-adv-x="614" 
d="M542 437v-437h-140v54q-63 -66 -146 -66q-97 0 -157.5 58t-60.5 172q0 72 29.5 126.5t78.5 84.5t105 30q58 0 92 -17.5t60 -49.5l9 45h130zM402 168v107q-12 32 -41.5 51t-69.5 19q-46 0 -78.5 -34t-32.5 -86q0 -34 16 -62.5t42.5 -44.5t57.5 -16q73 0 106 66zM389 509
l-65 62l-58 -62h-126l185 184h1l189 -184h-126zM545.5 645.5q9.5 11.5 9.5 27.5q0 33 -29 33q-13 0 -23 -7.5t-16 -19.5l-50 30q17 35 46 53.5t62 18.5q43 0 65 -26.5t22 -61.5q0 -36 -23.5 -62.5t-63.5 -47.5l-29 37q20 14 29.5 25.5z" />
    <glyph glyph-name="uni1EAB" unicode="&#x1eab;" horiz-adv-x="614" 
d="M542 437v-437h-140v54q-63 -66 -146 -66q-97 0 -157.5 58t-60.5 172q0 72 29.5 126.5t78.5 84.5t105 30q58 0 92 -17.5t60 -49.5l9 45h130zM402 168v107q-12 32 -41.5 51t-69.5 19q-46 0 -78.5 -34t-32.5 -86q0 -34 16 -62.5t42.5 -44.5t57.5 -16q73 0 106 66zM381 509
l-65 62l-58 -62h-126l185 184h1l189 -184h-126zM349 733q-21 11 -48 33q-27 23 -44 23q-16 0 -23.5 -14.5t-7.5 -36.5l1 -14h-70q-1 7 -1 22q0 55 29 93t80 38q22 0 39.5 -10.5t42.5 -31.5q20 -17 29.5 -23.5t20.5 -6.5q29 0 25 69h70q3 -16 3 -32q0 -52 -27.5 -86
t-67.5 -34q-30 0 -51 11z" />
    <glyph glyph-name="uni0201" unicode="&#x201;" horiz-adv-x="614" 
d="M542 437v-437h-140v54q-63 -66 -146 -66q-97 0 -157.5 58t-60.5 172q0 72 29.5 126.5t78.5 84.5t105 30q58 0 92 -17.5t60 -49.5l9 45h130zM402 168v107q-12 32 -41.5 51t-69.5 19q-46 0 -78.5 -34t-32.5 -86q0 -34 16 -62.5t42.5 -44.5t57.5 -16q73 0 106 66zM232 644
l62 -135h-85l-132 135h155zM402 644l62 -135h-85l-132 135h155z" />
    <glyph glyph-name="adieresis" unicode="&#xe4;" horiz-adv-x="614" 
d="M542 437v-437h-140v54q-63 -66 -146 -66q-97 0 -157.5 58t-60.5 172q0 72 29.5 126.5t78.5 84.5t105 30q58 0 92 -17.5t60 -49.5l9 45h130zM402 168v107q-12 32 -41.5 51t-69.5 19q-46 0 -78.5 -34t-32.5 -86q0 -34 16 -62.5t42.5 -44.5t57.5 -16q73 0 106 66zM176 614
q22 21 50 21q26 0 48 -21.5t22 -51.5q0 -31 -22 -51.5t-48 -20.5q-28 0 -50 20.5t-22 51.5t22 52zM376 614q22 21 50 21q26 0 48 -21.5t22 -51.5q0 -31 -22 -51.5t-48 -20.5q-28 0 -50 20.5t-22 51.5t22 52z" />
    <glyph glyph-name="uni1EA1" unicode="&#x1ea1;" horiz-adv-x="614" 
d="M542 437v-437h-140v54q-63 -66 -146 -66q-97 0 -157.5 58t-60.5 172q0 72 29.5 126.5t78.5 84.5t105 30q58 0 92 -17.5t60 -49.5l9 45h130zM402 168v107q-12 32 -41.5 51t-69.5 19q-46 0 -78.5 -34t-32.5 -86q0 -34 16 -62.5t42.5 -44.5t57.5 -16q73 0 106 66zM263 -67.5
q20 16.5 44 16.5t43 -16.5t19 -41.5t-19 -41.5t-43 -16.5q-25 0 -44.5 16.5t-19.5 41.5t20 41.5z" />
    <glyph glyph-name="agrave" unicode="&#xe0;" horiz-adv-x="614" 
d="M542 437v-437h-140v54q-63 -66 -146 -66q-97 0 -157.5 58t-60.5 172q0 72 29.5 126.5t78.5 84.5t105 30q58 0 92 -17.5t60 -49.5l9 45h130zM402 168v107q-12 32 -41.5 51t-69.5 19q-46 0 -78.5 -34t-32.5 -86q0 -34 16 -62.5t42.5 -44.5t57.5 -16q73 0 106 66zM306 644
l62 -135h-85l-132 135h155z" />
    <glyph glyph-name="uni1EA3" unicode="&#x1ea3;" horiz-adv-x="614" 
d="M542 437v-437h-140v54q-63 -66 -146 -66q-97 0 -157.5 58t-60.5 172q0 72 29.5 126.5t78.5 84.5t105 30q58 0 92 -17.5t60 -49.5l9 45h130zM402 168v107q-12 32 -41.5 51t-69.5 19q-46 0 -78.5 -34t-32.5 -86q0 -34 16 -62.5t42.5 -44.5t57.5 -16q73 0 106 66z
M327.5 565.5q9.5 11.5 9.5 27.5q0 33 -29 33q-13 0 -23 -7.5t-16 -19.5l-50 30q17 35 46 53.5t62 18.5q43 0 65 -26.5t22 -61.5q0 -36 -23.5 -62.5t-63.5 -47.5l-29 37q20 14 29.5 25.5z" />
    <glyph glyph-name="uni0203" unicode="&#x203;" horiz-adv-x="614" 
d="M542 437v-437h-140v54q-63 -66 -146 -66q-97 0 -157.5 58t-60.5 172q0 72 29.5 126.5t78.5 84.5t105 30q58 0 92 -17.5t60 -49.5l9 45h130zM402 168v107q-12 32 -41.5 51t-69.5 19q-46 0 -78.5 -34t-32.5 -86q0 -34 16 -62.5t42.5 -44.5t57.5 -16q73 0 106 66zM441.5 631
q40.5 -46 57.5 -141h-93q-10 48 -26 71t-49 23t-48.5 -23t-25.5 -71h-93q16 97 56.5 142t110.5 45t110.5 -46z" />
    <glyph glyph-name="amacron" unicode="&#x101;" horiz-adv-x="614" 
d="M542 437v-437h-140v54q-63 -66 -146 -66q-97 0 -157.5 58t-60.5 172q0 72 29.5 126.5t78.5 84.5t105 30q58 0 92 -17.5t60 -49.5l9 45h130zM402 168v107q-12 32 -41.5 51t-69.5 19q-46 0 -78.5 -34t-32.5 -86q0 -34 16 -62.5t42.5 -44.5t57.5 -16q73 0 106 66zM455 586
v-97h-255v97h255z" />
    <glyph glyph-name="aogonek" unicode="&#x105;" horiz-adv-x="621" 
d="M606 -157q-22 -33 -61 -54t-74 -21q-63 0 -104.5 35.5t-41.5 93.5q0 33 21.5 64t59.5 47v47q-30 -29 -64 -48t-87 -19q-95 0 -154 58t-59 172q0 72 29.5 126.5t78.5 84.5t105 30q59 0 92 -18t60 -51l9 47h130v-437q-53 -21 -79.5 -41.5t-26.5 -50.5q0 -42 44 -42
q39 0 72 49zM361.5 118.5q27.5 16.5 44.5 49.5v107q-12 32 -41.5 51t-69.5 19q-46 0 -78.5 -34t-32.5 -86t32.5 -87.5t78.5 -35.5q39 0 66.5 16.5z" />
    <glyph glyph-name="aring" unicode="&#xe5;" horiz-adv-x="614" 
d="M542 437v-437h-140v54q-63 -66 -146 -66q-97 0 -157.5 58t-60.5 172q0 72 29.5 126.5t78.5 84.5t105 30q58 0 92 -17.5t60 -49.5l9 45h130zM402 168v107q-12 32 -41.5 51t-69.5 19q-46 0 -78.5 -34t-32.5 -86q0 -34 16 -62.5t42.5 -44.5t57.5 -16q73 0 106 66z
M232.5 661.5q31.5 28.5 80.5 28.5q48 0 79.5 -28.5t31.5 -75.5t-31.5 -76t-79.5 -29q-49 0 -80.5 29t-31.5 76t31.5 75.5zM284.5 554q10.5 -11 28.5 -11t28.5 11t10.5 30q0 21 -10.5 31.5t-28.5 10.5t-28.5 -10.5t-10.5 -31.5q0 -19 10.5 -30z" />
    <glyph glyph-name="aringacute" unicode="&#x1fb;" horiz-adv-x="614" 
d="M542 437v-437h-140v54q-63 -66 -146 -66q-97 0 -157.5 58t-60.5 172q0 72 29.5 126.5t78.5 84.5t105 30q58 0 92 -17.5t60 -49.5l9 45h130zM402 168v107q-12 32 -41.5 51t-69.5 19q-46 0 -78.5 -34t-32.5 -86q0 -34 16 -62.5t42.5 -44.5t57.5 -16q73 0 106 66z
M232.5 661.5q31.5 28.5 80.5 28.5q48 0 79.5 -28.5t31.5 -75.5t-31.5 -76t-79.5 -29q-49 0 -80.5 29t-31.5 76t31.5 75.5zM284.5 554q10.5 -11 28.5 -11t28.5 11t10.5 30q0 21 -10.5 31.5t-28.5 10.5t-28.5 -10.5t-10.5 -31.5q0 -19 10.5 -30zM375 742h-85l78 135h155z" />
    <glyph glyph-name="atilde" unicode="&#xe3;" horiz-adv-x="614" 
d="M542 437v-437h-140v54q-63 -66 -146 -66q-97 0 -157.5 58t-60.5 172q0 72 29.5 126.5t78.5 84.5t105 30q58 0 92 -17.5t60 -49.5l9 45h130zM402 168v107q-12 32 -41.5 51t-69.5 19q-46 0 -78.5 -34t-32.5 -86q0 -34 16 -62.5t42.5 -44.5t57.5 -16q73 0 106 66zM355 497
q-21 11 -48 33q-27 23 -44 23q-16 0 -23.5 -14.5t-7.5 -36.5l1 -14h-70q-1 7 -1 22q0 55 29 93t80 38q22 0 39.5 -10.5t42.5 -31.5q20 -17 29.5 -23.5t20.5 -6.5q29 0 25 69h70q3 -16 3 -32q0 -52 -27.5 -86t-67.5 -34q-30 0 -51 11z" />
    <glyph glyph-name="ae" unicode="&#xe6;" horiz-adv-x="849" 
d="M673 136l62 -104q-36 -20 -76 -32t-76 -12q-62 0 -111 19.5t-82 54.5q-30 -35 -76 -54t-104 -19q-86 0 -129 37.5t-43 101.5q0 41 26.5 71.5t70.5 47.5t94 17t105 -16v15q0 30 -15.5 48t-36 25.5t-34.5 7.5q-36 0 -65.5 -19.5t-46.5 -44.5l-70 88q84 90 202 90
q47 0 88.5 -13.5t69.5 -39.5q33 25 74 39t86 14q94 0 154.5 -55t78.5 -157l-320 -102q32 -37 87 -37q42 0 87 29zM500 317q-28 -32 -28 -86v-9l192 65q-21 62 -89 62q-47 0 -75 -32zM347 138l-6 20q-19 10 -35.5 13t-43.5 3q-70 0 -70 -43q0 -22 15.5 -34t42.5 -12
q26 0 54.5 15.5t42.5 34.5v3z" />
    <glyph glyph-name="aeacute" unicode="&#x1fd;" horiz-adv-x="849" 
d="M673 136l62 -104q-36 -20 -76 -32t-76 -12q-62 0 -111 19.5t-82 54.5q-30 -35 -76 -54t-104 -19q-86 0 -129 37.5t-43 101.5q0 41 26.5 71.5t70.5 47.5t94 17t105 -16v15q0 30 -15.5 48t-36 25.5t-34.5 7.5q-36 0 -65.5 -19.5t-46.5 -44.5l-70 88q84 90 202 90
q47 0 88.5 -13.5t69.5 -39.5q33 25 74 39t86 14q94 0 154.5 -55t78.5 -157l-320 -102q32 -37 87 -37q42 0 87 29zM500 317q-28 -32 -28 -86v-9l192 65q-21 62 -89 62q-47 0 -75 -32zM347 138l-6 20q-19 10 -35.5 13t-43.5 3q-70 0 -70 -43q0 -22 15.5 -34t42.5 -12
q26 0 54.5 15.5t42.5 34.5v3zM471 489h-85l78 135h155z" />
    <glyph glyph-name="b" unicode="b" horiz-adv-x="624" 
d="M482.5 431.5q47.5 -27.5 75.5 -79.5t28 -124t-31 -126.5t-83 -84t-113 -29.5q-89 0 -147 56v-44h-140v789h139v-382q28 23 71 37.5t96 14.5q57 0 104.5 -27.5zM385.5 122q26.5 16 42.5 44.5t16 62.5q0 52 -34 86t-82 34q-41 0 -72 -19t-44 -51v-107q36 -66 116 -66
q31 0 57.5 16z" />
    <glyph glyph-name="c" unicode="c" horiz-adv-x="479" 
d="M370.5 2q-43.5 -14 -85.5 -14q-114 0 -180.5 61.5t-66.5 169.5q0 70 32.5 122.5t85.5 80t114 27.5q109 0 177 -58l-68 -90q-43 34 -96 34q-44 0 -74.5 -33t-30.5 -83t33 -83.5t86 -33.5q46 0 76 25l70 -88q-29 -23 -72.5 -37z" />
    <glyph glyph-name="cacute" unicode="&#x107;" horiz-adv-x="479" 
d="M370.5 2q-43.5 -14 -85.5 -14q-114 0 -180.5 61.5t-66.5 169.5q0 70 32.5 122.5t85.5 80t114 27.5q109 0 177 -58l-68 -90q-43 34 -96 34q-44 0 -74.5 -33t-30.5 -83t33 -83.5t86 -33.5q46 0 76 25l70 -88q-29 -23 -72.5 -37zM304 499h-85l78 135h155z" />
    <glyph glyph-name="ccaron" unicode="&#x10d;" horiz-adv-x="479" 
d="M370.5 2q-43.5 -14 -85.5 -14q-114 0 -180.5 61.5t-66.5 169.5q0 70 32.5 122.5t85.5 80t114 27.5q109 0 177 -58l-68 -90q-43 34 -96 34q-44 0 -74.5 -33t-30.5 -83t33 -83.5t86 -33.5q46 0 76 25l70 -88q-29 -23 -72.5 -37zM454 683l-185 -184h-1l-189 184h126l65 -62
l58 62h126z" />
    <glyph glyph-name="ccedilla" unicode="&#xe7;" horiz-adv-x="479" 
d="M374.5 3.5q-40.5 -13.5 -80.5 -15.5l-20 -22q50 -3 81.5 -26.5t31.5 -64.5q0 -54 -45.5 -82.5t-110.5 -28.5q-74 0 -117 45l43 55q10 -12 26 -19.5t34 -7.5q19 0 36.5 9.5t17.5 26.5q0 33 -53 33q-20 0 -60 -11l-19 66l54 40q-74 21 -114.5 77.5t-40.5 140.5
q0 70 32.5 122.5t85.5 80t114 27.5q109 0 177 -58l-68 -90q-43 34 -96 34q-44 0 -74.5 -33t-30.5 -83t33 -83.5t86 -33.5q46 0 76 25l70 -88q-28 -22 -68.5 -35.5z" />
    <glyph glyph-name="ccircumflex" unicode="&#x109;" horiz-adv-x="479" 
d="M370.5 2q-43.5 -14 -85.5 -14q-114 0 -180.5 61.5t-66.5 169.5q0 70 32.5 122.5t85.5 80t114 27.5q109 0 177 -58l-68 -90q-43 34 -96 34q-44 0 -74.5 -33t-30.5 -83t33 -83.5t86 -33.5q46 0 76 25l70 -88q-29 -23 -72.5 -37zM316 499l-65 62l-58 -62h-126l185 184h1
l189 -184h-126z" />
    <glyph glyph-name="cdotaccent" unicode="&#x10b;" horiz-adv-x="479" 
d="M370.5 2q-43.5 -14 -85.5 -14q-114 0 -180.5 61.5t-66.5 169.5q0 70 32.5 122.5t85.5 80t114 27.5q109 0 177 -58l-68 -90q-43 34 -96 34q-44 0 -74.5 -33t-30.5 -83t33 -83.5t86 -33.5q46 0 76 25l70 -88q-29 -23 -72.5 -37zM204.5 652.5q23.5 20.5 53.5 20.5
q29 0 52 -20.5t23 -50.5t-23 -50t-52 -20q-30 0 -53.5 20t-23.5 50t23.5 50.5z" />
    <glyph glyph-name="d" unicode="d" horiz-adv-x="624" 
d="M552 789v-789h-140v46q-76 -58 -162 -58q-61 0 -109 29t-75.5 83t-27.5 127q0 72 29.5 124.5t81.5 80t119 27.5q43 0 81 -13.5t64 -39.5v383h139zM366 122.5q28 16.5 46 49.5v107q-12 32 -43 51t-73 19q-47 0 -81.5 -34t-34.5 -86q0 -34 16 -62.5t42.5 -44.5t57.5 -16
q42 0 70 16.5z" />
    <glyph glyph-name="eth" unicode="&#xf0;" horiz-adv-x="571" 
d="M503.5 453.5q29.5 -92.5 29.5 -183.5q0 -71 -29.5 -135.5t-88.5 -105.5t-142 -41q-66 0 -119.5 28.5t-84.5 82t-31 125.5q0 66 28.5 119.5t77.5 84t108 30.5q72 0 124 -55q-20 85 -71 150l-91 -56l-45 93l65 40q-35 32 -79 67l104 92q53 -34 99 -83l89 54l45 -93l-70 -43
q52 -78 81.5 -170.5zM362.5 136q29.5 34 29.5 87t-29.5 87t-77.5 34q-46 0 -76 -34.5t-30 -86.5t30 -86.5t76 -34.5q48 0 77.5 34z" />
    <glyph glyph-name="dcaron" unicode="&#x10f;" horiz-adv-x="737" 
d="M552 789v-789h-140v46q-76 -58 -162 -58q-61 0 -109 29t-75.5 83t-27.5 127q0 72 29.5 124.5t81.5 80t119 27.5q43 0 81 -13.5t64 -39.5v383h139zM366 122.5q28 16.5 46 49.5v107q-12 32 -43 51t-73 19q-47 0 -81.5 -34t-34.5 -86q0 -34 16 -62.5t42.5 -44.5t57.5 -16
q42 0 70 16.5zM605 657q19 18 32 48.5t13 60.5q0 8 -2 22l107 7q2 -12 2 -19q0 -41 -24 -85t-56 -62z" />
    <glyph glyph-name="dcroat" unicode="&#x111;" horiz-adv-x="624" 
d="M632 573h-80v-573h-140v46q-76 -58 -162 -58q-61 0 -109 29t-75.5 83t-27.5 127q0 72 29.5 124.5t81.5 80t119 27.5q43 0 81 -13.5t64 -39.5v167h-96v130h96v86h139v-86h80v-130zM366 122.5q28 16.5 46 49.5v107q-12 32 -43 51t-73 19q-47 0 -81.5 -34t-34.5 -86
q0 -34 16 -62.5t42.5 -44.5t57.5 -16q42 0 70 16.5z" />
    <glyph glyph-name="uni01F3" unicode="&#x1f3;" horiz-adv-x="1146" 
d="M552 789v-789h-140v46q-76 -58 -162 -58q-61 0 -109 29t-75.5 83t-27.5 127q0 72 29.5 124.5t81.5 80t119 27.5q43 0 81 -13.5t64 -39.5v383h139zM366 122.5q28 16.5 46 49.5v107q-12 32 -43 51t-73 19q-47 0 -81.5 -34t-34.5 -86q0 -34 16 -62.5t42.5 -44.5t57.5 -16
q42 0 70 16.5zM868 114h219v-114h-443l222 323h-102q-37 0 -63.5 26.5t-26.5 69.5v60h105v-14q0 -20 6.5 -24t27.5 -4h277z" />
    <glyph glyph-name="uni01C6" unicode="&#x1c6;" horiz-adv-x="1146" 
d="M552 789v-789h-140v46q-76 -58 -162 -58q-61 0 -109 29t-75.5 83t-27.5 127q0 72 29.5 124.5t81.5 80t119 27.5q43 0 81 -13.5t64 -39.5v383h139zM366 122.5q28 16.5 46 49.5v107q-12 32 -43 51t-73 19q-47 0 -81.5 -34t-34.5 -86q0 -34 16 -62.5t42.5 -44.5t57.5 -16
q42 0 70 16.5zM868 114h219v-114h-443l222 323h-102q-37 0 -63.5 26.5t-26.5 69.5v60h105v-14q0 -20 6.5 -24t27.5 -4h277zM1083 673l-185 -184h-1l-189 184h126l65 -62l58 62h126z" />
    <glyph glyph-name="e" unicode="e" horiz-adv-x="553" 
d="M377 136l62 -104q-36 -20 -76 -32t-76 -12q-78 0 -134.5 29.5t-85.5 83t-29 122.5q0 64 33.5 118t91.5 85.5t127 31.5q94 0 154.5 -55t78.5 -157l-320 -102q32 -37 87 -37q42 0 87 29zM204 317q-28 -32 -28 -86v-9l192 65q-21 62 -89 62q-47 0 -75 -32z" />
    <glyph glyph-name="eacute" unicode="&#xe9;" horiz-adv-x="553" 
d="M377 136l62 -104q-36 -20 -76 -32t-76 -12q-78 0 -134.5 29.5t-85.5 83t-29 122.5q0 64 33.5 118t91.5 85.5t127 31.5q94 0 154.5 -55t78.5 -157l-320 -102q32 -37 87 -37q42 0 87 29zM204 317q-28 -32 -28 -86v-9l192 65q-21 62 -89 62q-47 0 -75 -32zM338 510h-85
l78 135h155z" />
    <glyph glyph-name="ebreve" unicode="&#x115;" horiz-adv-x="553" 
d="M377 136l62 -104q-36 -20 -76 -32t-76 -12q-78 0 -134.5 29.5t-85.5 83t-29 122.5q0 64 33.5 118t91.5 85.5t127 31.5q94 0 154.5 -55t78.5 -157l-320 -102q32 -37 87 -37q42 0 87 29zM204 317q-28 -32 -28 -86v-9l192 65q-21 62 -89 62q-47 0 -75 -32zM183.5 537
q-40.5 46 -57.5 141h93q10 -48 26 -71t49 -23t48.5 23t25.5 71h93q-16 -97 -56.5 -142t-110.5 -45t-110.5 46z" />
    <glyph glyph-name="ecaron" unicode="&#x11b;" horiz-adv-x="553" 
d="M377 136l62 -104q-36 -20 -76 -32t-76 -12q-78 0 -134.5 29.5t-85.5 83t-29 122.5q0 64 33.5 118t91.5 85.5t127 31.5q94 0 154.5 -55t78.5 -157l-320 -102q32 -37 87 -37q42 0 87 29zM204 317q-28 -32 -28 -86v-9l192 65q-21 62 -89 62q-47 0 -75 -32zM488 694
l-185 -184h-1l-189 184h126l65 -62l58 62h126z" />
    <glyph glyph-name="ecircumflex" unicode="&#xea;" horiz-adv-x="553" 
d="M377 136l62 -104q-36 -20 -76 -32t-76 -12q-78 0 -134.5 29.5t-85.5 83t-29 122.5q0 64 33.5 118t91.5 85.5t127 31.5q94 0 154.5 -55t78.5 -157l-320 -102q32 -37 87 -37q42 0 87 29zM204 317q-28 -32 -28 -86v-9l192 65q-21 62 -89 62q-47 0 -75 -32zM350 510l-65 62
l-58 -62h-126l185 184h1l189 -184h-126z" />
    <glyph glyph-name="uni1EBF" unicode="&#x1ebf;" horiz-adv-x="553" 
d="M377 136l62 -104q-36 -20 -76 -32t-76 -12q-78 0 -134.5 29.5t-85.5 83t-29 122.5q0 64 33.5 118t91.5 85.5t127 31.5q94 0 154.5 -55t78.5 -157l-320 -102q32 -37 87 -37q42 0 87 29zM204 317q-28 -32 -28 -86v-9l192 65q-21 62 -89 62q-47 0 -75 -32zM356 510l-65 62
l-58 -62h-126l185 184h1l189 -184h-126zM514 617h-85l78 135h155z" />
    <glyph glyph-name="uni1EC7" unicode="&#x1ec7;" horiz-adv-x="553" 
d="M377 136l62 -104q-36 -20 -76 -32t-76 -12q-78 0 -134.5 29.5t-85.5 83t-29 122.5q0 64 33.5 118t91.5 85.5t127 31.5q94 0 154.5 -55t78.5 -157l-320 -102q32 -37 87 -37q42 0 87 29zM204 317q-28 -32 -28 -86v-9l192 65q-21 62 -89 62q-47 0 -75 -32zM234 -67.5
q20 16.5 44 16.5t43 -16.5t19 -41.5t-19 -41.5t-43 -16.5q-25 0 -44.5 16.5t-19.5 41.5t20 41.5zM350 510l-65 62l-58 -62h-126l185 184h1l189 -184h-126z" />
    <glyph glyph-name="uni1EC1" unicode="&#x1ec1;" horiz-adv-x="553" 
d="M377 136l62 -104q-36 -20 -76 -32t-76 -12q-78 0 -134.5 29.5t-85.5 83t-29 122.5q0 64 33.5 118t91.5 85.5t127 31.5q94 0 154.5 -55t78.5 -157l-320 -102q32 -37 87 -37q42 0 87 29zM204 317q-28 -32 -28 -86v-9l192 65q-21 62 -89 62q-47 0 -75 -32zM348 510l-65 62
l-58 -62h-126l185 184h1l189 -184h-126zM90 756l62 -135h-85l-132 135h155z" />
    <glyph glyph-name="uni1EC3" unicode="&#x1ec3;" horiz-adv-x="553" 
d="M377 136l62 -104q-36 -20 -76 -32t-76 -12q-78 0 -134.5 29.5t-85.5 83t-29 122.5q0 64 33.5 118t91.5 85.5t127 31.5q94 0 154.5 -55t78.5 -157l-320 -102q32 -37 87 -37q42 0 87 29zM204 317q-28 -32 -28 -86v-9l192 65q-21 62 -89 62q-47 0 -75 -32zM352 510l-65 62
l-58 -62h-126l185 184h1l189 -184h-126zM508.5 646.5q9.5 11.5 9.5 27.5q0 33 -29 33q-13 0 -23 -7.5t-16 -19.5l-50 30q17 35 46 53.5t62 18.5q43 0 65 -26.5t22 -61.5q0 -36 -23.5 -62.5t-63.5 -47.5l-29 37q20 14 29.5 25.5z" />
    <glyph glyph-name="uni1EC5" unicode="&#x1ec5;" horiz-adv-x="553" 
d="M377 136l62 -104q-36 -20 -76 -32t-76 -12q-78 0 -134.5 29.5t-85.5 83t-29 122.5q0 64 33.5 118t91.5 85.5t127 31.5q94 0 154.5 -55t78.5 -157l-320 -102q32 -37 87 -37q42 0 87 29zM204 317q-28 -32 -28 -86v-9l192 65q-21 62 -89 62q-47 0 -75 -32zM344 510l-65 62
l-58 -62h-126l185 184h1l189 -184h-126zM312 734q-21 11 -48 33q-27 23 -44 23q-16 0 -23.5 -14.5t-7.5 -36.5l1 -14h-70q-1 7 -1 22q0 55 29 93t80 38q22 0 39.5 -10.5t42.5 -31.5q20 -17 29.5 -23.5t20.5 -6.5q29 0 25 69h70q3 -16 3 -32q0 -52 -27.5 -86t-67.5 -34
q-30 0 -51 11z" />
    <glyph glyph-name="uni0205" unicode="&#x205;" horiz-adv-x="553" 
d="M377 136l62 -104q-36 -20 -76 -32t-76 -12q-78 0 -134.5 29.5t-85.5 83t-29 122.5q0 64 33.5 118t91.5 85.5t127 31.5q94 0 154.5 -55t78.5 -157l-320 -102q32 -37 87 -37q42 0 87 29zM204 317q-28 -32 -28 -86v-9l192 65q-21 62 -89 62q-47 0 -75 -32zM195 645l62 -135
h-85l-132 135h155zM365 645l62 -135h-85l-132 135h155z" />
    <glyph glyph-name="edieresis" unicode="&#xeb;" horiz-adv-x="553" 
d="M377 136l62 -104q-36 -20 -76 -32t-76 -12q-78 0 -134.5 29.5t-85.5 83t-29 122.5q0 64 33.5 118t91.5 85.5t127 31.5q94 0 154.5 -55t78.5 -157l-320 -102q32 -37 87 -37q42 0 87 29zM204 317q-28 -32 -28 -86v-9l192 65q-21 62 -89 62q-47 0 -75 -32zM139 615
q22 21 50 21q26 0 48 -21.5t22 -51.5q0 -31 -22 -51.5t-48 -20.5q-28 0 -50 20.5t-22 51.5t22 52zM339 615q22 21 50 21q26 0 48 -21.5t22 -51.5q0 -31 -22 -51.5t-48 -20.5q-28 0 -50 20.5t-22 51.5t22 52z" />
    <glyph glyph-name="edotaccent" unicode="&#x117;" horiz-adv-x="553" 
d="M377 136l62 -104q-36 -20 -76 -32t-76 -12q-78 0 -134.5 29.5t-85.5 83t-29 122.5q0 64 33.5 118t91.5 85.5t127 31.5q94 0 154.5 -55t78.5 -157l-320 -102q32 -37 87 -37q42 0 87 29zM204 317q-28 -32 -28 -86v-9l192 65q-21 62 -89 62q-47 0 -75 -32zM238.5 663.5
q23.5 20.5 53.5 20.5q29 0 52 -20.5t23 -50.5t-23 -50t-52 -20q-30 0 -53.5 20t-23.5 50t23.5 50.5z" />
    <glyph glyph-name="uni1EB9" unicode="&#x1eb9;" horiz-adv-x="553" 
d="M377 136l62 -104q-36 -20 -76 -32t-76 -12q-78 0 -134.5 29.5t-85.5 83t-29 122.5q0 64 33.5 118t91.5 85.5t127 31.5q94 0 154.5 -55t78.5 -157l-320 -102q32 -37 87 -37q42 0 87 29zM204 317q-28 -32 -28 -86v-9l192 65q-21 62 -89 62q-47 0 -75 -32zM234 -67.5
q20 16.5 44 16.5t43 -16.5t19 -41.5t-19 -41.5t-43 -16.5q-25 0 -44.5 16.5t-19.5 41.5t20 41.5z" />
    <glyph glyph-name="egrave" unicode="&#xe8;" horiz-adv-x="553" 
d="M377 136l62 -104q-36 -20 -76 -32t-76 -12q-78 0 -134.5 29.5t-85.5 83t-29 122.5q0 64 33.5 118t91.5 85.5t127 31.5q94 0 154.5 -55t78.5 -157l-320 -102q32 -37 87 -37q42 0 87 29zM204 317q-28 -32 -28 -86v-9l192 65q-21 62 -89 62q-47 0 -75 -32zM269 645l62 -135
h-85l-132 135h155z" />
    <glyph glyph-name="uni1EBB" unicode="&#x1ebb;" horiz-adv-x="553" 
d="M377 136l62 -104q-36 -20 -76 -32t-76 -12q-78 0 -134.5 29.5t-85.5 83t-29 122.5q0 64 33.5 118t91.5 85.5t127 31.5q94 0 154.5 -55t78.5 -157l-320 -102q32 -37 87 -37q42 0 87 29zM204 317q-28 -32 -28 -86v-9l192 65q-21 62 -89 62q-47 0 -75 -32zM290.5 566.5
q9.5 11.5 9.5 27.5q0 33 -29 33q-13 0 -23 -7.5t-16 -19.5l-50 30q17 35 46 53.5t62 18.5q43 0 65 -26.5t22 -61.5q0 -36 -23.5 -62.5t-63.5 -47.5l-29 37q20 14 29.5 25.5z" />
    <glyph glyph-name="uni0207" unicode="&#x207;" horiz-adv-x="553" 
d="M377 136l62 -104q-36 -20 -76 -32t-76 -12q-78 0 -134.5 29.5t-85.5 83t-29 122.5q0 64 33.5 118t91.5 85.5t127 31.5q94 0 154.5 -55t78.5 -157l-320 -102q32 -37 87 -37q42 0 87 29zM204 317q-28 -32 -28 -86v-9l192 65q-21 62 -89 62q-47 0 -75 -32zM404.5 632
q40.5 -46 57.5 -141h-93q-10 48 -26 71t-49 23t-48.5 -23t-25.5 -71h-93q16 97 56.5 142t110.5 45t110.5 -46z" />
    <glyph glyph-name="emacron" unicode="&#x113;" horiz-adv-x="553" 
d="M377 136l62 -104q-36 -20 -76 -32t-76 -12q-78 0 -134.5 29.5t-85.5 83t-29 122.5q0 64 33.5 118t91.5 85.5t127 31.5q94 0 154.5 -55t78.5 -157l-320 -102q32 -37 87 -37q42 0 87 29zM204 317q-28 -32 -28 -86v-9l192 65q-21 62 -89 62q-47 0 -75 -32zM418 587v-97h-255
v97h255z" />
    <glyph glyph-name="eogonek" unicode="&#x119;" horiz-adv-x="557" 
d="M407 -85l50 -72q-22 -33 -61 -54t-74 -21q-69 0 -110 35t-41 94q0 27 14.5 53t40.5 44q-88 17 -136 78t-48 151q0 64 33.5 118t91.5 85.5t127 31.5q94 0 154.5 -55t78.5 -157l-320 -102q32 -37 87 -37q42 0 87 29l62 -104q-9 -5 -63 -29q-48 -19 -71 -36t-23 -48
q0 -24 15 -38.5t34 -14.5q39 0 72 49zM208 317q-28 -32 -28 -86v-9l192 65q-21 62 -89 62q-47 0 -75 -32z" />
    <glyph glyph-name="uni1EBD" unicode="&#x1ebd;" horiz-adv-x="553" 
d="M377 136l62 -104q-36 -20 -76 -32t-76 -12q-78 0 -134.5 29.5t-85.5 83t-29 122.5q0 64 33.5 118t91.5 85.5t127 31.5q94 0 154.5 -55t78.5 -157l-320 -102q32 -37 87 -37q42 0 87 29zM204 317q-28 -32 -28 -86v-9l192 65q-21 62 -89 62q-47 0 -75 -32zM318 498
q-21 11 -48 33q-27 23 -44 23q-16 0 -23.5 -14.5t-7.5 -36.5l1 -14h-70q-1 7 -1 22q0 55 29 93t80 38q22 0 39.5 -10.5t42.5 -31.5q20 -17 29.5 -23.5t20.5 -6.5q29 0 25 69h70q3 -16 3 -32q0 -52 -27.5 -86t-67.5 -34q-30 0 -51 11z" />
    <glyph glyph-name="uni0259" unicode="&#x259;" horiz-adv-x="553" 
d="M400.5 419.5q56.5 -29.5 85.5 -83t29 -122.5q0 -64 -33.5 -118t-91.5 -85.5t-127 -31.5q-94 0 -154.5 55t-78.5 157l320 102q-32 37 -87 37q-42 0 -87 -29l-62 104q36 20 76 32t76 12q78 0 134.5 -29.5zM349 120q28 32 28 86v9l-192 -65q21 -62 89 -62q47 0 75 32z" />
    <glyph glyph-name="f" unicode="f" horiz-adv-x="435" 
d="M114 315h-74v124h74v152q0 88 50.5 141.5t142.5 53.5q30 0 64 -9t59 -27l-59 -101q-18 22 -49 22t-49.5 -21t-18.5 -63v-148h132v-124h-132v-315h-140v315z" />
    <glyph glyph-name="g" unicode="g" horiz-adv-x="633" 
d="M561 437v-437q0 -62 -35.5 -112.5t-96 -79t-131.5 -28.5q-54 0 -94.5 13t-65 29t-58.5 44l82 96q30 -28 59.5 -44t74.5 -16q53 0 89 26.5t36 73.5v62q-20 -34 -61.5 -55t-101.5 -21q-59 0 -109.5 30.5t-80.5 84t-30 118.5q0 66 31.5 121t83 86t108.5 31q54 0 96 -15.5
t64 -40.5l11 34h129zM421 168v107q-14 32 -46.5 51t-74.5 19q-51 0 -86 -34t-35 -86t35 -87.5t86 -35.5q84 0 121 66z" />
    <glyph glyph-name="gbreve" unicode="&#x11f;" horiz-adv-x="633" 
d="M561 437v-437q0 -62 -35.5 -112.5t-96 -79t-131.5 -28.5q-54 0 -94.5 13t-65 29t-58.5 44l82 96q30 -28 59.5 -44t74.5 -16q53 0 89 26.5t36 73.5v62q-20 -34 -61.5 -55t-101.5 -21q-59 0 -109.5 30.5t-80.5 84t-30 118.5q0 66 31.5 121t83 86t108.5 31q54 0 96 -15.5
t64 -40.5l11 34h129zM421 168v107q-14 32 -46.5 51t-74.5 19q-51 0 -86 -34t-35 -86t35 -87.5t86 -35.5q84 0 121 66zM209.5 536q-40.5 46 -57.5 141h93q10 -48 26 -71t49 -23t48.5 23t25.5 71h93q-16 -97 -56.5 -142t-110.5 -45t-110.5 46z" />
    <glyph glyph-name="gcaron" unicode="&#x1e7;" horiz-adv-x="633" 
d="M561 437v-437q0 -62 -35.5 -112.5t-96 -79t-131.5 -28.5q-54 0 -94.5 13t-65 29t-58.5 44l82 96q30 -28 59.5 -44t74.5 -16q53 0 89 26.5t36 73.5v62q-20 -34 -61.5 -55t-101.5 -21q-59 0 -109.5 30.5t-80.5 84t-30 118.5q0 66 31.5 121t83 86t108.5 31q54 0 96 -15.5
t64 -40.5l11 34h129zM421 168v107q-14 32 -46.5 51t-74.5 19q-51 0 -86 -34t-35 -86t35 -87.5t86 -35.5q84 0 121 66zM514 693l-185 -184h-1l-189 184h126l65 -62l58 62h126z" />
    <glyph glyph-name="gcircumflex" unicode="&#x11d;" horiz-adv-x="633" 
d="M561 437v-437q0 -62 -35.5 -112.5t-96 -79t-131.5 -28.5q-54 0 -94.5 13t-65 29t-58.5 44l82 96q30 -28 59.5 -44t74.5 -16q53 0 89 26.5t36 73.5v62q-20 -34 -61.5 -55t-101.5 -21q-59 0 -109.5 30.5t-80.5 84t-30 118.5q0 66 31.5 121t83 86t108.5 31q54 0 96 -15.5
t64 -40.5l11 34h129zM421 168v107q-14 32 -46.5 51t-74.5 19q-51 0 -86 -34t-35 -86t35 -87.5t86 -35.5q84 0 121 66zM376 509l-65 62l-58 -62h-126l185 184h1l189 -184h-126z" />
    <glyph glyph-name="gcommaaccent" unicode="&#x123;" horiz-adv-x="598" 
d="M380 599l-34 -92h-121l88 210h112zM561 437v-437q0 -62 -35.5 -112.5t-96 -79t-131.5 -28.5q-54 0 -94.5 13t-65 29t-58.5 44l82 96q30 -28 59.5 -44t74.5 -16q53 0 89 26.5t36 73.5v62q-20 -34 -61.5 -55t-101.5 -21q-59 0 -109.5 30.5t-80.5 84t-30 118.5
q0 66 31.5 121t83 86t108.5 31q54 0 96 -15.5t64 -40.5l11 34h129zM421 168v107q-14 32 -46.5 51t-74.5 19q-51 0 -86 -34t-35 -86t35 -87.5t86 -35.5q84 0 121 66z" />
    <glyph glyph-name="gdotaccent" unicode="&#x121;" horiz-adv-x="633" 
d="M561 437v-437q0 -62 -35.5 -112.5t-96 -79t-131.5 -28.5q-54 0 -94.5 13t-65 29t-58.5 44l82 96q30 -28 59.5 -44t74.5 -16q53 0 89 26.5t36 73.5v62q-20 -34 -61.5 -55t-101.5 -21q-59 0 -109.5 30.5t-80.5 84t-30 118.5q0 66 31.5 121t83 86t108.5 31q54 0 96 -15.5
t64 -40.5l11 34h129zM421 168v107q-14 32 -46.5 51t-74.5 19q-51 0 -86 -34t-35 -86t35 -87.5t86 -35.5q84 0 121 66zM264.5 662.5q23.5 20.5 53.5 20.5q29 0 52 -20.5t23 -50.5t-23 -50t-52 -20q-30 0 -53.5 20t-23.5 50t23.5 50.5z" />
    <glyph glyph-name="h" unicode="h" horiz-adv-x="594" 
d="M479.5 421q41.5 -37 42.5 -94v-327h-140v275q-3 64 -64 64q-48 0 -77 -45t-29 -116v-178h-140v789h137v-421q24 42 66.5 66t100.5 24q62 0 103.5 -37z" />
    <glyph glyph-name="hbar" unicode="&#x127;" horiz-adv-x="594" 
d="M479.5 421q41.5 -37 42.5 -94v-327h-140v275q-3 64 -64 64q-48 0 -77 -45t-29 -116v-178h-140v556h-78v130h78v103h137v-103h100v-130h-100v-188q24 42 66.5 66t100.5 24q62 0 103.5 -37z" />
    <glyph glyph-name="hcircumflex" unicode="&#x125;" horiz-adv-x="594" 
d="M479.5 421q41.5 -37 42.5 -94v-327h-140v275q-3 64 -64 64q-48 0 -77 -45t-29 -116v-178h-140v789h137v-421q24 42 66.5 66t100.5 24q62 0 103.5 -37zM194 829l-65 62l-58 -62h-126l185 184h1l189 -184h-126z" />
    <glyph glyph-name="i" unicode="i" horiz-adv-x="284" 
d="M212 437v-437h-140v437h140zM92.5 642.5q23.5 20.5 53.5 20.5q29 0 52 -20.5t23 -50.5t-23 -50t-52 -20q-30 0 -53.5 20t-23.5 50t23.5 50.5z" />
    <glyph glyph-name="dotlessi" unicode="&#x131;" horiz-adv-x="284" 
d="M212 437v-437h-140v437h140z" />
    <glyph glyph-name="iacute" unicode="&#xed;" horiz-adv-x="284" 
d="M212 437v-437h-140v437h140zM192 489h-85l78 135h155z" />
    <glyph glyph-name="ibreve" unicode="&#x12d;" horiz-adv-x="284" 
d="M212 437v-437h-140v437h140zM37.5 516q-40.5 46 -57.5 141h93q10 -48 26 -71t49 -23t48.5 23t25.5 71h93q-16 -97 -56.5 -142t-110.5 -45t-110.5 46z" />
    <glyph glyph-name="icircumflex" unicode="&#xee;" horiz-adv-x="284" 
d="M212 437v-437h-140v437h140zM204 489l-65 62l-58 -62h-126l185 184h1l189 -184h-126z" />
    <glyph glyph-name="uni0209" unicode="&#x209;" horiz-adv-x="284" 
d="M212 437v-437h-140v437h140zM49 624l62 -135h-85l-132 135h155zM219 624l62 -135h-85l-132 135h155z" />
    <glyph glyph-name="idieresis" unicode="&#xef;" horiz-adv-x="284" 
d="M212 437v-437h-140v437h140zM-7 594q22 21 50 21q26 0 48 -21.5t22 -51.5q0 -31 -22 -51.5t-48 -20.5q-28 0 -50 20.5t-22 51.5t22 52zM193 594q22 21 50 21q26 0 48 -21.5t22 -51.5q0 -31 -22 -51.5t-48 -20.5q-28 0 -50 20.5t-22 51.5t22 52z" />
    <glyph glyph-name="i.loclTRK" horiz-adv-x="284" 
d="M212 437v-437h-140v437h140zM92.5 642.5q23.5 20.5 53.5 20.5q29 0 52 -20.5t23 -50.5t-23 -50t-52 -20q-30 0 -53.5 20t-23.5 50t23.5 50.5z" />
    <glyph glyph-name="uni1ECB" unicode="&#x1ecb;" horiz-adv-x="284" 
d="M212 437v-437h-140v437h140zM92.5 642.5q23.5 20.5 53.5 20.5q29 0 52 -20.5t23 -50.5t-23 -50t-52 -20q-30 0 -53.5 20t-23.5 50t23.5 50.5zM99 -67.5q20 16.5 44 16.5t43 -16.5t19 -41.5t-19 -41.5t-43 -16.5q-25 0 -44.5 16.5t-19.5 41.5t20 41.5z" />
    <glyph glyph-name="igrave" unicode="&#xec;" horiz-adv-x="284" 
d="M212 437v-437h-140v437h140zM123 624l62 -135h-85l-132 135h155z" />
    <glyph glyph-name="uni1EC9" unicode="&#x1ec9;" horiz-adv-x="284" 
d="M212 437v-437h-140v437h140zM144.5 545.5q9.5 11.5 9.5 27.5q0 33 -29 33q-13 0 -23 -7.5t-16 -19.5l-50 30q17 35 46 53.5t62 18.5q43 0 65 -26.5t22 -61.5q0 -36 -23.5 -62.5t-63.5 -47.5l-29 37q20 14 29.5 25.5z" />
    <glyph glyph-name="uni020B" unicode="&#x20b;" horiz-adv-x="284" 
d="M212 437v-437h-140v437h140zM258.5 611q40.5 -46 57.5 -141h-93q-10 48 -26 71t-49 23t-48.5 -23t-25.5 -71h-93q16 97 56.5 142t110.5 45t110.5 -46z" />
    <glyph glyph-name="ij" unicode="&#x133;" horiz-adv-x="560" 
d="M212 437v-437h-140v437h140zM92.5 642.5q23.5 20.5 53.5 20.5q29 0 52 -20.5t23 -50.5t-23 -50t-52 -20q-30 0 -53.5 20t-23.5 50t23.5 50.5zM274 -124q63 46 63 132v429h140v-437q0 -80 -28.5 -131t-93.5 -80zM355.5 642.5q23.5 20.5 53.5 20.5q29 0 52 -20.5t23 -50.5
t-23 -50t-52 -20q-30 0 -53.5 20t-23.5 50t23.5 50.5z" />
    <glyph glyph-name="imacron" unicode="&#x12b;" horiz-adv-x="284" 
d="M212 437v-437h-140v437h140zM272 566v-97h-255v97h255z" />
    <glyph glyph-name="iogonek" unicode="&#x12f;" horiz-adv-x="290" 
d="M90.5 552q-23.5 20 -23.5 50t23.5 50.5t53.5 20.5q29 0 52 -20.5t23 -50.5t-23 -50t-52 -20q-30 0 -53.5 20zM276 -157q-22 -33 -61 -54t-74 -21q-63 0 -104.5 35.5t-41.5 93.5q0 33 20.5 62.5t56.5 47.5v430h140v-436l2 -1q-54 -22 -79 -42t-25 -50q0 -42 44 -42
q39 0 72 49z" />
    <glyph glyph-name="itilde" unicode="&#x129;" horiz-adv-x="284" 
d="M212 437v-437h-140v437h140zM172 477q-21 11 -48 33q-27 23 -44 23q-16 0 -23.5 -14.5t-7.5 -36.5l1 -14h-70q-1 7 -1 22q0 55 29 93t80 38q22 0 39.5 -10.5t42.5 -31.5q20 -17 29.5 -23.5t20.5 -6.5q29 0 25 69h70q3 -16 3 -32q0 -52 -27.5 -86t-67.5 -34q-30 0 -51 11z
" />
    <glyph glyph-name="j" unicode="j" horiz-adv-x="295" 
d="M20 -124q63 46 63 132v429h140v-437q0 -80 -28.5 -131t-93.5 -80zM101.5 642.5q23.5 20.5 53.5 20.5q29 0 52 -20.5t23 -50.5t-23 -50t-52 -20q-30 0 -53.5 20t-23.5 50t23.5 50.5z" />
    <glyph glyph-name="uni0237" unicode="&#x237;" horiz-adv-x="295" 
d="M20 -124q63 46 63 132v429h140v-437q0 -80 -28.5 -131t-93.5 -80z" />
    <glyph glyph-name="jcircumflex" unicode="&#x135;" horiz-adv-x="295" 
d="M20 -124q63 46 63 132v429h140v-437q0 -80 -28.5 -131t-93.5 -80zM213 489l-65 62l-58 -62h-126l185 184h1l189 -184h-126z" />
    <glyph glyph-name="k" unicode="k" horiz-adv-x="546" 
d="M251 182l-39 -29v-153h-140v789h140v-494l208 153l85 -75l-155 -117l171 -256h-163z" />
    <glyph glyph-name="kcommaaccent" unicode="&#x137;" horiz-adv-x="546" 
d="M251 182l-39 -29v-153h-140v789h140v-494l208 153l85 -75l-155 -117l171 -256h-163zM176 -166q17 16 27 46t10 61q0 15 -3 30l122 -1q2 -14 2 -22q0 -43 -24 -90t-62 -72z" />
    <glyph glyph-name="kgreenlandic" unicode="&#x138;" horiz-adv-x="562" 
d="M335 247l188 -247h-161l-115 159l-35 -34v-125h-140v437h140v-164l147 164h168z" />
    <glyph glyph-name="l" unicode="l" horiz-adv-x="284" 
d="M212 789v-789h-140v789h140z" />
    <glyph glyph-name="lacute" unicode="&#x13a;" horiz-adv-x="284" 
d="M212 789v-789h-140v789h140zM180 835h-85l78 135h155z" />
    <glyph glyph-name="lcaron" unicode="&#x13e;" horiz-adv-x="397" 
d="M212 789v-789h-140v789h140zM260 647q19 18 32 48.5t13 60.5q0 8 -2 22l107 7q2 -12 2 -19q0 -41 -24 -85t-56 -62z" />
    <glyph glyph-name="lcommaaccent" unicode="&#x13c;" horiz-adv-x="284" 
d="M212 789v-789h-140v789h140zM46 -166q17 16 27 46t10 61q0 15 -3 30l122 -1q2 -14 2 -22q0 -43 -24 -90t-62 -72z" />
    <glyph glyph-name="ldot" unicode="&#x140;" horiz-adv-x="401" 
d="M212 789v-789h-140v789h140zM295 390.5q22 21.5 50 21.5q26 0 48 -21.5t22 -51.5q0 -31 -21.5 -51.5t-48.5 -20.5q-28 0 -50 20t-22 52q0 30 22 51.5z" />
    <glyph glyph-name="uni01C9" unicode="&#x1c9;" horiz-adv-x="579" 
d="M212 789v-789h-140v789h140zM304 -124q63 46 63 132v429h140v-437q0 -80 -28.5 -131t-93.5 -80zM385.5 642.5q23.5 20.5 53.5 20.5q29 0 52 -20.5t23 -50.5t-23 -50t-52 -20q-30 0 -53.5 20t-23.5 50t23.5 50.5z" />
    <glyph glyph-name="lslash" unicode="&#x142;" horiz-adv-x="315" 
d="M300 292l-78 -18v-274h-140v241l-67 -16v121l67 16v427h140v-394l78 18v-121z" />
    <glyph glyph-name="m" unicode="m" horiz-adv-x="863" 
d="M750.5 423q38.5 -36 40.5 -95v-328h-139v270q-2 33 -11 49.5t-35 18.5q-49 0 -76.5 -47.5t-27.5 -111.5v-179h-140v270q-2 33 -12 49.5t-37 18.5q-47 0 -74 -47.5t-27 -109.5v-181h-140v437h127l10 -69q53 91 158 91q53 0 87.5 -21.5t47.5 -63.5q28 39 66.5 62t79.5 23
q64 0 102.5 -36z" />
    <glyph glyph-name="n" unicode="n" horiz-adv-x="594" 
d="M479.5 421q41.5 -37 42.5 -94v-327h-140v275q-3 64 -64 64q-48 0 -77 -45t-29 -116v-178h-140v437h127l10 -70q24 43 66.5 67t100.5 24q62 0 103.5 -37z" />
    <glyph glyph-name="nacute" unicode="&#x144;" horiz-adv-x="594" 
d="M479.5 421q41.5 -37 42.5 -94v-327h-140v275q-3 64 -64 64q-48 0 -77 -45t-29 -116v-178h-140v437h127l10 -70q24 43 66.5 67t100.5 24q62 0 103.5 -37zM345 499h-85l78 135h155z" />
    <glyph glyph-name="napostrophe" unicode="&#x149;" horiz-adv-x="620" 
d="M-60 471q17 16 27 46t10 61q0 15 -3 30l122 -1q2 -14 2 -22q0 -43 -24 -90t-62 -72zM505.5 421q41.5 -37 42.5 -94v-327h-140v275q-3 64 -64 64q-48 0 -77 -45t-29 -116v-178h-140v437h127l10 -70q24 43 66.5 67t100.5 24q62 0 103.5 -37z" />
    <glyph glyph-name="ncaron" unicode="&#x148;" horiz-adv-x="594" 
d="M479.5 421q41.5 -37 42.5 -94v-327h-140v275q-3 64 -64 64q-48 0 -77 -45t-29 -116v-178h-140v437h127l10 -70q24 43 66.5 67t100.5 24q62 0 103.5 -37zM495 683l-185 -184h-1l-189 184h126l65 -62l58 62h126z" />
    <glyph glyph-name="ncommaaccent" unicode="&#x146;" horiz-adv-x="594" 
d="M479.5 421q41.5 -37 42.5 -94v-327h-140v275q-3 64 -64 64q-48 0 -77 -45t-29 -116v-178h-140v437h127l10 -70q24 43 66.5 67t100.5 24q62 0 103.5 -37zM201 -166q17 16 27 46t10 61q0 15 -3 30l122 -1q2 -14 2 -22q0 -43 -24 -90t-62 -72z" />
    <glyph glyph-name="eng" unicode="&#x14b;" horiz-adv-x="594" 
d="M492 -123q-30 -56 -92 -88l-80 87q62 45 62 132v267q-3 64 -64 64q-48 0 -77 -45t-29 -116v-178h-140v437h127l10 -71q24 43 66 67.5t101 24.5q62 0 103.5 -37t42.5 -94v-320q0 -74 -30 -130z" />
    <glyph glyph-name="uni0272" unicode="&#x272;" horiz-adv-x="594" 
d="M479.5 421q41.5 -37 42.5 -94v-327h-140v275q-3 64 -64 64q-48 0 -77 -45t-29 -116v-140h3v-38q0 -71 -32 -124t-90 -87l-80 87q59 44 62 124h-3v437h127l10 -70q24 43 66.5 67t100.5 24q62 0 103.5 -37z" />
    <glyph glyph-name="uni01CC" unicode="&#x1cc;" horiz-adv-x="874" 
d="M479.5 421q41.5 -37 42.5 -94v-327h-140v275q-3 64 -64 64q-48 0 -77 -45t-29 -116v-178h-140v437h127l10 -70q24 43 66.5 67t100.5 24q62 0 103.5 -37zM588 -124q63 46 63 132v429h140v-437q0 -80 -28.5 -131t-93.5 -80zM669.5 642.5q23.5 20.5 53.5 20.5q29 0 52 -20.5
t23 -50.5t-23 -50t-52 -20q-30 0 -53.5 20t-23.5 50t23.5 50.5z" />
    <glyph glyph-name="ntilde" unicode="&#xf1;" horiz-adv-x="594" 
d="M479.5 421q41.5 -37 42.5 -94v-327h-140v275q-3 64 -64 64q-48 0 -77 -45t-29 -116v-178h-140v437h127l10 -70q24 43 66.5 67t100.5 24q62 0 103.5 -37zM325 487q-21 11 -48 33q-27 23 -44 23q-16 0 -23.5 -14.5t-7.5 -36.5l1 -14h-70q-1 7 -1 22q0 55 29 93t80 38
q22 0 39.5 -10.5t42.5 -31.5q20 -17 29.5 -23.5t20.5 -6.5q29 0 25 69h70q3 -16 3 -32q0 -52 -27.5 -86t-67.5 -34q-30 0 -51 11z" />
    <glyph glyph-name="o" unicode="o" horiz-adv-x="571" 
d="M69.5 344q31.5 53 89 83.5t130.5 30.5t128.5 -30.5t85.5 -83.5t30 -120t-30 -121t-85.5 -84.5t-130.5 -30.5q-73 0 -129.5 28.5t-88 81.5t-31.5 126q0 67 31.5 120zM209 136.5q30 -34.5 76 -34.5q48 0 77.5 34t29.5 87t-29.5 87t-77.5 34q-46 0 -76 -34.5t-30 -86.5
t30 -86.5z" />
    <glyph glyph-name="oacute" unicode="&#xf3;" horiz-adv-x="571" 
d="M69.5 344q31.5 53 89 83.5t130.5 30.5t128.5 -30.5t85.5 -83.5t30 -120t-30 -121t-85.5 -84.5t-130.5 -30.5q-73 0 -129.5 28.5t-88 81.5t-31.5 126q0 67 31.5 120zM209 136.5q30 -34.5 76 -34.5q48 0 77.5 34t29.5 87t-29.5 87t-77.5 34q-46 0 -76 -34.5t-30 -86.5
t30 -86.5zM334 509h-85l78 135h155z" />
    <glyph glyph-name="obreve" unicode="&#x14f;" horiz-adv-x="571" 
d="M69.5 344q31.5 53 89 83.5t130.5 30.5t128.5 -30.5t85.5 -83.5t30 -120t-30 -121t-85.5 -84.5t-130.5 -30.5q-73 0 -129.5 28.5t-88 81.5t-31.5 126q0 67 31.5 120zM209 136.5q30 -34.5 76 -34.5q48 0 77.5 34t29.5 87t-29.5 87t-77.5 34q-46 0 -76 -34.5t-30 -86.5
t30 -86.5zM179.5 536q-40.5 46 -57.5 141h93q10 -48 26 -71t49 -23t48.5 23t25.5 71h93q-16 -97 -56.5 -142t-110.5 -45t-110.5 46z" />
    <glyph glyph-name="ocircumflex" unicode="&#xf4;" horiz-adv-x="571" 
d="M69.5 344q31.5 53 89 83.5t130.5 30.5t128.5 -30.5t85.5 -83.5t30 -120t-30 -121t-85.5 -84.5t-130.5 -30.5q-73 0 -129.5 28.5t-88 81.5t-31.5 126q0 67 31.5 120zM209 136.5q30 -34.5 76 -34.5q48 0 77.5 34t29.5 87t-29.5 87t-77.5 34q-46 0 -76 -34.5t-30 -86.5
t30 -86.5zM346 509l-65 62l-58 -62h-126l185 184h1l189 -184h-126z" />
    <glyph glyph-name="uni1ED1" unicode="&#x1ed1;" horiz-adv-x="571" 
d="M69.5 344q31.5 53 89 83.5t130.5 30.5t128.5 -30.5t85.5 -83.5t30 -120t-30 -121t-85.5 -84.5t-130.5 -30.5q-73 0 -129.5 28.5t-88 81.5t-31.5 126q0 67 31.5 120zM209 136.5q30 -34.5 76 -34.5q48 0 77.5 34t29.5 87t-29.5 87t-77.5 34q-46 0 -76 -34.5t-30 -86.5
t30 -86.5zM352 509l-65 62l-58 -62h-126l185 184h1l189 -184h-126zM510 616h-85l78 135h155z" />
    <glyph glyph-name="uni1ED9" unicode="&#x1ed9;" horiz-adv-x="571" 
d="M69.5 344q31.5 53 89 83.5t130.5 30.5t128.5 -30.5t85.5 -83.5t30 -120t-30 -121t-85.5 -84.5t-130.5 -30.5q-73 0 -129.5 28.5t-88 81.5t-31.5 126q0 67 31.5 120zM209 136.5q30 -34.5 76 -34.5q48 0 77.5 34t29.5 87t-29.5 87t-77.5 34q-46 0 -76 -34.5t-30 -86.5
t30 -86.5zM242 -67.5q20 16.5 44 16.5t43 -16.5t19 -41.5t-19 -41.5t-43 -16.5q-25 0 -44.5 16.5t-19.5 41.5t20 41.5zM346 509l-65 62l-58 -62h-126l185 184h1l189 -184h-126z" />
    <glyph glyph-name="uni1ED3" unicode="&#x1ed3;" horiz-adv-x="571" 
d="M69.5 344q31.5 53 89 83.5t130.5 30.5t128.5 -30.5t85.5 -83.5t30 -120t-30 -121t-85.5 -84.5t-130.5 -30.5q-73 0 -129.5 28.5t-88 81.5t-31.5 126q0 67 31.5 120zM209 136.5q30 -34.5 76 -34.5q48 0 77.5 34t29.5 87t-29.5 87t-77.5 34q-46 0 -76 -34.5t-30 -86.5
t30 -86.5zM344 509l-65 62l-58 -62h-126l185 184h1l189 -184h-126zM86 755l62 -135h-85l-132 135h155z" />
    <glyph glyph-name="uni1ED5" unicode="&#x1ed5;" horiz-adv-x="571" 
d="M69.5 344q31.5 53 89 83.5t130.5 30.5t128.5 -30.5t85.5 -83.5t30 -120t-30 -121t-85.5 -84.5t-130.5 -30.5q-73 0 -129.5 28.5t-88 81.5t-31.5 126q0 67 31.5 120zM209 136.5q30 -34.5 76 -34.5q48 0 77.5 34t29.5 87t-29.5 87t-77.5 34q-46 0 -76 -34.5t-30 -86.5
t30 -86.5zM348 509l-65 62l-58 -62h-126l185 184h1l189 -184h-126zM504.5 645.5q9.5 11.5 9.5 27.5q0 33 -29 33q-13 0 -23 -7.5t-16 -19.5l-50 30q17 35 46 53.5t62 18.5q43 0 65 -26.5t22 -61.5q0 -36 -23.5 -62.5t-63.5 -47.5l-29 37q20 14 29.5 25.5z" />
    <glyph glyph-name="uni1ED7" unicode="&#x1ed7;" horiz-adv-x="571" 
d="M69.5 344q31.5 53 89 83.5t130.5 30.5t128.5 -30.5t85.5 -83.5t30 -120t-30 -121t-85.5 -84.5t-130.5 -30.5q-73 0 -129.5 28.5t-88 81.5t-31.5 126q0 67 31.5 120zM209 136.5q30 -34.5 76 -34.5q48 0 77.5 34t29.5 87t-29.5 87t-77.5 34q-46 0 -76 -34.5t-30 -86.5
t30 -86.5zM340 509l-65 62l-58 -62h-126l185 184h1l189 -184h-126zM308 733q-21 11 -48 33q-27 23 -44 23q-16 0 -23.5 -14.5t-7.5 -36.5l1 -14h-70q-1 7 -1 22q0 55 29 93t80 38q22 0 39.5 -10.5t42.5 -31.5q20 -17 29.5 -23.5t20.5 -6.5q29 0 25 69h70q3 -16 3 -32
q0 -52 -27.5 -86t-67.5 -34q-30 0 -51 11z" />
    <glyph glyph-name="uni020D" unicode="&#x20d;" horiz-adv-x="571" 
d="M69.5 344q31.5 53 89 83.5t130.5 30.5t128.5 -30.5t85.5 -83.5t30 -120t-30 -121t-85.5 -84.5t-130.5 -30.5q-73 0 -129.5 28.5t-88 81.5t-31.5 126q0 67 31.5 120zM209 136.5q30 -34.5 76 -34.5q48 0 77.5 34t29.5 87t-29.5 87t-77.5 34q-46 0 -76 -34.5t-30 -86.5
t30 -86.5zM191 644l62 -135h-85l-132 135h155zM361 644l62 -135h-85l-132 135h155z" />
    <glyph glyph-name="odieresis" unicode="&#xf6;" horiz-adv-x="571" 
d="M69.5 344q31.5 53 89 83.5t130.5 30.5t128.5 -30.5t85.5 -83.5t30 -120t-30 -121t-85.5 -84.5t-130.5 -30.5q-73 0 -129.5 28.5t-88 81.5t-31.5 126q0 67 31.5 120zM209 136.5q30 -34.5 76 -34.5q48 0 77.5 34t29.5 87t-29.5 87t-77.5 34q-46 0 -76 -34.5t-30 -86.5
t30 -86.5zM135 614q22 21 50 21q26 0 48 -21.5t22 -51.5q0 -31 -22 -51.5t-48 -20.5q-28 0 -50 20.5t-22 51.5t22 52zM335 614q22 21 50 21q26 0 48 -21.5t22 -51.5q0 -31 -22 -51.5t-48 -20.5q-28 0 -50 20.5t-22 51.5t22 52z" />
    <glyph glyph-name="uni022B" unicode="&#x22b;" horiz-adv-x="571" 
d="M69.5 344q31.5 53 89 83.5t130.5 30.5t128.5 -30.5t85.5 -83.5t30 -120t-30 -121t-85.5 -84.5t-130.5 -30.5q-73 0 -129.5 28.5t-88 81.5t-31.5 126q0 67 31.5 120zM209 136.5q30 -34.5 76 -34.5q48 0 77.5 34t29.5 87t-29.5 87t-77.5 34q-46 0 -76 -34.5t-30 -86.5
t30 -86.5zM135 614q22 21 50 21q26 0 48 -21.5t22 -51.5q0 -31 -22 -51.5t-48 -20.5q-28 0 -50 20.5t-22 51.5t22 52zM335 614q22 21 50 21q26 0 48 -21.5t22 -51.5q0 -31 -22 -51.5t-48 -20.5q-28 0 -50 20.5t-22 51.5t22 52zM414 764v-97h-255v97h255z" />
    <glyph glyph-name="uni0231" unicode="&#x231;" horiz-adv-x="571" 
d="M69.5 344q31.5 53 89 83.5t130.5 30.5t128.5 -30.5t85.5 -83.5t30 -120t-30 -121t-85.5 -84.5t-130.5 -30.5q-73 0 -129.5 28.5t-88 81.5t-31.5 126q0 67 31.5 120zM209 136.5q30 -34.5 76 -34.5q48 0 77.5 34t29.5 87t-29.5 87t-77.5 34q-46 0 -76 -34.5t-30 -86.5
t30 -86.5zM234.5 662.5q23.5 20.5 53.5 20.5q29 0 52 -20.5t23 -50.5t-23 -50t-52 -20q-30 0 -53.5 20t-23.5 50t23.5 50.5zM414 812v-97h-255v97h255z" />
    <glyph glyph-name="uni1ECD" unicode="&#x1ecd;" horiz-adv-x="571" 
d="M69.5 344q31.5 53 89 83.5t130.5 30.5t128.5 -30.5t85.5 -83.5t30 -120t-30 -121t-85.5 -84.5t-130.5 -30.5q-73 0 -129.5 28.5t-88 81.5t-31.5 126q0 67 31.5 120zM209 136.5q30 -34.5 76 -34.5q48 0 77.5 34t29.5 87t-29.5 87t-77.5 34q-46 0 -76 -34.5t-30 -86.5
t30 -86.5zM242 -67.5q20 16.5 44 16.5t43 -16.5t19 -41.5t-19 -41.5t-43 -16.5q-25 0 -44.5 16.5t-19.5 41.5t20 41.5z" />
    <glyph glyph-name="ograve" unicode="&#xf2;" horiz-adv-x="571" 
d="M69.5 344q31.5 53 89 83.5t130.5 30.5t128.5 -30.5t85.5 -83.5t30 -120t-30 -121t-85.5 -84.5t-130.5 -30.5q-73 0 -129.5 28.5t-88 81.5t-31.5 126q0 67 31.5 120zM209 136.5q30 -34.5 76 -34.5q48 0 77.5 34t29.5 87t-29.5 87t-77.5 34q-46 0 -76 -34.5t-30 -86.5
t30 -86.5zM265 644l62 -135h-85l-132 135h155z" />
    <glyph glyph-name="uni1ECF" unicode="&#x1ecf;" horiz-adv-x="571" 
d="M69.5 344q31.5 53 89 83.5t130.5 30.5t128.5 -30.5t85.5 -83.5t30 -120t-30 -121t-85.5 -84.5t-130.5 -30.5q-73 0 -129.5 28.5t-88 81.5t-31.5 126q0 67 31.5 120zM209 136.5q30 -34.5 76 -34.5q48 0 77.5 34t29.5 87t-29.5 87t-77.5 34q-46 0 -76 -34.5t-30 -86.5
t30 -86.5zM286.5 565.5q9.5 11.5 9.5 27.5q0 33 -29 33q-13 0 -23 -7.5t-16 -19.5l-50 30q17 35 46 53.5t62 18.5q43 0 65 -26.5t22 -61.5q0 -36 -23.5 -62.5t-63.5 -47.5l-29 37q20 14 29.5 25.5z" />
    <glyph glyph-name="ohorn" unicode="&#x1a1;" horiz-adv-x="571" 
d="M480 378q26 -30 39.5 -69.5t13.5 -84.5q0 -67 -30 -121t-85.5 -84.5t-130.5 -30.5q-73 0 -129.5 28.5t-88 81.5t-31.5 126q0 67 31.5 120t89 83.5t130.5 30.5q58 0 105 -19q52 10 67 84h103q-18 -106 -84 -145zM362.5 136q29.5 34 29.5 87t-29.5 87t-77.5 34
q-46 0 -76 -34.5t-30 -86.5t30 -86.5t76 -34.5q48 0 77.5 34z" />
    <glyph glyph-name="uni1EDB" unicode="&#x1edb;" horiz-adv-x="571" 
d="M480 378q26 -30 39.5 -69.5t13.5 -84.5q0 -67 -30 -121t-85.5 -84.5t-130.5 -30.5q-73 0 -129.5 28.5t-88 81.5t-31.5 126q0 67 31.5 120t89 83.5t130.5 30.5q58 0 105 -19q52 10 67 84h103q-18 -106 -84 -145zM362.5 136q29.5 34 29.5 87t-29.5 87t-77.5 34
q-46 0 -76 -34.5t-30 -86.5t30 -86.5t76 -34.5q48 0 77.5 34zM334 509h-85l78 135h155z" />
    <glyph glyph-name="uni1EE3" unicode="&#x1ee3;" horiz-adv-x="571" 
d="M480 378q26 -30 39.5 -69.5t13.5 -84.5q0 -67 -30 -121t-85.5 -84.5t-130.5 -30.5q-73 0 -129.5 28.5t-88 81.5t-31.5 126q0 67 31.5 120t89 83.5t130.5 30.5q58 0 105 -19q52 10 67 84h103q-18 -106 -84 -145zM362.5 136q29.5 34 29.5 87t-29.5 87t-77.5 34
q-46 0 -76 -34.5t-30 -86.5t30 -86.5t76 -34.5q48 0 77.5 34zM242 -67.5q20 16.5 44 16.5t43 -16.5t19 -41.5t-19 -41.5t-43 -16.5q-25 0 -44.5 16.5t-19.5 41.5t20 41.5z" />
    <glyph glyph-name="uni1EDD" unicode="&#x1edd;" horiz-adv-x="571" 
d="M480 378q26 -30 39.5 -69.5t13.5 -84.5q0 -67 -30 -121t-85.5 -84.5t-130.5 -30.5q-73 0 -129.5 28.5t-88 81.5t-31.5 126q0 67 31.5 120t89 83.5t130.5 30.5q58 0 105 -19q52 10 67 84h103q-18 -106 -84 -145zM362.5 136q29.5 34 29.5 87t-29.5 87t-77.5 34
q-46 0 -76 -34.5t-30 -86.5t30 -86.5t76 -34.5q48 0 77.5 34zM265 644l62 -135h-85l-132 135h155z" />
    <glyph glyph-name="uni1EDF" unicode="&#x1edf;" horiz-adv-x="571" 
d="M480 378q26 -30 39.5 -69.5t13.5 -84.5q0 -67 -30 -121t-85.5 -84.5t-130.5 -30.5q-73 0 -129.5 28.5t-88 81.5t-31.5 126q0 67 31.5 120t89 83.5t130.5 30.5q58 0 105 -19q52 10 67 84h103q-18 -106 -84 -145zM362.5 136q29.5 34 29.5 87t-29.5 87t-77.5 34
q-46 0 -76 -34.5t-30 -86.5t30 -86.5t76 -34.5q48 0 77.5 34zM286.5 565.5q9.5 11.5 9.5 27.5q0 33 -29 33q-13 0 -23 -7.5t-16 -19.5l-50 30q17 35 46 53.5t62 18.5q43 0 65 -26.5t22 -61.5q0 -36 -23.5 -62.5t-63.5 -47.5l-29 37q20 14 29.5 25.5z" />
    <glyph glyph-name="uni1EE1" unicode="&#x1ee1;" horiz-adv-x="571" 
d="M122 498q-1 6 -1 19q0 45 24 76t66 31q18 0 31 -8t36 -26q16 -14 24.5 -19.5t17.5 -5.5q21 0 21 42l-1 15h58q2 -9 2 -26q0 -43 -22.5 -71.5t-55.5 -28.5q-25 0 -42 9.5t-40 27.5q-12 10 -19.5 14.5t-16.5 4.5q-15 0 -21 -16t-4 -38h-57zM480 378q26 -30 39.5 -69.5
t13.5 -84.5q0 -67 -30 -121t-85.5 -84.5t-130.5 -30.5q-73 0 -129.5 28.5t-88 81.5t-31.5 126q0 67 31.5 120t89 83.5t130.5 30.5q58 0 105 -19q52 10 67 84h103q-18 -106 -84 -145zM362.5 136q29.5 34 29.5 87t-29.5 87t-77.5 34q-46 0 -76 -34.5t-30 -86.5t30 -86.5
t76 -34.5q48 0 77.5 34z" />
    <glyph glyph-name="ohungarumlaut" unicode="&#x151;" horiz-adv-x="571" 
d="M69.5 344q31.5 53 89 83.5t130.5 30.5t128.5 -30.5t85.5 -83.5t30 -120t-30 -121t-85.5 -84.5t-130.5 -30.5q-73 0 -129.5 28.5t-88 81.5t-31.5 126q0 67 31.5 120zM209 136.5q30 -34.5 76 -34.5q48 0 77.5 34t29.5 87t-29.5 87t-77.5 34q-46 0 -76 -34.5t-30 -86.5
t30 -86.5zM211 509h-85l78 135h155zM395 507h-85l78 135h155z" />
    <glyph glyph-name="uni020F" unicode="&#x20f;" horiz-adv-x="571" 
d="M69.5 344q31.5 53 89 83.5t130.5 30.5t128.5 -30.5t85.5 -83.5t30 -120t-30 -121t-85.5 -84.5t-130.5 -30.5q-73 0 -129.5 28.5t-88 81.5t-31.5 126q0 67 31.5 120zM209 136.5q30 -34.5 76 -34.5q48 0 77.5 34t29.5 87t-29.5 87t-77.5 34q-46 0 -76 -34.5t-30 -86.5
t30 -86.5zM400.5 631q40.5 -46 57.5 -141h-93q-10 48 -26 71t-49 23t-48.5 -23t-25.5 -71h-93q16 97 56.5 142t110.5 45t110.5 -46z" />
    <glyph glyph-name="omacron" unicode="&#x14d;" horiz-adv-x="571" 
d="M69.5 344q31.5 53 89 83.5t130.5 30.5t128.5 -30.5t85.5 -83.5t30 -120t-30 -121t-85.5 -84.5t-130.5 -30.5q-73 0 -129.5 28.5t-88 81.5t-31.5 126q0 67 31.5 120zM209 136.5q30 -34.5 76 -34.5q48 0 77.5 34t29.5 87t-29.5 87t-77.5 34q-46 0 -76 -34.5t-30 -86.5
t30 -86.5zM414 586v-97h-255v97h255z" />
    <glyph glyph-name="uni01EB" unicode="&#x1eb;" horiz-adv-x="579" 
d="M444 -85l50 -72q-23 -33 -63 -54t-82 -21q-58 0 -97 33t-39 96q0 25 12.5 49.5t36.5 42.5q-99 8 -159.5 70.5t-60.5 164.5q0 66 32 119t89 84t130 31t128.5 -30.5t85.5 -83.5t30 -120q0 -70 -35 -127t-96 -96q-44 -28 -61 -45.5t-17 -47.5q0 -20 13 -31t31 -11
q39 0 72 49zM213 136.5q30 -34.5 76 -34.5q48 0 77.5 34t29.5 87t-29.5 87t-77.5 34q-46 0 -76 -34.5t-30 -86.5t30 -86.5z" />
    <glyph glyph-name="oslash" unicode="&#xf8;" horiz-adv-x="546" 
d="M518.5 309.5q14.5 -40.5 14.5 -85.5q0 -67 -30 -121t-85.5 -84.5t-130.5 -30.5q-74 0 -130 29l-48 -54l-67 61l44 50q-48 62 -48 150q0 67 31.5 120t89 83.5t130.5 30.5q66 0 115 -24l44 50l70 -58l-40 -46q26 -30 40.5 -70.5zM184 185l136 154q-18 5 -35 5
q-46 0 -76 -34.5t-30 -86.5q0 -18 5 -38zM362.5 136q29.5 34 29.5 87q0 27 -9 51l-142 -162q22 -10 44 -10q48 0 77.5 34z" />
    <glyph glyph-name="oslashacute" unicode="&#x1ff;" horiz-adv-x="546" 
d="M518.5 309.5q14.5 -40.5 14.5 -85.5q0 -67 -30 -121t-85.5 -84.5t-130.5 -30.5q-74 0 -130 29l-48 -54l-67 61l44 50q-48 62 -48 150q0 67 31.5 120t89 83.5t130.5 30.5q66 0 115 -24l44 50l70 -58l-40 -46q26 -30 40.5 -70.5zM184 185l136 154q-18 5 -35 5
q-46 0 -76 -34.5t-30 -86.5q0 -18 5 -38zM362.5 136q29.5 34 29.5 87q0 27 -9 51l-142 -162q22 -10 44 -10q48 0 77.5 34zM321 489h-85l78 135h155z" />
    <glyph glyph-name="otilde" unicode="&#xf5;" horiz-adv-x="571" 
d="M69.5 344q31.5 53 89 83.5t130.5 30.5t128.5 -30.5t85.5 -83.5t30 -120t-30 -121t-85.5 -84.5t-130.5 -30.5q-73 0 -129.5 28.5t-88 81.5t-31.5 126q0 67 31.5 120zM209 136.5q30 -34.5 76 -34.5q48 0 77.5 34t29.5 87t-29.5 87t-77.5 34q-46 0 -76 -34.5t-30 -86.5
t30 -86.5zM314 497q-21 11 -48 33q-27 23 -44 23q-16 0 -23.5 -14.5t-7.5 -36.5l1 -14h-70q-1 7 -1 22q0 55 29 93t80 38q22 0 39.5 -10.5t42.5 -31.5q20 -17 29.5 -23.5t20.5 -6.5q29 0 25 69h70q3 -16 3 -32q0 -52 -27.5 -86t-67.5 -34q-30 0 -51 11z" />
    <glyph glyph-name="uni022D" unicode="&#x22d;" horiz-adv-x="571" 
d="M69.5 344q31.5 53 89 83.5t130.5 30.5t128.5 -30.5t85.5 -83.5t30 -120t-30 -121t-85.5 -84.5t-130.5 -30.5q-73 0 -129.5 28.5t-88 81.5t-31.5 126q0 67 31.5 120zM209 136.5q30 -34.5 76 -34.5q48 0 77.5 34t29.5 87t-29.5 87t-77.5 34q-46 0 -76 -34.5t-30 -86.5
t30 -86.5zM314 497q-21 11 -48 33q-27 23 -44 23q-16 0 -23.5 -14.5t-7.5 -36.5l1 -14h-70q-1 7 -1 22q0 55 29 93t80 38q22 0 39.5 -10.5t42.5 -31.5q20 -17 29.5 -23.5t20.5 -6.5q29 0 25 69h70q3 -16 3 -32q0 -52 -27.5 -86t-67.5 -34q-30 0 -51 11zM428 791v-97h-255v97
h255z" />
    <glyph glyph-name="oe" unicode="&#x153;" horiz-adv-x="855" 
d="M679 136l62 -104q-36 -20 -76 -32t-76 -12q-93 0 -157 43q-29 -20 -69 -31.5t-78 -11.5q-114 0 -180.5 61.5t-66.5 169.5q0 70 32.5 122.5t85.5 80t114 27.5q97 0 160 -45q70 54 162 54q94 0 154.5 -55t78.5 -157l-320 -102q32 -37 87 -37q42 0 87 29zM506 317
q-28 -32 -28 -86v-9l192 65q-21 62 -89 62q-47 0 -75 -32zM211 135.5q33 -33.5 86 -33.5q36 0 63 16q-20 48 -20 105q0 47 19 91q-36 21 -76 21q-44 0 -74.5 -33t-30.5 -83t33 -83.5z" />
    <glyph glyph-name="p" unicode="p" horiz-adv-x="624" 
d="M483 430q48 -29 75.5 -83t27.5 -127q0 -72 -30.5 -124.5t-85 -80t-124.5 -27.5q-38 0 -74.5 13.5t-60.5 38.5v-250h-139v657h120l12 -52q80 64 170 64q61 0 109 -29zM407 132q37 34 37 86q0 54 -33.5 88.5t-82.5 34.5q-41 0 -69.5 -16.5t-46.5 -49.5v-107
q11 -32 39.5 -51t66.5 -19q52 0 89 34z" />
    <glyph glyph-name="thorn" unicode="&#xfe;" horiz-adv-x="625" 
d="M486 430q48 -29 75.5 -83t27.5 -127q0 -72 -30.5 -124.5t-85 -80t-124.5 -27.5q-40 0 -75.5 13.5t-59.5 39.5v-251h-139v999h140v-388q76 58 162 58q61 0 109 -29zM409.5 132.5q37.5 34.5 37.5 85.5q0 34 -16 62.5t-42.5 44.5t-57.5 16q-41 0 -69.5 -16.5t-46.5 -49.5
v-107q11 -32 39.5 -51t66.5 -19q51 0 88.5 34.5z" />
    <glyph glyph-name="q" unicode="q" horiz-adv-x="624" 
d="M552 447v-657h-139v248q-28 -22 -71.5 -36t-95.5 -14q-57 0 -104.5 27.5t-75.5 79.5t-28 124t31 126.5t83 84t113 29.5q49 0 84 -14.5t63 -41.5v44h140zM412 275q-18 33 -46.5 49.5t-69.5 16.5q-31 0 -57.5 -16t-42.5 -44.5t-16 -62.5q0 -51 34.5 -85.5t81.5 -34.5
q42 0 73 19t43 51v107z" />
    <glyph glyph-name="r" unicode="r" horiz-adv-x="410" 
d="M258.5 400q31.5 28 64.5 43.5t52 15.5l-7 -140q-6 1 -17 1q-42 0 -74 -22t-49 -56.5t-17 -70.5v-171h-139v437h126l11 -100q18 35 49.5 63z" />
    <glyph glyph-name="racute" unicode="&#x155;" horiz-adv-x="410" 
d="M258.5 400q31.5 28 64.5 43.5t52 15.5l-7 -140q-6 1 -17 1q-42 0 -74 -22t-49 -56.5t-17 -70.5v-171h-139v437h126l11 -100q18 35 49.5 63zM242 489h-85l78 135h155z" />
    <glyph glyph-name="rcaron" unicode="&#x159;" horiz-adv-x="410" 
d="M258.5 400q31.5 28 64.5 43.5t52 15.5l-7 -140q-6 1 -17 1q-42 0 -74 -22t-49 -56.5t-17 -70.5v-171h-139v437h126l11 -100q18 35 49.5 63zM392 673l-185 -184h-1l-189 184h126l65 -62l58 62h126z" />
    <glyph glyph-name="rcommaaccent" unicode="&#x157;" horiz-adv-x="410" 
d="M258.5 400q31.5 28 64.5 43.5t52 15.5l-7 -140q-6 1 -17 1q-42 0 -74 -22t-49 -56.5t-17 -70.5v-171h-139v437h126l11 -100q18 35 49.5 63zM31 -166q17 16 27 46t10 61q0 15 -3 30l122 -1q2 -14 2 -22q0 -43 -24 -90t-62 -72z" />
    <glyph glyph-name="uni0211" unicode="&#x211;" horiz-adv-x="410" 
d="M258.5 400q31.5 28 64.5 43.5t52 15.5l-7 -140q-6 1 -17 1q-42 0 -74 -22t-49 -56.5t-17 -70.5v-171h-139v437h126l11 -100q18 35 49.5 63zM99 624l62 -135h-85l-132 135h155zM269 624l62 -135h-85l-132 135h155z" />
    <glyph glyph-name="uni0213" unicode="&#x213;" horiz-adv-x="410" 
d="M258.5 400q31.5 28 64.5 43.5t52 15.5l-7 -140q-6 1 -17 1q-42 0 -74 -22t-49 -56.5t-17 -70.5v-171h-139v437h126l11 -100q18 35 49.5 63zM308.5 611q40.5 -46 57.5 -141h-93q-10 48 -26 71t-49 23t-48.5 -23t-25.5 -71h-93q16 97 56.5 142t110.5 45t110.5 -46z" />
    <glyph glyph-name="s" unicode="s" horiz-adv-x="447" 
d="M113 10q-47 19 -78 53l58 77q58 -54 109 -54q27 0 43.5 8.5t16.5 25.5q0 20 -19 30.5t-42.5 17.5t-31.5 9q-57 18 -85 53.5t-28 81.5q0 35 18.5 68.5t57.5 55t97 21.5q54 0 92 -11t73 -36l-53 -82q-20 16 -44.5 26.5t-44.5 10.5q-24 0 -39 -10t-15 -24q-1 -21 17.5 -31.5
t57.5 -21.5l12.5 -4l13.5 -4q103 -34 103 -124q0 -42 -21 -77t-63.5 -56.5t-103.5 -21.5q-54 0 -101 19z" />
    <glyph glyph-name="sacute" unicode="&#x15b;" horiz-adv-x="447" 
d="M113 10q-47 19 -78 53l58 77q58 -54 109 -54q27 0 43.5 8.5t16.5 25.5q0 20 -19 30.5t-42.5 17.5t-31.5 9q-57 18 -85 53.5t-28 81.5q0 35 18.5 68.5t57.5 55t97 21.5q54 0 92 -11t73 -36l-53 -82q-20 16 -44.5 26.5t-44.5 10.5q-24 0 -39 -10t-15 -24q-1 -21 17.5 -31.5
t57.5 -21.5l12.5 -4l13.5 -4q103 -34 103 -124q0 -42 -21 -77t-63.5 -56.5t-103.5 -21.5q-54 0 -101 19zM273 499h-85l78 135h155z" />
    <glyph glyph-name="scaron" unicode="&#x161;" horiz-adv-x="447" 
d="M113 10q-47 19 -78 53l58 77q58 -54 109 -54q27 0 43.5 8.5t16.5 25.5q0 20 -19 30.5t-42.5 17.5t-31.5 9q-57 18 -85 53.5t-28 81.5q0 35 18.5 68.5t57.5 55t97 21.5q54 0 92 -11t73 -36l-53 -82q-20 16 -44.5 26.5t-44.5 10.5q-24 0 -39 -10t-15 -24q-1 -21 17.5 -31.5
t57.5 -21.5l12.5 -4l13.5 -4q103 -34 103 -124q0 -42 -21 -77t-63.5 -56.5t-103.5 -21.5q-54 0 -101 19zM423 683l-185 -184h-1l-189 184h126l65 -62l58 62h126z" />
    <glyph glyph-name="scedilla" unicode="&#x15f;" horiz-adv-x="447" 
d="M336.5 -70.5q31.5 -23.5 31.5 -64.5q0 -54 -45.5 -82.5t-110.5 -28.5q-74 0 -117 45l43 55q10 -12 26 -19.5t34 -7.5q19 0 36.5 9.5t17.5 26.5q0 33 -53 33q-20 0 -60 -11l-19 66l57 42q-89 12 -142 70l58 77q58 -54 109 -54q27 0 43.5 8.5t16.5 25.5q0 20 -19 30.5
t-42.5 17.5t-31.5 9q-57 18 -85 53.5t-28 81.5q0 35 18.5 68.5t57.5 55t97 21.5q54 0 92 -11t73 -36l-53 -82q-20 16 -44.5 26.5t-44.5 10.5q-24 0 -39 -10t-15 -24q-1 -21 17.5 -31.5t57.5 -21.5l12.5 -4l13.5 -4q103 -34 103 -124q0 -49 -28.5 -88t-82.5 -56h5l-41 -46
q50 -3 81.5 -26.5z" />
    <glyph glyph-name="scircumflex" unicode="&#x15d;" horiz-adv-x="447" 
d="M113 10q-47 19 -78 53l58 77q58 -54 109 -54q27 0 43.5 8.5t16.5 25.5q0 20 -19 30.5t-42.5 17.5t-31.5 9q-57 18 -85 53.5t-28 81.5q0 35 18.5 68.5t57.5 55t97 21.5q54 0 92 -11t73 -36l-53 -82q-20 16 -44.5 26.5t-44.5 10.5q-24 0 -39 -10t-15 -24q-1 -21 17.5 -31.5
t57.5 -21.5l12.5 -4l13.5 -4q103 -34 103 -124q0 -42 -21 -77t-63.5 -56.5t-103.5 -21.5q-54 0 -101 19zM285 499l-65 62l-58 -62h-126l185 184h1l189 -184h-126z" />
    <glyph glyph-name="scommaaccent" unicode="&#x219;" horiz-adv-x="447" 
d="M113 10q-47 19 -78 53l58 77q58 -54 109 -54q27 0 43.5 8.5t16.5 25.5q0 20 -19 30.5t-42.5 17.5t-31.5 9q-57 18 -85 53.5t-28 81.5q0 35 18.5 68.5t57.5 55t97 21.5q54 0 92 -11t73 -36l-53 -82q-20 16 -44.5 26.5t-44.5 10.5q-24 0 -39 -10t-15 -24q-1 -21 17.5 -31.5
t57.5 -21.5l12.5 -4l13.5 -4q103 -34 103 -124q0 -42 -21 -77t-63.5 -56.5t-103.5 -21.5q-54 0 -101 19zM123 -176q17 16 27 46t10 61q0 15 -3 30l122 -1q2 -14 2 -22q0 -43 -24 -90t-62 -72z" />
    <glyph glyph-name="germandbls" unicode="&#xdf;" horiz-adv-x="626" 
d="M135.5 574q30.5 46 80.5 71t109 25q67 0 116 -18.5t74.5 -51t25.5 -73.5q0 -42 -16 -76.5t-48 -52.5q51 -25 77.5 -71t26.5 -130q0 -104 -52 -155.5t-143 -51.5q-44 0 -75 12t-43 27l54 84q13 -11 24.5 -15t25.5 -4q37 0 52.5 29.5t15.5 81.5q0 61 -22.5 92t-65.5 29h-6
l-1 121q25 0 40 13.5t15 35.5q0 30 -18 45t-52 15q-48 0 -66.5 -33t-18.5 -104v-419h-140v327h-65v114h65v27q0 60 30.5 106z" />
    <glyph glyph-name="t" unicode="t" horiz-adv-x="394" 
d="M253 629v-190h106v-109h-106v-330h-140v330h-68v109h68v190h140z" />
    <glyph glyph-name="tbar" unicode="&#x167;" horiz-adv-x="394" 
d="M253 330v-79h87v-130h-87v-121h-140v121h-88v130h88v79h-68v109h68v190h140v-190h106v-109h-106z" />
    <glyph glyph-name="tcaron" unicode="&#x165;" horiz-adv-x="394" 
d="M253 629v-190h106v-109h-106v-330h-140v330h-68v109h68v190h140zM283 553q17 16 27 46t10 61q0 15 -3 30l122 -1q2 -14 2 -22q0 -43 -24 -90t-62 -72z" />
    <glyph glyph-name="uni0163" unicode="&#x163;" horiz-adv-x="394" 
d="M242 0l-30 -34q50 -3 81.5 -26.5t31.5 -64.5q0 -54 -45.5 -82.5t-110.5 -28.5q-74 0 -117 45l43 55q10 -12 26 -19.5t34 -7.5q19 0 36.5 9.5t17.5 26.5q0 33 -53 33q-20 0 -60 -11l-19 66l53 39h-17v330h-68v109h68v190h140v-190h106v-109h-106v-330h-11z" />
    <glyph glyph-name="uni021B" unicode="&#x21b;" horiz-adv-x="394" 
d="M253 629v-190h106v-109h-106v-330h-140v330h-68v109h68v190h140zM80 -166q17 16 27 46t10 61q0 15 -3 30l122 -1q2 -14 2 -22q0 -43 -24 -90t-62 -72z" />
    <glyph glyph-name="u" unicode="u" horiz-adv-x="584" 
d="M512 437v-437h-127l-10 70q-23 -42 -64.5 -66.5t-97.5 -24.5q-60 0 -100 37t-41 94v327h140v-275q3 -64 59 -64q46 0 73.5 45t27.5 116v178h140z" />
    <glyph glyph-name="uacute" unicode="&#xfa;" horiz-adv-x="584" 
d="M512 437v-437h-127l-10 70q-23 -42 -64.5 -66.5t-97.5 -24.5q-60 0 -100 37t-41 94v327h140v-275q3 -64 59 -64q46 0 73.5 45t27.5 116v178h140zM342 509h-85l78 135h155z" />
    <glyph glyph-name="ubreve" unicode="&#x16d;" horiz-adv-x="584" 
d="M512 437v-437h-127l-10 70q-23 -42 -64.5 -66.5t-97.5 -24.5q-60 0 -100 37t-41 94v327h140v-275q3 -64 59 -64q46 0 73.5 45t27.5 116v178h140zM187.5 536q-40.5 46 -57.5 141h93q10 -48 26 -71t49 -23t48.5 23t25.5 71h93q-16 -97 -56.5 -142t-110.5 -45t-110.5 46z
" />
    <glyph glyph-name="ucircumflex" unicode="&#xfb;" horiz-adv-x="584" 
d="M512 437v-437h-127l-10 70q-23 -42 -64.5 -66.5t-97.5 -24.5q-60 0 -100 37t-41 94v327h140v-275q3 -64 59 -64q46 0 73.5 45t27.5 116v178h140zM354 509l-65 62l-58 -62h-126l185 184h1l189 -184h-126z" />
    <glyph glyph-name="uni0215" unicode="&#x215;" horiz-adv-x="584" 
d="M512 437v-437h-127l-10 70q-23 -42 -64.5 -66.5t-97.5 -24.5q-60 0 -100 37t-41 94v327h140v-275q3 -64 59 -64q46 0 73.5 45t27.5 116v178h140zM199 644l62 -135h-85l-132 135h155zM369 644l62 -135h-85l-132 135h155z" />
    <glyph glyph-name="udieresis" unicode="&#xfc;" horiz-adv-x="584" 
d="M512 437v-437h-127l-10 70q-23 -42 -64.5 -66.5t-97.5 -24.5q-60 0 -100 37t-41 94v327h140v-275q3 -64 59 -64q46 0 73.5 45t27.5 116v178h140zM143 614q22 21 50 21q26 0 48 -21.5t22 -51.5q0 -31 -22 -51.5t-48 -20.5q-28 0 -50 20.5t-22 51.5t22 52zM343 614
q22 21 50 21q26 0 48 -21.5t22 -51.5q0 -31 -22 -51.5t-48 -20.5q-28 0 -50 20.5t-22 51.5t22 52z" />
    <glyph glyph-name="uni1EE5" unicode="&#x1ee5;" horiz-adv-x="584" 
d="M512 437v-437h-127l-10 70q-23 -42 -64.5 -66.5t-97.5 -24.5q-60 0 -100 37t-41 94v327h140v-275q3 -64 59 -64q46 0 73.5 45t27.5 116v178h140zM248 -67.5q20 16.5 44 16.5t43 -16.5t19 -41.5t-19 -41.5t-43 -16.5q-25 0 -44.5 16.5t-19.5 41.5t20 41.5z" />
    <glyph glyph-name="ugrave" unicode="&#xf9;" horiz-adv-x="584" 
d="M512 437v-437h-127l-10 70q-23 -42 -64.5 -66.5t-97.5 -24.5q-60 0 -100 37t-41 94v327h140v-275q3 -64 59 -64q46 0 73.5 45t27.5 116v178h140zM273 644l62 -135h-85l-132 135h155z" />
    <glyph glyph-name="uni1EE7" unicode="&#x1ee7;" horiz-adv-x="584" 
d="M512 437v-437h-127l-10 70q-23 -42 -64.5 -66.5t-97.5 -24.5q-60 0 -100 37t-41 94v327h140v-275q3 -64 59 -64q46 0 73.5 45t27.5 116v178h140zM294.5 565.5q9.5 11.5 9.5 27.5q0 33 -29 33q-13 0 -23 -7.5t-16 -19.5l-50 30q17 35 46 53.5t62 18.5q43 0 65 -26.5
t22 -61.5q0 -36 -23.5 -62.5t-63.5 -47.5l-29 37q20 14 29.5 25.5z" />
    <glyph glyph-name="uhorn" unicode="&#x1b0;" horiz-adv-x="584" 
d="M512 366v-366h-127l-10 70q-23 -42 -64.5 -66.5t-97.5 -24.5q-60 0 -100 37t-41 94v327h140v-275q3 -64 59 -64q46 0 73.5 45t27.5 116v178h61q35 0 55.5 21.5t29.5 64.5h103q-21 -124 -109 -157z" />
    <glyph glyph-name="uni1EE9" unicode="&#x1ee9;" horiz-adv-x="584" 
d="M512 366v-366h-127l-10 70q-23 -42 -64.5 -66.5t-97.5 -24.5q-60 0 -100 37t-41 94v327h140v-275q3 -64 59 -64q46 0 73.5 45t27.5 116v178h61q35 0 55.5 21.5t29.5 64.5h103q-21 -124 -109 -157zM342 509h-85l78 135h155z" />
    <glyph glyph-name="uni1EF1" unicode="&#x1ef1;" horiz-adv-x="584" 
d="M512 366v-366h-127l-10 70q-23 -42 -64.5 -66.5t-97.5 -24.5q-60 0 -100 37t-41 94v327h140v-275q3 -64 59 -64q46 0 73.5 45t27.5 116v178h61q35 0 55.5 21.5t29.5 64.5h103q-21 -124 -109 -157zM248 -67.5q20 16.5 44 16.5t43 -16.5t19 -41.5t-19 -41.5t-43 -16.5
q-25 0 -44.5 16.5t-19.5 41.5t20 41.5z" />
    <glyph glyph-name="uni1EEB" unicode="&#x1eeb;" horiz-adv-x="584" 
d="M512 366v-366h-127l-10 70q-23 -42 -64.5 -66.5t-97.5 -24.5q-60 0 -100 37t-41 94v327h140v-275q3 -64 59 -64q46 0 73.5 45t27.5 116v178h61q35 0 55.5 21.5t29.5 64.5h103q-21 -124 -109 -157zM273 644l62 -135h-85l-132 135h155z" />
    <glyph glyph-name="uni1EED" unicode="&#x1eed;" horiz-adv-x="584" 
d="M512 366v-366h-127l-10 70q-23 -42 -64.5 -66.5t-97.5 -24.5q-60 0 -100 37t-41 94v327h140v-275q3 -64 59 -64q46 0 73.5 45t27.5 116v178h61q35 0 55.5 21.5t29.5 64.5h103q-21 -124 -109 -157zM294.5 565.5q9.5 11.5 9.5 27.5q0 33 -29 33q-13 0 -23 -7.5t-16 -19.5
l-50 30q17 35 46 53.5t62 18.5q43 0 65 -26.5t22 -61.5q0 -36 -23.5 -62.5t-63.5 -47.5l-29 37q20 14 29.5 25.5z" />
    <glyph glyph-name="uni1EEF" unicode="&#x1eef;" horiz-adv-x="584" 
d="M512 366v-366h-127l-10 70q-23 -42 -64.5 -66.5t-97.5 -24.5q-60 0 -100 37t-41 94v327h140v-275q3 -64 59 -64q46 0 73.5 45t27.5 116v178h61q35 0 55.5 21.5t29.5 64.5h103q-21 -124 -109 -157zM322 497q-21 11 -48 33q-27 23 -44 23q-16 0 -23.5 -14.5t-7.5 -36.5
l1 -14h-70q-1 7 -1 22q0 55 29 93t80 38q22 0 39.5 -10.5t42.5 -31.5q20 -17 29.5 -23.5t20.5 -6.5q29 0 25 69h70q3 -16 3 -32q0 -52 -27.5 -86t-67.5 -34q-30 0 -51 11z" />
    <glyph glyph-name="uhungarumlaut" unicode="&#x171;" horiz-adv-x="584" 
d="M512 437v-437h-127l-10 70q-23 -42 -64.5 -66.5t-97.5 -24.5q-60 0 -100 37t-41 94v327h140v-275q3 -64 59 -64q46 0 73.5 45t27.5 116v178h140zM219 509h-85l78 135h155zM403 507h-85l78 135h155z" />
    <glyph glyph-name="uni0217" unicode="&#x217;" horiz-adv-x="584" 
d="M512 437v-437h-127l-10 70q-23 -42 -64.5 -66.5t-97.5 -24.5q-60 0 -100 37t-41 94v327h140v-275q3 -64 59 -64q46 0 73.5 45t27.5 116v178h140zM408.5 631q40.5 -46 57.5 -141h-93q-10 48 -26 71t-49 23t-48.5 -23t-25.5 -71h-93q16 97 56.5 142t110.5 45t110.5 -46z
" />
    <glyph glyph-name="umacron" unicode="&#x16b;" horiz-adv-x="584" 
d="M512 437v-437h-127l-10 70q-23 -42 -64.5 -66.5t-97.5 -24.5q-60 0 -100 37t-41 94v327h140v-275q3 -64 59 -64q46 0 73.5 45t27.5 116v178h140zM422 586v-97h-255v97h255z" />
    <glyph glyph-name="uogonek" unicode="&#x173;" horiz-adv-x="590" 
d="M584 -157q-22 -33 -61 -54t-74 -21q-63 0 -104.5 35.5t-41.5 93.5q0 34 21.5 64.5t59.5 46.5l-9 62q-23 -42 -64.5 -66.5t-97.5 -24.5q-60 0 -100 37t-41 94v327h140v-275q3 -64 59 -64q46 0 73.5 45t27.5 116v178h140v-436l3 -1q-50 -21 -73.5 -41t-23.5 -51
q0 -42 44 -42q39 0 72 49z" />
    <glyph glyph-name="uring" unicode="&#x16f;" horiz-adv-x="584" 
d="M512 437v-437h-127l-10 70q-23 -42 -64.5 -66.5t-97.5 -24.5q-60 0 -100 37t-41 94v327h140v-275q3 -64 59 -64q46 0 73.5 45t27.5 116v178h140zM199.5 661.5q31.5 28.5 80.5 28.5q48 0 79.5 -28.5t31.5 -75.5t-31.5 -76t-79.5 -29q-49 0 -80.5 29t-31.5 76t31.5 75.5z
M251.5 554q10.5 -11 28.5 -11t28.5 11t10.5 30q0 21 -10.5 31.5t-28.5 10.5t-28.5 -10.5t-10.5 -31.5q0 -19 10.5 -30z" />
    <glyph glyph-name="utilde" unicode="&#x169;" horiz-adv-x="584" 
d="M512 437v-437h-127l-10 70q-23 -42 -64.5 -66.5t-97.5 -24.5q-60 0 -100 37t-41 94v327h140v-275q3 -64 59 -64q46 0 73.5 45t27.5 116v178h140zM322 497q-21 11 -48 33q-27 23 -44 23q-16 0 -23.5 -14.5t-7.5 -36.5l1 -14h-70q-1 7 -1 22q0 55 29 93t80 38
q22 0 39.5 -10.5t42.5 -31.5q20 -17 29.5 -23.5t20.5 -6.5q29 0 25 69h70q3 -16 3 -32q0 -52 -27.5 -86t-67.5 -34q-30 0 -51 11z" />
    <glyph glyph-name="v" unicode="v" horiz-adv-x="534" 
d="M524 437l-248 -446h-4l-262 446h166l102 -208l90 208h156z" />
    <glyph glyph-name="w" unicode="w" horiz-adv-x="684" 
d="M674 437l-197 -463l-140 290l-128 -290l-199 463h136l81 -185l61 135l-23 50h119l82 -193l72 193h136z" />
    <glyph glyph-name="wacute" unicode="&#x1e83;" horiz-adv-x="684" 
d="M674 437l-197 -463l-140 290l-128 -290l-199 463h136l81 -185l61 135l-23 50h119l82 -193l72 193h136zM390 489h-85l78 135h155z" />
    <glyph glyph-name="wcircumflex" unicode="&#x175;" horiz-adv-x="684" 
d="M674 437l-197 -463l-140 290l-128 -290l-199 463h136l81 -185l61 135l-23 50h119l82 -193l72 193h136zM402 489l-65 62l-58 -62h-126l185 184h1l189 -184h-126z" />
    <glyph glyph-name="wdieresis" unicode="&#x1e85;" horiz-adv-x="684" 
d="M674 437l-197 -463l-140 290l-128 -290l-199 463h136l81 -185l61 135l-23 50h119l82 -193l72 193h136zM191 594q22 21 50 21q26 0 48 -21.5t22 -51.5q0 -31 -22 -51.5t-48 -20.5q-28 0 -50 20.5t-22 51.5t22 52zM391 594q22 21 50 21q26 0 48 -21.5t22 -51.5
q0 -31 -22 -51.5t-48 -20.5q-28 0 -50 20.5t-22 51.5t22 52z" />
    <glyph glyph-name="wgrave" unicode="&#x1e81;" horiz-adv-x="684" 
d="M674 437l-197 -463l-140 290l-128 -290l-199 463h136l81 -185l61 135l-23 50h119l82 -193l72 193h136zM321 624l62 -135h-85l-132 135h155z" />
    <glyph glyph-name="x" unicode="x" horiz-adv-x="526" 
d="M347 0l-101 131l-92 -131h-139l162 220l-167 217h172l96 -126l75 126h139l-150 -209l174 -228h-169z" />
    <glyph glyph-name="y" unicode="y" horiz-adv-x="534" 
d="M524 437l-282 -647h-135l105 233l-202 414h157l115 -258l116 258h126z" />
    <glyph glyph-name="yacute" unicode="&#xfd;" horiz-adv-x="534" 
d="M524 437l-282 -647h-135l105 233l-202 414h157l115 -258l116 258h126zM325 489h-85l78 135h155z" />
    <glyph glyph-name="ycircumflex" unicode="&#x177;" horiz-adv-x="534" 
d="M524 437l-282 -647h-135l105 233l-202 414h157l115 -258l116 258h126zM337 489l-65 62l-58 -62h-126l185 184h1l189 -184h-126z" />
    <glyph glyph-name="ydieresis" unicode="&#xff;" horiz-adv-x="534" 
d="M524 437l-282 -647h-135l105 233l-202 414h157l115 -258l116 258h126zM126 594q22 21 50 21q26 0 48 -21.5t22 -51.5q0 -31 -22 -51.5t-48 -20.5q-28 0 -50 20.5t-22 51.5t22 52zM326 594q22 21 50 21q26 0 48 -21.5t22 -51.5q0 -31 -22 -51.5t-48 -20.5q-28 0 -50 20.5
t-22 51.5t22 52z" />
    <glyph glyph-name="uni1EF5" unicode="&#x1ef5;" horiz-adv-x="534" 
d="M524 437l-282 -647h-135l105 233l-202 414h157l115 -258l116 258h126zM393 -77.5q20 16.5 44 16.5t43 -16.5t19 -41.5t-19 -41.5t-43 -16.5q-25 0 -44.5 16.5t-19.5 41.5t20 41.5z" />
    <glyph glyph-name="ygrave" unicode="&#x1ef3;" horiz-adv-x="534" 
d="M524 437l-282 -647h-135l105 233l-202 414h157l115 -258l116 258h126zM256 624l62 -135h-85l-132 135h155z" />
    <glyph glyph-name="uni1EF7" unicode="&#x1ef7;" horiz-adv-x="534" 
d="M524 437l-282 -647h-135l105 233l-202 414h157l115 -258l116 258h126zM277.5 545.5q9.5 11.5 9.5 27.5q0 33 -29 33q-13 0 -23 -7.5t-16 -19.5l-50 30q17 35 46 53.5t62 18.5q43 0 65 -26.5t22 -61.5q0 -36 -23.5 -62.5t-63.5 -47.5l-29 37q20 14 29.5 25.5z" />
    <glyph glyph-name="uni0233" unicode="&#x233;" horiz-adv-x="534" 
d="M524 437l-282 -647h-135l105 233l-202 414h157l115 -258l116 258h126zM405 566v-97h-255v97h255z" />
    <glyph glyph-name="uni1EF9" unicode="&#x1ef9;" horiz-adv-x="534" 
d="M524 437l-282 -647h-135l105 233l-202 414h157l115 -258l116 258h126zM305 477q-21 11 -48 33q-27 23 -44 23q-16 0 -23.5 -14.5t-7.5 -36.5l1 -14h-70q-1 7 -1 22q0 55 29 93t80 38q22 0 39.5 -10.5t42.5 -31.5q20 -17 29.5 -23.5t20.5 -6.5q29 0 25 69h70q3 -16 3 -32
q0 -52 -27.5 -86t-67.5 -34q-30 0 -51 11z" />
    <glyph glyph-name="z" unicode="z" horiz-adv-x="522" 
d="M244 114h219v-114h-443l222 323h-102q-37 0 -63.5 26.5t-26.5 69.5v60h105v-14q0 -20 6.5 -24t27.5 -4h277z" />
    <glyph glyph-name="zacute" unicode="&#x17a;" horiz-adv-x="522" 
d="M244 114h219v-114h-443l222 323h-102q-37 0 -63.5 26.5t-26.5 69.5v60h105v-14q0 -20 6.5 -24t27.5 -4h277zM309 489h-85l78 135h155z" />
    <glyph glyph-name="zcaron" unicode="&#x17e;" horiz-adv-x="522" 
d="M244 114h219v-114h-443l222 323h-102q-37 0 -63.5 26.5t-26.5 69.5v60h105v-14q0 -20 6.5 -24t27.5 -4h277zM459 673l-185 -184h-1l-189 184h126l65 -62l58 62h126z" />
    <glyph glyph-name="zdotaccent" unicode="&#x17c;" horiz-adv-x="522" 
d="M244 114h219v-114h-443l222 323h-102q-37 0 -63.5 26.5t-26.5 69.5v60h105v-14q0 -20 6.5 -24t27.5 -4h277zM209.5 642.5q23.5 20.5 53.5 20.5q29 0 52 -20.5t23 -50.5t-23 -50t-52 -20q-30 0 -53.5 20t-23.5 50t23.5 50.5z" />
    <glyph glyph-name="f_f_ij" horiz-adv-x="1222" 
d="M566 439h132v-124h-132v-315h-140v315h-172v-315h-140v315h-74v124h74v152q0 88 50.5 141.5t142.5 53.5q30 0 64 -9t59 -27l-59 -101q-18 22 -49 22t-49.5 -21t-18.5 -63v-148h172v152q0 88 50.5 141.5t142.5 53.5q30 0 64 -9t59 -27l-59 -101q-18 22 -49 22t-49.5 -21
t-18.5 -63v-148zM860 642.5q23 -20.5 23 -50.5t-23 -50t-52 -20q-30 0 -53.5 20t-23.5 50t23.5 50.5t53.5 20.5q29 0 52 -20.5zM1017.5 542q-23.5 20 -23.5 50t23.5 50.5t53.5 20.5q29 0 52 -20.5t23 -50.5t-23 -50t-52 -20q-30 0 -53.5 20zM734 437h140v-437h-140v437z
M999 437h140v-437q0 -80 -28.5 -131t-93.5 -80l-81 87q63 46 63 132v429z" />
    <glyph glyph-name="f_ij" horiz-adv-x="910" 
d="M114 315h-74v124h74v152q0 88 50.5 141.5t142.5 53.5q30 0 64 -9t59 -27l-59 -101q-18 22 -49 22t-49.5 -21t-18.5 -63v-148h132v-124h-132v-315h-140v315zM562 437v-437h-140v437h140zM442.5 642.5q23.5 20.5 53.5 20.5q29 0 52 -20.5t23 -50.5t-23 -50t-52 -20
q-30 0 -53.5 20t-23.5 50t23.5 50.5zM624 -124q63 46 63 132v429h140v-437q0 -80 -28.5 -131t-93.5 -80zM705.5 642.5q23.5 20.5 53.5 20.5q29 0 52 -20.5t23 -50.5t-23 -50t-52 -20q-30 0 -53.5 20t-23.5 50t23.5 50.5z" />
    <glyph glyph-name="ordfeminine" unicode="&#xaa;" horiz-adv-x="389" 
d="M339 724v-290h-106v31q-35 -38 -83 -38q-56 0 -90.5 38.5t-34.5 113.5q0 46 17 82t45 55.5t60 19.5q33 0 52.5 -10t34.5 -28l5 26h100zM213 521.5q11 9.5 20 28.5v61q-13 40 -50 40q-22 0 -36.5 -19t-14.5 -49t15.5 -50.5t37.5 -20.5q17 0 28 9.5z" />
    <glyph glyph-name="ordmasculine" unicode="&#xba;" horiz-adv-x="373" 
d="M70.5 691.5q45.5 43.5 117.5 43.5q73 0 116.5 -43t43.5 -111t-43.5 -111.5t-117.5 -43.5q-72 0 -117 41.5t-45 113.5q0 67 45.5 110.5zM148.5 536q15.5 -18 37.5 -18q24 0 39 17.5t15 44.5t-15 45t-39 18q-23 0 -38 -18t-15 -45q0 -26 15.5 -44z" />
    <glyph glyph-name="uni0394" unicode="&#x394;" horiz-adv-x="734" 
d="M722 0h-710l355 765h5zM370 450l-145 -310h287z" />
    <glyph glyph-name="uni03BC" unicode="&#x3bc;" horiz-adv-x="584" 
d="M512 437v-437h-127l-10 70q-23 -42 -64.5 -66.5t-97.5 -24.5q-10 0 -15 1v-217h-126v674h140v-275q3 -64 59 -64q46 0 73.5 45t27.5 116v178h140z" />
    <glyph glyph-name="pi" unicode="&#x3c0;" horiz-adv-x="444" 
d="M431 368v-121h-63v-247h-124v247h-52v-247h-125v247h-58v121h422z" />
    <glyph glyph-name="zero" unicode="0" horiz-adv-x="628" 
d="M172 35.5q-63 37.5 -100 113t-37 186.5q0 338 279 336q79 1 142 -36.5t100 -113t37 -186.5q0 -114 -37 -189.5t-100 -111.5t-142 -35q-79 -1 -142 36.5zM412.5 192q29.5 54 29.5 147q0 192 -129 192q-69 0 -98 -52t-29 -143q0 -92 29 -145t98 -53q70 0 99.5 54z" />
    <glyph glyph-name="one" unicode="1" horiz-adv-x="344" 
d="M249 663v-663h-146v523h-53v140h199z" />
    <glyph glyph-name="two" unicode="2" horiz-adv-x="583" 
d="M533 140v-140h-479l54 54q94 96 145.5 154t86 117.5t34.5 113.5q0 42 -28 67t-74 25q-44 0 -70 -23t-26 -52q0 -59 39 -100l-89 -81q-27 13 -48 45t-32 69t-11 63q0 56 31 106.5t90.5 81.5t140.5 31q66 0 118 -30.5t81 -81.5t29 -108q0 -53 -20.5 -104t-52 -96.5
t-83.5 -110.5h164z" />
    <glyph glyph-name="three" unicode="3" horiz-adv-x="527" 
d="M429 360q38 -48 38 -139q0 -70 -33 -122t-87 -79.5t-118 -27.5q-50 0 -103.5 21t-85.5 54l74 120q17 -21 48 -38t63 -17q36 0 64 26.5t28 71.5q0 44 -25 70t-68 26q-27 0 -42 -2t-34 -7l-3 4l108 202h-158v140h361l-126 -242q61 -13 99 -61z" />
    <glyph glyph-name="four" unicode="4" horiz-adv-x="553" 
d="M513 255v-110h-79v-145h-146v145h-278v1l423 525h1v-416h79zM288 255v88l-66 -88h66z" />
    <glyph glyph-name="five" unicode="5" horiz-adv-x="518" 
d="M366 419.5q50 -30.5 76 -81.5t26 -112q0 -65 -30 -118.5t-82 -84.5t-114 -31q-58 0 -114 21.5t-88 53.5l75 116q18 -22 51.5 -36.5t64.5 -14.5q37 0 62 23.5t25 65.5q0 48 -28 77.5t-76 29.5q-31 0 -59 -8.5t-66 -28.5h-1v372h331v-140h-206v-75q12 2 36 2
q67 0 117 -30.5z" />
    <glyph glyph-name="six" unicode="6" horiz-adv-x="561" 
d="M429.5 409.5q45.5 -27.5 73.5 -76.5t28 -110q0 -71 -34.5 -123.5t-90.5 -80t-120 -27.5q-73 0 -131.5 34.5t-91.5 101t-33 159.5q0 112 80 215t207 179l97 -105q-77 -31 -129.5 -79t-78.5 -104q49 44 130 44q48 0 93.5 -27.5zM352 148.5q28 26.5 28 73.5q0 45 -28 69
t-72 24q-41 0 -70.5 -23t-29.5 -53v-24q0 -37 29 -65t71 -28q44 0 72 26.5z" />
    <glyph glyph-name="seven" unicode="7" horiz-adv-x="503" 
d="M488 663l-247 -663h-162l199 523h-238v140h448z" />
    <glyph glyph-name="eight" unicode="8" horiz-adv-x="532" 
d="M131 400q-28 29 -40.5 52.5t-12.5 64.5q0 44 25.5 79t68.5 55t95 20q51 0 95.5 -19.5t70.5 -53t26 -74.5q0 -45 -13.5 -69.5t-43.5 -54.5q49 -32 82 -75t33 -110q0 -58 -33 -109.5t-91 -82.5t-128 -31q-71 0 -128 31t-89.5 82.5t-32.5 109.5q0 116 116 185zM235 464
q16 -15 35 -15t34.5 15t15.5 35t-15.5 35.5t-34.5 15.5t-35 -15.5t-16 -35.5t16 -35zM194 145.5q30 -31.5 72 -31.5q43 0 74.5 31.5t31.5 75.5t-30 75.5t-73 31.5q-42 0 -73.5 -31t-31.5 -76q0 -44 30 -75.5z" />
    <glyph glyph-name="nine" unicode="9" horiz-adv-x="546" 
d="M405.5 638.5q58.5 -32.5 92 -89.5t33.5 -127q0 -103 -45.5 -183t-114.5 -137.5t-167 -118.5l-97 105q70 29 126 65t91 76q-41 -22 -99 -22q-48 0 -93.5 27.5t-73.5 76.5t-28 110q0 77 34.5 133.5t91 86.5t119.5 30q72 0 130.5 -32.5zM209 356q28 -27 72 -27q41 0 70.5 27
t29.5 61v23q0 40 -29 70.5t-71 30.5q-44 0 -72 -28.5t-28 -79.5q0 -50 28 -77z" />
    <glyph glyph-name="zero.zero" horiz-adv-x="628" 
d="M172 35.5q-63 37.5 -100 113t-37 186.5q0 338 279 336q79 1 142 -36.5t100 -113t37 -186.5q0 -114 -37 -189.5t-100 -111.5t-142 -35q-79 -1 -142 36.5zM412.5 192q29.5 54 29.5 147q0 192 -129 192q-69 0 -98 -52t-29 -143q0 -92 29 -145t98 -53q70 0 99.5 54z
M264 386.5q22 21.5 50 21.5q26 0 48 -21.5t22 -51.5q0 -31 -21.5 -51.5t-48.5 -20.5q-28 0 -50 20t-22 52q0 30 22 51.5z" />
    <glyph glyph-name="uni00B9" unicode="&#xb9;" horiz-adv-x="283" 
d="M223 663v-415h-130v290h-68v125h198z" />
    <glyph glyph-name="uni00B2" unicode="&#xb2;" horiz-adv-x="408" 
d="M378 381v-116h-316v81q57 28 106.5 71.5t49.5 91.5q0 34 -12.5 50t-39.5 16q-21 0 -45.5 -13.5t-35.5 -30.5l-40 92q19 29 64.5 48.5t92.5 19.5q72 0 117 -39t45 -104q0 -84 -96 -167h110z" />
    <glyph glyph-name="uni00B3" unicode="&#xb3;" horiz-adv-x="376" 
d="M301 487.5q25 -28.5 25 -74.5q0 -43 -20.5 -77.5t-57.5 -55t-85 -20.5q-41 0 -72 15t-51 36l39 81q35 -42 68 -42q23 0 38 13.5t15 43.5q0 63 -61 63q-26 0 -40 -8l-7 12l63 106h-98v100h258l-77 -153q38 -11 63 -39.5z" />
    <glyph glyph-name="uni2074" unicode="&#x2074;" horiz-adv-x="409" 
d="M379 359h-48v-94h-120v94h-179l-2 34l213 294h88v-250h48v-78zM211 437v70l-48 -70h48z" />
    <glyph glyph-name="fraction" unicode="&#x2044;" horiz-adv-x="586" 
d="M135 0h-130l407 698h130z" />
    <glyph glyph-name="onehalf" unicode="&#xbd;" horiz-adv-x="928" 
d="M223 663v-415h-130v290h-68v125h198zM878 106v-116h-316v81q57 28 106.5 71.5t49.5 91.5q0 34 -12.5 50t-39.5 16q-21 0 -45.5 -13.5t-35.5 -30.5l-40 92q19 29 64.5 48.5t92.5 19.5q72 0 117 -39t45 -104q0 -84 -96 -167h110zM265 0h-130l407 698h130z" />
    <glyph glyph-name="onequarter" unicode="&#xbc;" horiz-adv-x="860" 
d="M223 663v-415h-130v290h-68v125h198zM286 0h-130l407 698h130zM840 94h-48v-94h-120v94h-179l-2 34l213 294h88v-250h48v-78zM672 172v70l-48 -70h48z" />
    <glyph glyph-name="threequarters" unicode="&#xbe;" horiz-adv-x="905" 
d="M311 487.5q25 -28.5 25 -74.5q0 -43 -20.5 -77.5t-57.5 -55t-85 -20.5q-41 0 -72 15t-51 36l39 81q35 -42 68 -42q23 0 38 13.5t15 43.5q0 63 -61 63q-26 0 -40 -8l-7 12l63 106h-98v100h258l-77 -153q38 -11 63 -39.5zM321 0h-130l407 698h130zM855 95h-48v-94h-120v94
h-179l-2 34l213 294h88v-250h48v-78zM687 173v70l-48 -70h48z" />
    <glyph glyph-name="asterisk" unicode="*" horiz-adv-x="335" 
d="M67 469l-42 73l62 34l-61 37l39 69l63 -37v75h84l-1 -75l64 36l40 -69l-65 -37l63 -36l-42 -73l-62 37l-1 -69h-80v70z" />
    <glyph glyph-name="backslash" unicode="\" horiz-adv-x="430" 
d="M416 -19h-142l-284 770h142z" />
    <glyph glyph-name="periodcentered" unicode="&#xb7;" horiz-adv-x="175" 
d="M37 340.5q22 21.5 50 21.5q26 0 48 -21.5t22 -51.5q0 -31 -21.5 -51.5t-48.5 -20.5q-28 0 -50 20t-22 52q0 30 22 51.5z" />
    <glyph glyph-name="bullet" unicode="&#x2022;" horiz-adv-x="488" 
d="M102 389.5q22 38.5 59.5 61t82.5 22.5t83 -22.5t60.5 -61t22.5 -83.5q0 -46 -22 -83.5t-60.5 -59t-83.5 -21.5t-82.5 21.5t-59.5 59t-22 83.5q0 45 22 83.5z" />
    <glyph glyph-name="colon" unicode=":" horiz-adv-x="179" 
d="M37 408.5q22 21.5 50 21.5q26 0 48 -21.5t22 -51.5q0 -31 -21.5 -51.5t-48.5 -20.5q-28 0 -50 20t-22 52q0 30 22 51.5zM37 123.5q22 21.5 50 21.5q26 0 48 -21.5t22 -51.5q0 -31 -21.5 -51.5t-48.5 -20.5q-28 0 -50 20t-22 52q0 30 22 51.5z" />
    <glyph glyph-name="comma" unicode="," horiz-adv-x="205" 
d="M100 -122h-112l45 118l34 92h121z" />
    <glyph glyph-name="ellipsis" unicode="&#x2026;" horiz-adv-x="546" 
d="M37 123.5q22 21.5 50 21.5q26 0 48 -21.5t22 -51.5q0 -31 -21.5 -51.5t-48.5 -20.5q-28 0 -50 20t-22 52q0 30 22 51.5zM224 123.5q22 21.5 50 21.5q26 0 48 -21.5t22 -51.5q0 -31 -21.5 -51.5t-48.5 -20.5q-28 0 -50 20t-22 52q0 30 22 51.5zM411 123.5q22 21.5 50 21.5
q26 0 48 -21.5t22 -51.5q0 -31 -21.5 -51.5t-48.5 -20.5q-28 0 -50 20t-22 52q0 30 22 51.5z" />
    <glyph glyph-name="exclam" unicode="!" horiz-adv-x="202" 
d="M161 765v-566h-125v566h125zM43 5.5q-23 19.5 -23 51.5q0 31 23.5 52t58.5 21t57.5 -21t22.5 -52q0 -32 -22 -51.5t-58 -19.5t-59 19.5z" />
    <glyph glyph-name="exclamdown" unicode="&#xa1;" horiz-adv-x="204" 
d="M160 545.5q22 -19.5 22 -51.5q0 -31 -22.5 -52t-57.5 -21t-58.5 21t-23.5 52q0 32 23 51.5t59 19.5t58 -19.5zM36 352h125v-566h-125v566z" />
    <glyph glyph-name="numbersign" unicode="#" horiz-adv-x="582" 
d="M264 479h62l22 177h127l-23 -177h84l-4 -41q-2 -30 -8 -80h-85q-6 -44 -8 -66h85q-4 -28 -5 -42q-4 -30 -10 -80h-85q-6 -60 -10 -85l-10 -85h-126l10 85q4 25 10 85h-61l-9 -73q-8 -61 -11 -97h-127l10 85q4 25 10 85h-79q4 28 5 42q4 30 10 80h79l8 66h-79q3 22 7 61
l6 60h79l23 177h126zM243 292h62l7 66h-61q-2 -22 -8 -66z" />
    <glyph glyph-name="period" unicode="." horiz-adv-x="172" 
d="M37 123.5q22 21.5 50 21.5q26 0 48 -21.5t22 -51.5q0 -31 -21.5 -51.5t-48.5 -20.5q-28 0 -50 20t-22 52q0 30 22 51.5z" />
    <glyph glyph-name="question" unicode="?" horiz-adv-x="464" 
d="M142 250q0 66 22 105.5t62 78.5q36 33 52.5 56t16.5 58q0 30 -21.5 49.5t-46.5 19.5q-39 0 -62 -25t-40 -67l-115 54q10 33 36 71t75 67.5t119 29.5q91 0 147.5 -46t56.5 -140q0 -65 -20.5 -102t-44.5 -60.5l-31 -30.5q-32 -32 -49 -65t-17 -85v-21h-140v53zM153 5.5
q-23 19.5 -23 51.5q0 31 23.5 52t58.5 21t57.5 -21t22.5 -52q0 -32 -22 -51.5t-58 -19.5t-59 19.5z" />
    <glyph glyph-name="questiondown" unicode="&#xbf;" horiz-adv-x="452" 
d="M315 533.5q23 -19.5 23 -51.5q0 -31 -23.5 -52t-58.5 -21t-57.5 21t-22.5 52q0 32 22 51.5t58 19.5t59 -19.5zM326 289q0 -66 -22 -105.5t-62 -78.5q-36 -33 -52.5 -56t-16.5 -58q0 -30 21.5 -49.5t46.5 -19.5q39 0 62 25t40 67l115 -54q-10 -33 -36 -71t-75 -67.5
t-119 -29.5q-91 0 -147.5 46t-56.5 140q0 65 20.5 102t44.5 60.5l31 30.5q32 32 49 65t17 85v21h140v-53z" />
    <glyph glyph-name="quotedbl" unicode="&#x22;" horiz-adv-x="366" 
d="M182 481h-118v253h122zM318 481h-118v253h122z" />
    <glyph glyph-name="quotesingle" unicode="'" horiz-adv-x="175" 
d="M148 481h-120v253h124z" />
    <glyph glyph-name="semicolon" unicode=";" horiz-adv-x="205" 
d="M74 378.5q22 21.5 49 21.5q26 0 48 -21.5t22 -51.5q0 -32 -21.5 -52t-48.5 -20q-28 0 -49.5 20t-21.5 52q0 30 22 51.5zM86 -122h-112l45 118l34 92h121z" />
    <glyph glyph-name="slash" unicode="/" horiz-adv-x="421" 
d="M143 -19h-126l284 770h126z" />
    <glyph glyph-name="underscore" unicode="_" horiz-adv-x="612" 
d="M510 121v-121h-408v121h408z" />
    <glyph glyph-name="periodcentered.loclCAT.case" horiz-adv-x="175" 
d="M37 430.5q22 21.5 50 21.5q26 0 48 -21.5t22 -51.5q0 -31 -21.5 -51.5t-48.5 -20.5q-28 0 -50 20t-22 52q0 30 22 51.5z" />
    <glyph glyph-name="periodcentered.loclCAT" horiz-adv-x="175" 
d="M37 340.5q22 21.5 50 21.5q26 0 48 -21.5t22 -51.5q0 -31 -21.5 -51.5t-48.5 -20.5q-28 0 -50 20t-22 52q0 30 22 51.5z" />
    <glyph glyph-name="braceleft" unicode="{" horiz-adv-x="401" 
d="M280.5 632.5q-10.5 -6.5 -15 -27t-4.5 -66.5v-98q0 -51 -20.5 -85t-45.5 -51q25 -20 45.5 -49.5t20.5 -67.5v-120q0 -46 4.5 -66.5t15 -26.5t33.5 -6h37v-122h-79q-57 0 -85 4t-49.5 30t-21.5 86v165q0 48 -21.5 82t-59.5 35v116q39 1 60 34.5t21 82.5v158q0 59 21 85
t50 31t85 5h79v-122h-37q-23 0 -33.5 -6.5z" />
    <glyph glyph-name="braceright" unicode="}" horiz-adv-x="401" 
d="M120.5 -24.5q10.5 6.5 15 27t4.5 66.5v98q0 51 20.5 85t45.5 51q-25 20 -45.5 49.5t-20.5 67.5v120q0 46 -4.5 66.5t-15 26.5t-33.5 6h-37v122h79q57 0 85 -4t49.5 -30t21.5 -86v-165q0 -48 21.5 -82t59.5 -35v-116q-39 -1 -60 -34.5t-21 -82.5v-158q0 -59 -21 -85
t-50 -31t-85 -5h-79v122h37q23 0 33.5 6.5z" />
    <glyph glyph-name="bracketleft" unicode="[" horiz-adv-x="374" 
d="M329 761v-130h-89v-654h89v-129h-234v913h234z" />
    <glyph glyph-name="bracketright" unicode="]" horiz-adv-x="374" 
d="M45 -152v130h89v654h-89v129h234v-913h-234z" />
    <glyph glyph-name="parenleft" unicode="(" horiz-adv-x="408" 
d="M123.5 562q48.5 123 119.5 198l115 -53q-63 -72 -100 -176t-37 -235t37 -234.5t100 -175.5l-115 -54q-71 76 -119.5 198.5t-48.5 265.5t48.5 266z" />
    <glyph glyph-name="parenright" unicode=")" horiz-adv-x="408" 
d="M284.5 30q-48.5 -123 -119.5 -198l-115 53q63 72 100 176t37 235t-37 234.5t-100 175.5l115 54q71 -76 119.5 -198.5t48.5 -265.5t-48.5 -266z" />
    <glyph glyph-name="emdash" unicode="&#x2014;" horiz-adv-x="714" 
d="M613 286v-121h-512v121h512z" />
    <glyph glyph-name="endash" unicode="&#x2013;" horiz-adv-x="519" 
d="M409 286v-121h-307v121h307z" />
    <glyph glyph-name="hyphen" unicode="-" horiz-adv-x="306" 
d="M242 290v-122h-188v122h188z" />
    <glyph glyph-name="uni00AD" unicode="&#xad;" horiz-adv-x="600" 
d="M242 290v-122h-188v122h188z" />
    <glyph glyph-name="guillemotleft" unicode="&#xab;" horiz-adv-x="609" 
d="M269 448v-125l-94 -79l94 -81v-124l-254 205zM519 448v-125l-94 -79l94 -81v-124l-254 205z" />
    <glyph glyph-name="guillemotright" unicode="&#xbb;" horiz-adv-x="609" 
d="M80 39v124l94 81l-94 79v125l254 -204zM330 39v124l94 81l-94 79v125l254 -204z" />
    <glyph glyph-name="guilsinglleft" unicode="&#x2039;" horiz-adv-x="359" 
d="M269 448v-125l-94 -79l94 -81v-124l-254 205z" />
    <glyph glyph-name="guilsinglright" unicode="&#x203a;" horiz-adv-x="349" 
d="M80 39v124l94 81l-94 79v125l254 -204z" />
    <glyph glyph-name="quotedblbase" unicode="&#x201e;" horiz-adv-x="334" 
d="M20 -34q19 18 32 48.5t13 60.5q0 8 -2 22l107 7q2 -12 2 -19q0 -41 -24 -85t-56 -62zM162 -34q19 18 32 48.5t13 60.5q0 8 -2 22l107 7q2 -12 2 -19q0 -41 -24 -85t-56 -62z" />
    <glyph glyph-name="quotedblleft" unicode="&#x201c;" horiz-adv-x="331" 
d="M311 717q-19 -18 -32 -48.5t-13 -60.5q0 -8 2 -22l-107 -7q-3 15 -3 30q0 43 23 79t58 57zM172 717q-19 -18 -32 -48.5t-13 -60.5q0 -8 2 -22l-107 -7q-3 15 -3 30q0 43 23 79t58 57z" />
    <glyph glyph-name="quotedblright" unicode="&#x201d;" horiz-adv-x="334" 
d="M20 587q19 18 32 48.5t13 60.5q0 8 -2 22l107 7q2 -12 2 -19q0 -41 -24 -85t-56 -62zM162 587q19 18 32 48.5t13 60.5q0 8 -2 22l107 7q2 -12 2 -19q0 -41 -24 -85t-56 -62z" />
    <glyph glyph-name="quoteleft" unicode="&#x2018;" horiz-adv-x="192" 
d="M172 717q-19 -18 -32 -48.5t-13 -60.5q0 -8 2 -22l-107 -7q-3 15 -3 30q0 43 23 79t58 57z" />
    <glyph glyph-name="quoteright" unicode="&#x2019;" horiz-adv-x="197" 
d="M20 587q19 18 32 48.5t13 60.5q0 8 -2 22l107 7q2 -12 2 -19q0 -41 -24 -85t-56 -62z" />
    <glyph glyph-name="quotesinglbase" unicode="&#x201a;" horiz-adv-x="197" 
d="M20 -45q19 18 32 48.5t13 60.5q0 8 -2 22l107 7q2 -12 2 -19q0 -41 -24 -85t-56 -62z" />
    <glyph glyph-name="uni00A0" unicode="&#xa0;" horiz-adv-x="325" 
 />
    <glyph glyph-name="uni20B5" unicode="&#x20b5;" horiz-adv-x="697" 
d="M575 22q-50 -21 -109 -28v-113h-126v119q-90 18 -155.5 70t-100 128t-34.5 164q0 99 35.5 179t101.5 131t153 66v94h126v-92q91 -12 166 -59l-57 -137q-53 40 -109 54v-463q39 6 70.5 21.5t50.5 34.5l60 -130q-22 -18 -72 -39zM237.5 228q36.5 -59 102.5 -82v444
q-61 -25 -100 -85t-39 -135q0 -83 36.5 -142z" />
    <glyph glyph-name="cent" unicode="&#xa2;" horiz-adv-x="479" 
d="M443 39q-22 -18 -54 -30.5t-66 -17.5v-59h-84v59q-94 12 -147.5 71.5t-53.5 156.5q0 64 27.5 113.5t73 78.5t100.5 36v59h84v-61q75 -12 124 -54l-68 -90q-27 20 -56 29v-226q30 6 50 23zM194 157.5q16 -27.5 45 -42.5v210q-28 -13 -44.5 -41t-16.5 -65q0 -34 16 -61.5z
" />
    <glyph glyph-name="colonmonetary" unicode="&#x20a1;" horiz-adv-x="697" 
d="M647 61q-27 -22 -87.5 -45.5t-132.5 -23.5l-25 -67h-126l31 83q-21 6 -48 17l-37 -100h-126l62 168q-52 51 -80 120.5t-28 148.5q0 110 43.5 195.5t123 135t182.5 51.5l27 74h126l-33 -89q18 -4 48 -15l39 104h126l-251 -680q64 13 106 53zM356 141l162 438
q-22 11 -48 18l-161 -437q24 -13 47 -19zM221 262l121 328q-62 -25 -101.5 -84.5t-39.5 -135.5q0 -59 20 -108z" />
    <glyph glyph-name="currency" unicode="&#xa4;" horiz-adv-x="506" 
d="M415 361q0 -44 -23 -81l24 -24l-59 -59l-26 25q-35 -20 -79 -20q-42 0 -78 19l-25 -25l-59 59l24 24q-22 38 -22 82q0 41 21 78l-23 24l59 59l24 -24q44 21 79 21q41 0 80 -21l24 24l59 -59l-22 -22q22 -38 22 -80zM199 306q23 -23 54 -23q32 0 55 22.5t23 54.5t-23 55
t-55 23t-54.5 -23t-22.5 -55q0 -31 23 -54z" />
    <glyph glyph-name="dollar" unicode="$" horiz-adv-x="567" 
d="M450 379.5q37 -24.5 61.5 -67.5t24.5 -109q0 -53 -25.5 -98.5t-75.5 -75.5t-119 -36v-61h-84v63q-113 13 -200 76l64 113q29 -21 65.5 -37t70.5 -23v197q-74 31 -118 77t-44 126q0 88 54.5 145t147.5 69v66h84v-67q58 -5 101 -22.5t86 -45.5l-55 -111q-74 40 -132 50
v-183l5 -2q52 -19 89 -43.5zM220 535q0 -39 52 -71v140q-52 -16 -52 -69zM366 151.5q19 19.5 19 51.5q0 46 -69 82v-160q31 7 50 26.5z" />
    <glyph glyph-name="dong" unicode="&#x20ab;" horiz-adv-x="631" 
d="M612 649h-56v-487h-140v45q-69 -57 -152 -57q-58 0 -104 29t-72 83t-26 127q0 72 28 124.5t78 80t114 27.5q38 0 74.5 -13.5t60.5 -38.5v80h-86v97h86v43h139v-43h56v-97zM373.5 284.5q25.5 16.5 42.5 49.5v107q-11 32 -39.5 51t-66.5 19q-44 0 -75 -34t-31 -86
t31.5 -87.5t74.5 -35.5q38 0 63.5 16.5zM90 97h466v-97h-466v97z" />
    <glyph glyph-name="Euro" unicode="&#x20ac;" horiz-adv-x="765" 
d="M715 61q-28 -23 -89 -46t-133 -23q-132 0 -224 65t-129 173h-89v113h67v19q0 17 1 26h-69v113h89q36 112 125 177.5t212 65.5q67 0 124 -18t100 -45l-57 -137q-79 60 -162 60q-53 0 -100 -27.5t-76 -75.5h134v-113h-169q-1 -6 -1 -18q0 -18 1 -27h169v-113h-134
q28 -46 76 -72t109 -26q54 0 97 17.5t68 41.5z" />
    <glyph glyph-name="florin" unicode="&#x192;" horiz-adv-x="366" 
d="M173.5 717q76.5 68 209.5 72v-139q-78 -6 -109 -40t-31 -100v-71h132v-134h-132v-195q0 -139 -68.5 -204.5t-217.5 -69.5v138q78 6 109 40.5t31 100.5v190h-74v134h74v76q0 134 76.5 202z" />
    <glyph glyph-name="franc" unicode="&#x20a3;" horiz-adv-x="576" 
d="M240 596v-167h273v-140h-273v-90h52v-97h-52v-102h-145v102h-58v97h58v537h460v-140h-315z" />
    <glyph glyph-name="uni20B2" unicode="&#x20b2;" horiz-adv-x="762" 
d="M692 385v-311q-24 -26 -93 -51t-133 -30v-109h-126v117q-89 18 -154.5 66t-100.5 120t-35 160q0 111 38 192.5t103 130t149 65.5v100h126v-92q110 -8 192 -53l-47 -135q-24 13 -67 25.5t-78 16.5v-212h226zM237 231.5q37 -53.5 103 -77.5v429q-140 -48 -140 -223
q0 -75 37 -128.5zM545 245h-79v-107q49 2 79 18v89z" />
    <glyph glyph-name="uni20AD" unicode="&#x20ad;" horiz-adv-x="719" 
d="M302 309h-9l-31 -31v-278h-147v309h-80v140h80v287h147v-262l-3 -25h8l13 16l240 271h188l-264 -287h149v-140h-116l232 -309h-184z" />
    <glyph glyph-name="lira" unicode="&#x20a4;" horiz-adv-x="672" 
d="M637 213v-81q0 -61 -36.5 -96.5t-105.5 -35.5h-420v140h45q21 0 31 3.5t15.5 16t6.5 40.5h-70v130h70v38h-70v130h70v62q0 48 30 88.5t84.5 64.5t123.5 24q74 0 128.5 -29t81.5 -81l-105 -72q-1 -3 -10 8.5t-30.5 22.5t-61.5 11q-49 0 -72.5 -22t-23.5 -71v-6h150v-130
h-150v-38h150v-130h-151q-5 -48 -18 -60h168q44 0 44 39v33zM318 217v3v-3z" />
    <glyph glyph-name="uni20BA" unicode="&#x20ba;" horiz-adv-x="686" 
d="M636 248q0 -128 -91 -188t-239 -60h-145v221l-37 -21l-56 88l93 52v39l-90 -50l-56 88l146 81v238h145v-158l83 46l56 -88l-139 -77v-38l137 76l56 -88l-193 -108v-160q88 2 131 25t43 76q0 23 -3 44l151 38q8 -46 8 -76z" />
    <glyph glyph-name="uni20BC" unicode="&#x20bc;" horiz-adv-x="786" 
d="M576.5 688.5q53.5 -37.5 84 -95t30.5 -126.5v-467h-145v464q0 38 -25.5 73t-64.5 53v-590h-126v590q-41 -17 -66.5 -52t-25.5 -74v-464h-143v467q0 69 30.5 126t83.5 94.5t121 50.5v93h126v-93q67 -12 120.5 -49.5z" />
    <glyph glyph-name="uni20A6" unicode="&#x20a6;" horiz-adv-x="853" 
d="M838 346h-80v-376h-4l-416 376h-98l2 -346h-147v346h-80v97h80v322h6l350 -322h163l-2 293h146v-293h80v-97zM615 346h-58l58 -53v53z" />
    <glyph glyph-name="peseta" unicode="&#x20a7;" horiz-adv-x="671" 
d="M656 438h-59q-13 -88 -75 -146.5t-178 -58.5h-104v-233h-145v438h-80v97h80v201h223q120 0 192.5 -53.5t86.5 -147.5h59v-97zM409 392.5q25 18.5 36 43.5t11 48q0 39 -23 75.5t-89 36.5h-104v-222h103q41 0 66 18.5z" />
    <glyph glyph-name="uni20B1" unicode="&#x20b1;" horiz-adv-x="657" 
d="M642 491h-41v-3q0 -21 -1 -31h42v-97h-69q-28 -58 -85 -92.5t-144 -34.5h-104v-233h-145v360h-80v97h80v34h-80v97h80v148h223q102 0 170 -39t95 -109h59v-97zM409 392.5q25 18.5 36 43.5t11 48q0 39 -23 75.5t-89 36.5h-104v-222h103q41 0 66 18.5z" />
    <glyph glyph-name="uni20BD" unicode="&#x20bd;" horiz-adv-x="626" 
d="M527 669.5q74 -66.5 74 -181.5q0 -66 -25.5 -123.5t-83 -94.5t-148.5 -37h-104v-41h85v-128h-85v-64h-145v64h-80v128h80v46h-80v128h80v370h223q135 0 209 -66.5zM409 392.5q25 18.5 36 43.5t11 48q0 39 -23 75.5t-89 36.5h-104v-222h103q41 0 66 18.5z" />
    <glyph glyph-name="uni20B9" unicode="&#x20b9;" horiz-adv-x="508" 
d="M395 596q12 -19 18 -45h77v-122h-75q-23 -112 -111 -162l171 -267h-169l-155 234h-76v140h82q38 0 62.5 15.5t37.5 39.5h-175v122h170q-28 45 -94 45h-83v140h418v-140h-98z" />
    <glyph glyph-name="sterling" unicode="&#xa3;" horiz-adv-x="672" 
d="M637 213v-81q0 -61 -36.5 -96.5t-105.5 -35.5h-420v140h45q22 0 32.5 4t15.5 19.5t5 49.5v65h-66v140h66v142q0 48 30 88.5t84.5 64.5t123.5 24q74 0 128.5 -29t81.5 -81l-105 -72q-16 18 -39 30t-63 12q-49 0 -72.5 -22t-23.5 -71v-86h144v-140h-144v-61q0 -54 -16 -77
h165q44 0 44 39v33z" />
    <glyph glyph-name="uni20A9" unicode="&#x20a9;" horiz-adv-x="1023" 
d="M895 473h63v-97h-99l-152 -408l-164 408h-24l-191 -410l-159 410h-104v97h67l-100 258h170l88 -258h124l45 113l-58 145h144l104 -258h107l79 258h156zM375 376h-52l24 -71zM727 376h-38l21 -54z" />
    <glyph glyph-name="yen" unicode="&#xa5;" horiz-adv-x="722" 
d="M435 315h128v-113h-132v-25h132v-113h-132v-64h-145v64h-111v113h111v25h-112v113h108l-267 421h179l169 -269l165 269h179z" />
    <glyph glyph-name="uni2219" unicode="&#x2219;" horiz-adv-x="243" 
d="M49.5 265.5q-29.5 29.5 -29.5 71.5t29.5 71.5t72.5 29.5q42 0 71.5 -29.5t29.5 -71.5t-29.5 -71.5t-71.5 -29.5q-43 0 -72.5 29.5z" />
    <glyph glyph-name="uni2215" unicode="&#x2215;" horiz-adv-x="421" 
d="M143 -19h-126l284 770h126z" />
    <glyph glyph-name="plus" unicode="+" horiz-adv-x="554" 
d="M335 419v-124h120v-121h-120v-122h-127v122h-120v121h120v124h127z" />
    <glyph glyph-name="minus" unicode="&#x2212;" horiz-adv-x="530" 
d="M449 273v-122h-367v122h367z" />
    <glyph glyph-name="multiply" unicode="&#xd7;" horiz-adv-x="528" 
d="M366 376l52 -54l52 -54l-75 -78l44 -45l35 -36l-111 -109l-46 45l-35 34q-21 -23 -44 -44l-32 -33l-108 106l39 39l40 40l-83 82l109 111l84 -84z" />
    <glyph glyph-name="divide" unicode="&#xf7;" horiz-adv-x="510" 
d="M206 480.5q22 21.5 50 21.5q26 0 48 -21.5t22 -51.5q0 -31 -21.5 -51.5t-48.5 -20.5q-28 0 -50 20t-22 52q0 30 22 51.5zM436 329v-121h-367v121h367zM206 165.5q22 21.5 50 21.5q26 0 48 -21.5t22 -51.5q0 -31 -21.5 -51.5t-48.5 -20.5q-28 0 -50 20t-22 52
q0 30 22 51.5z" />
    <glyph glyph-name="equal" unicode="=" horiz-adv-x="722" 
d="M618 412v-122h-516v122h516zM618 214v-122h-516v122h516z" />
    <glyph glyph-name="notequal" unicode="&#x2260;" horiz-adv-x="722" 
d="M438 290l-66 -76h246v-122h-351l-99 -115l-72 63q12 13 45 52h-39v122h145l66 76h-211v122h316l123 142l70 -64l-68 -78h75v-122h-180z" />
    <glyph glyph-name="greater" unicode="&#x3e;" horiz-adv-x="555" 
d="M257 243l-177 105v151l445 -256l-445 -257v152z" />
    <glyph glyph-name="less" unicode="&#x3c;" horiz-adv-x="555" 
d="M298 242l177 -105v-151l-445 256l445 257v-152z" />
    <glyph glyph-name="greaterequal" unicode="&#x2265;" horiz-adv-x="556" 
d="M526 473l-445 -257v152l196 99l-196 111v151zM507 163v-122h-427v122h427z" />
    <glyph glyph-name="lessequal" unicode="&#x2264;" horiz-adv-x="556" 
d="M30 473l445 256v-151l-176 -107l176 -103v-152zM476 163v-122h-407v122h407z" />
    <glyph glyph-name="plusminus" unicode="&#xb1;" horiz-adv-x="535" 
d="M335 582v-124h120v-121h-120v-122h-127v122h-120v121h120v124h127zM455 183v-122h-367v122h367z" />
    <glyph glyph-name="approxequal" unicode="&#x2248;" horiz-adv-x="452" 
d="M255 71.5q-25 13.5 -58 39.5q-17 14 -29 21t-24 7q-19 0 -28.5 -18t-9.5 -44q0 -11 1 -17h-85q-2 18 -2 26q0 66 36 112.5t97 46.5q27 0 49 -13t51 -38q22 -19 34.5 -27.5t25.5 -8.5q31 0 31 60q0 16 -1 24h85q3 -19 3 -38q0 -42 -15 -75.5t-41.5 -52t-57.5 -18.5
q-37 0 -62 13.5zM256 278.5q-25 13.5 -58 39.5q-17 14 -29 21t-24 7q-19 0 -28.5 -18t-9.5 -44q0 -11 1 -17h-85q-2 18 -2 26q0 66 36 112.5t97 46.5q27 0 49 -13t51 -38q22 -19 34.5 -27.5t25.5 -8.5q31 0 31 60q0 16 -1 24h85q3 -19 3 -38q0 -42 -15 -75.5t-41.5 -52
t-57.5 -18.5q-37 0 -62 13.5z" />
    <glyph glyph-name="asciitilde" unicode="~" horiz-adv-x="451" 
d="M255 435.5q-25 13.5 -58 39.5q-17 14 -29 21t-24 7q-19 0 -28.5 -18t-9.5 -44q0 -11 1 -17h-85q-2 18 -2 26q0 66 36 112.5t97 46.5q27 0 49 -13t51 -38q22 -19 34.5 -27.5t25.5 -8.5q31 0 31 60q0 16 -1 24h85q3 -19 3 -38q0 -42 -15 -75.5t-41.5 -52t-57.5 -18.5
q-37 0 -62 13.5z" />
    <glyph glyph-name="logicalnot" unicode="&#xac;" horiz-adv-x="467" 
d="M417 329v-238h-145v98h-222v140h367z" />
    <glyph glyph-name="infinity" unicode="&#x221e;" horiz-adv-x="489" 
d="M409 398.5q25 -15.5 37.5 -39.5t12.5 -48t-12 -48t-37.5 -40t-62.5 -16q-28 0 -55 9.5t-47 26.5q-20 -17 -48 -26.5t-56 -9.5q-37 0 -62 16t-37 40t-12 48t12 47.5t37 39.5t62 16q28 0 56 -9.5t48 -26.5q21 17 48 26.5t55 9.5q36 0 61 -15.5zM189 286.5q20 8.5 20 22.5
t-19.5 23.5t-46.5 9.5q-22 0 -32 -7.5t-10 -24.5q0 -16 9 -24t33 -8q26 0 46 8.5zM379 286q9 8 9 24q0 17 -10 24.5t-31 7.5q-27 0 -46.5 -9.5t-19.5 -23.5t20.5 -22.5t45.5 -8.5q23 0 32 8z" />
    <glyph glyph-name="integral" unicode="&#x222b;" horiz-adv-x="421" 
d="M259 633q-11 -6 -15.5 -26.5t-4.5 -66.5v-593q0 -50 -19 -71.5t-43 -25t-77 -3.5h-79v122h37q23 0 34 6.5t15.5 27t4.5 66.5v572q0 60 17 85.5t42 30t80 4.5h79v-122h-37q-23 0 -34 -6z" />
    <glyph glyph-name="uni2126" unicode="&#x2126;" horiz-adv-x="833" 
d="M716 121v-121h-224v121q44 21 65 75.5t21 119.5q0 70 -30 126.5t-115 56.5q-92 0 -120.5 -62t-28.5 -122q0 -66 27 -118.5t71 -75.5v-121h-235v121h99q-88 70 -88 221t77 214.5t192 63.5q131 0 204.5 -73.5t73.5 -201.5q0 -150 -85 -224h96z" />
    <glyph glyph-name="uni2206" unicode="&#x2206;" horiz-adv-x="512" 
d="M414 245h-355l177 498zM305 316l-69 208l-69 -208h138z" />
    <glyph glyph-name="product" unicode="&#x220f;" horiz-adv-x="833" 
d="M556 765v-855h-124v734h-102v-734h-125v855h351z" />
    <glyph glyph-name="summation" unicode="&#x2211;" horiz-adv-x="588" 
d="M516 765l-34 -121h-242l86 -310l-86 -310h242l34 -121h-441l116 431l-116 431h441z" />
    <glyph glyph-name="radical" unicode="&#x221a;" horiz-adv-x="585" 
d="M527 623l-291 -656l-138 302h-78l1 71h130l85 -194l206 477h85z" />
    <glyph glyph-name="uni00B5" unicode="&#xb5;" horiz-adv-x="584" 
d="M512 437v-437h-127l-10 69q-24 -42 -65 -66t-97 -24h-1v-180h-140v638h140v-275q3 -64 59 -64q46 0 73.5 45t27.5 116v178h140z" />
    <glyph glyph-name="percent" unicode="%" horiz-adv-x="810" 
d="M75.5 346.5q-40.5 52.5 -40.5 137.5t40.5 137t120.5 52q79 0 120 -52.5t41 -136.5q0 -85 -41 -137.5t-120 -52.5q-80 0 -120.5 52.5zM242 -2l-137 2l484 673h139zM165.5 415.5q8.5 -23.5 30.5 -23.5t30 23.5t8 68.5q0 49 -8 69.5t-30 20.5q-23 0 -31 -20.5t-8 -69.5
q0 -45 8.5 -68.5zM493.5 24.5q-40.5 52.5 -40.5 137.5t40.5 137t120.5 52q79 0 120 -52.5t41 -136.5q0 -85 -41 -137.5t-120 -52.5q-80 0 -120.5 52.5zM583.5 93.5q8.5 -23.5 30.5 -23.5t30 23.5t8 68.5q0 49 -8 69.5t-30 20.5q-23 0 -31 -20.5t-8 -69.5q0 -45 8.5 -68.5z
" />
    <glyph glyph-name="perthousand" unicode="&#x2030;" horiz-adv-x="1169" 
d="M75.5 346.5q-40.5 52.5 -40.5 137.5t40.5 137t120.5 52q79 0 120 -52.5t41 -136.5q0 -85 -41 -137.5t-120 -52.5q-80 0 -120.5 52.5zM242 -2l-137 2l484 673h139zM165.5 415.5q8.5 -23.5 30.5 -23.5t30 23.5t8 68.5q0 49 -8 69.5t-30 20.5q-23 0 -31 -20.5t-8 -69.5
q0 -45 8.5 -68.5zM493.5 24.5q-40.5 52.5 -40.5 137.5t40.5 137t120.5 52q79 0 120 -52.5t41 -136.5q0 -85 -41 -137.5t-120 -52.5q-80 0 -120.5 52.5zM852.5 24.5q-40.5 52.5 -40.5 137.5t40.5 137t120.5 52q79 0 120 -52.5t41 -136.5q0 -85 -41 -137.5t-120 -52.5
q-80 0 -120.5 52.5zM583.5 93.5q8.5 -23.5 30.5 -23.5t30 23.5t8 68.5q0 49 -8 69.5t-30 20.5q-23 0 -31 -20.5t-8 -69.5q0 -45 8.5 -68.5zM942.5 93.5q8.5 -23.5 30.5 -23.5t30 23.5t8 68.5q0 49 -8 69.5t-30 20.5q-23 0 -31 -20.5t-8 -69.5q0 -45 8.5 -68.5z" />
    <glyph glyph-name="lozenge" unicode="&#x25ca;" horiz-adv-x="472" 
d="M414 355l-178 -388l-177 388l177 388zM144 355l92 -209l93 209l-93 209z" />
    <glyph glyph-name="at" unicode="@" horiz-adv-x="1061" 
d="M762 172q-1 -6 -1 -17q0 -35 28 -35q25 0 49.5 24.5t40 68.5t15.5 99q0 72 -33 130.5t-100 93.5t-166 35q-164 0 -260 -68t-133.5 -157.5t-37.5 -163.5q0 -103 42.5 -170t114 -98.5t160.5 -31.5q56 0 112 17.5t106 48.5l56 -79q-57 -47 -138.5 -71t-156.5 -24
q-114 0 -210 44.5t-154 135.5t-58 224q0 121 61 236t190.5 190.5t325.5 75.5q129 0 221 -48.5t139.5 -132t47.5 -187.5q0 -87 -34 -160t-95.5 -116.5t-140.5 -43.5q-43 0 -77.5 21.5t-49.5 58.5q-32 -34 -80.5 -59t-97.5 -25q-56 0 -100 24t-69.5 70t-25.5 109q0 76 32 137
t89.5 96t132.5 35q59 0 89 -18t53 -51l16 47h134zM568.5 118q25.5 16 48.5 50l15 107q-8 32 -34.5 51t-66.5 19q-36 0 -65.5 -19t-46.5 -50t-17 -66q0 -46 28.5 -77t73.5 -31q39 0 64.5 16z" />
    <glyph glyph-name="ampersand" unicode="&#x26;" horiz-adv-x="740" 
d="M547 0l-54 72q-33 -39 -83 -61.5t-118 -22.5q-69 0 -125.5 29t-89 80.5t-32.5 116.5q0 74 51.5 133.5t128.5 85.5l-2 3q-23 30 -42.5 72t-19.5 83q0 42 21.5 81.5t65 65t104.5 25.5q67 0 121.5 -27.5t89.5 -71.5l-73 -97q-34 36 -61.5 55t-53.5 19q-32 0 -48 -18.5
t-16 -45.5q0 -28 34 -79l133 -179l50 129h132l-97 -244l152 -204h-168zM418 173l-120 161q-44 -4 -73.5 -37t-29.5 -75q0 -46 33.5 -75t83.5 -29q72 0 106 55z" />
    <glyph glyph-name="paragraph" unicode="&#xb6;" horiz-adv-x="592" 
d="M121 453.5q-38 22.5 -60 60.5t-22 84t22 84t60 60.5t84 22.5h291v-765h-124v644h-42v-644h-125v431q-46 0 -84 22.5z" />
    <glyph glyph-name="section" unicode="&#xa7;" horiz-adv-x="579" 
d="M510 34q0 -60 -29 -110t-81 -79.5t-117 -29.5q-143 0 -233 76l72 120q47 -36 83 -51.5t70 -15.5q37 0 60 18t23 50q0 29 -29 46t-80 30q-77 19 -132.5 60.5t-55.5 112.5q0 51 23.5 85.5t62.5 51.5q-68 49 -68 138q0 51 22.5 96.5t72 74.5t126.5 29q119 -1 206 -78
l-63 -107q-37 32 -67 44.5t-61 14.5q-44 0 -64 -14.5t-20 -38.5q0 -29 30 -45.5t86 -31.5q52 -14 90.5 -32t65 -53t26.5 -89q0 -45 -22 -83.5t-64 -61.5q67 -44 67 -127zM229.5 243.5q26.5 -21.5 61.5 -30.5q38 2 67 21t29 48q0 24 -31.5 43.5t-62.5 21.5q-39 3 -64.5 -13
t-25.5 -40q0 -29 26.5 -50.5z" />
    <glyph glyph-name="copyright" unicode="&#xa9;" horiz-adv-x="880" 
d="M245 -20.5q-90 50.5 -142.5 138t-52.5 194.5q0 108 52.5 196t142 138t195.5 50t195.5 -50t142 -138t52.5 -196q0 -107 -52.5 -194.5t-142.5 -138t-195 -50.5t-195 50.5zM577.5 76q61.5 35 96.5 97t35 139t-35 139.5t-96.5 97.5t-137.5 35t-137.5 -35.5t-97 -97.5
t-35.5 -139t35.5 -139t97 -97t137.5 -35t137.5 35zM539.5 129.5q-43.5 -21.5 -97.5 -21.5t-99.5 28t-72 75t-26.5 101q0 61 25 108.5t71.5 74t109.5 26.5q37 0 77 -10.5t61 -31.5l-56 -107q-26 27 -71 27q-33 0 -52.5 -24.5t-19.5 -57.5q0 -35 19.5 -58.5t54.5 -23.5
q23 0 45.5 10.5t39.5 31.5l64 -95q-29 -31 -72.5 -52.5z" />
    <glyph glyph-name="registered" unicode="&#xae;" horiz-adv-x="566" 
d="M412 702q59 -33 94 -91t35 -129q0 -70 -35 -128t-94 -91t-129 -33t-129 33t-94 91t-35 128q0 71 35 129t94 91t129 33t129 -33zM372.5 328q40.5 23 63.5 63.5t23 90.5q0 51 -23 91.5t-63.5 63.5t-89.5 23t-89.5 -23t-63.5 -63.5t-23 -91.5q0 -50 23 -90.5t63.5 -63.5
t89.5 -23t89.5 23zM378.5 482.5q-10.5 -20.5 -29.5 -31.5l38 -88h-86l-26 77h-8v-77h-75v243h106q46 0 68.5 -21.5t22.5 -60.5q0 -21 -10.5 -41.5zM267 497h17q14 0 19.5 6.5t5.5 18.5q0 28 -25 28h-17v-53z" />
    <glyph glyph-name="trademark" unicode="&#x2122;" horiz-adv-x="586" 
d="M536 747v-270h-87v70l-47 -67l-50 68v-71h-83v270l133 -144zM40 736h192v-80h-51v-179h-90v179h-51v80z" />
    <glyph glyph-name="degree" unicode="&#xb0;" horiz-adv-x="287" 
d="M56.5 653.5q34.5 33.5 84.5 33.5q47 0 81 -33.5t34 -81.5q0 -49 -34 -83t-81 -34q-50 0 -84.5 34t-34.5 83q0 48 34.5 81.5zM170.5 541q12.5 12 12.5 29t-12.5 29.5t-29.5 12.5t-29 -12.5t-12 -29.5t12 -29t29 -12t29.5 12z" />
    <glyph glyph-name="bar" unicode="|" horiz-adv-x="306" 
d="M214 714v-951h-126v951h126z" />
    <glyph glyph-name="brokenbar" unicode="&#xa6;" horiz-adv-x="219" 
d="M177 714v-357h-126v357h126zM177 119v-357h-126v357h126z" />
    <glyph glyph-name="dagger" unicode="&#x2020;" horiz-adv-x="300" 
d="M281 361h-68v-390h-126v390h-69v122h69v151h126v-151h68v-122z" />
    <glyph glyph-name="daggerdbl" unicode="&#x2021;" horiz-adv-x="300" 
d="M301 182h-88v-211h-126v211h-87v122h87v57h-69v122h69v151h126v-151h68v-122h-68v-57h88v-122z" />
    <glyph glyph-name="uni2116" unicode="&#x2116;" horiz-adv-x="1358" 
d="M612 736h146v-766h-4l-515 465l3 -435h-147v765h6l514 -472zM944.5 310.5q-56.5 28.5 -88 81.5t-31.5 126q0 67 31.5 120t89 83.5t130.5 30.5t128.5 -30.5t85.5 -83.5t30 -120t-30 -121t-85.5 -84.5t-130.5 -30.5q-73 0 -129.5 28.5zM996 603.5q-30 -34.5 -30 -86.5
t30 -86.5t76 -34.5q48 0 77.5 34t29.5 87t-29.5 87t-77.5 34q-46 0 -76 -34.5zM878 233h407v-122h-407v122z" />
    <glyph glyph-name="asciicircum" unicode="^" horiz-adv-x="479" 
d="M236 534l-37 -45h-85l122 184l123 -184h-85z" />
    <glyph glyph-name="uni0308" unicode="&#x308;" 
d="M-370 594q22 21 50 21q26 0 48 -21.5t22 -51.5q0 -31 -22 -51.5t-48 -20.5q-28 0 -50 20.5t-22 51.5t22 52zM-170 594q22 21 50 21q26 0 48 -21.5t22 -51.5q0 -31 -22 -51.5t-48 -20.5q-28 0 -50 20.5t-22 51.5t22 52z" />
    <glyph glyph-name="uni0307" unicode="&#x307;" 
d="M-171.5 662.5q23.5 20.5 53.5 20.5q29 0 52 -20.5t23 -50.5t-23 -50t-52 -20q-30 0 -53.5 20t-23.5 50t23.5 50.5z" />
    <glyph glyph-name="gravecomb" unicode="&#x300;" 
d="M-132 624l62 -135h-85l-132 135h155z" />
    <glyph glyph-name="acutecomb" unicode="&#x301;" 
d="M-190 489h-85l78 135h155z" />
    <glyph glyph-name="uni030B" unicode="&#x30b;" 
d="M-372 489h-85l78 135h155zM-188 487h-85l78 135h155z" />
    <glyph glyph-name="uni0302" unicode="&#x302;" 
d="M-146 489l-65 62l-58 -62h-126l185 184h1l189 -184h-126z" />
    <glyph glyph-name="uni030C" unicode="&#x30c;" 
d="M-20 673l-185 -184h-1l-189 184h126l65 -62l58 62h126z" />
    <glyph glyph-name="uni0306" unicode="&#x306;" 
d="M-327.5 516q-40.5 46 -57.5 141h93q10 -48 26 -71t49 -23t48.5 23t25.5 71h93q-16 -97 -56.5 -142t-110.5 -45t-110.5 46z" />
    <glyph glyph-name="uni030A" unicode="&#x30a;" 
d="M-241.5 641.5q31.5 28.5 80.5 28.5q48 0 79.5 -28.5t31.5 -75.5t-31.5 -76t-79.5 -29q-49 0 -80.5 29t-31.5 76t31.5 75.5zM-189.5 534q10.5 -11 28.5 -11t28.5 11t10.5 30q0 21 -10.5 31.5t-28.5 10.5t-28.5 -10.5t-10.5 -31.5q0 -19 10.5 -30z" />
    <glyph glyph-name="tildecomb" unicode="&#x303;" 
d="M-217 477q-21 11 -48 33q-27 23 -44 23q-16 0 -23.5 -14.5t-7.5 -36.5l1 -14h-70q-1 7 -1 22q0 55 29 93t80 38q22 0 39.5 -10.5t42.5 -31.5q20 -17 29.5 -23.5t20.5 -6.5q29 0 25 69h70q3 -16 3 -32q0 -52 -27.5 -86t-67.5 -34q-30 0 -51 11z" />
    <glyph glyph-name="uni0304" unicode="&#x304;" 
d="M-50 556v-97h-255v97h255z" />
    <glyph glyph-name="hookabovecomb" unicode="&#x309;" 
d="M-153.5 638.5q9.5 11.5 9.5 27.5q0 33 -29 33q-13 0 -23 -7.5t-16 -19.5l-50 30q17 35 46 53.5t62 18.5q43 0 65 -26.5t22 -61.5q0 -36 -23.5 -62.5t-63.5 -47.5l-29 37q20 14 29.5 25.5z" />
    <glyph glyph-name="uni030F" unicode="&#x30f;" 
d="M-302 624l62 -135h-85l-132 135h155zM-132 624l62 -135h-85l-132 135h155z" />
    <glyph glyph-name="uni0311" unicode="&#x311;" 
d="M-107.5 641q40.5 -46 57.5 -141h-93q-10 48 -26 71t-49 23t-48.5 -23t-25.5 -71h-93q16 97 56.5 142t110.5 45t110.5 -46z" />
    <glyph glyph-name="uni0312" unicode="&#x312;" 
d="M-50 631q-17 -16 -27 -46t-10 -61q0 -15 3 -30l-122 1q-2 14 -2 22q0 43 24 90t62 72z" />
    <glyph glyph-name="uni031B" unicode="&#x31b;" 
d="M-155.5 757.5q20.5 21.5 29.5 64.5h103q-16 -92 -64 -130.5t-124 -38.5v83q35 0 55.5 21.5z" />
    <glyph glyph-name="dotbelowcomb" unicode="&#x323;" 
d="M-162 -67.5q20 16.5 44 16.5t43 -16.5t19 -41.5t-19 -41.5t-43 -16.5q-25 0 -44.5 16.5t-19.5 41.5t20 41.5z" />
    <glyph glyph-name="uni0324" unicode="&#x324;" 
d="M-370 -58q22 21 50 21q26 0 48 -21.5t22 -51.5q0 -31 -22 -51.5t-48 -20.5q-28 0 -50 20.5t-22 51.5t22 52zM-170 -58q22 21 50 21q26 0 48 -21.5t22 -51.5q0 -31 -22 -51.5t-48 -20.5q-28 0 -50 20.5t-22 51.5t22 52z" />
    <glyph glyph-name="uni0326" unicode="&#x326;" 
d="M-208 -166q17 16 27 46t10 61q0 15 -3 30l122 -1q2 -14 2 -22q0 -43 -24 -90t-62 -72z" />
    <glyph glyph-name="uni0327" unicode="&#x327;" 
d="M-81.5 -60.5q31.5 -23.5 31.5 -64.5q0 -54 -45.5 -82.5t-110.5 -28.5q-74 0 -117 45l43 55q10 -12 26 -19.5t34 -7.5q19 0 36.5 9.5t17.5 26.5q0 33 -53 33q-20 0 -60 -11l-19 66l69 51h107l-41 -46q50 -3 81.5 -26.5z" />
    <glyph glyph-name="uni0328" unicode="&#x328;" 
d="M-292.5 -196.5q-41.5 35.5 -41.5 93.5q0 34 22.5 65.5t62.5 47.5l158 -10q-66 -25 -97 -45t-31 -47q0 -42 44 -42q39 0 72 49l50 -72q-22 -33 -61 -54t-74 -21q-63 0 -104.5 35.5z" />
    <glyph glyph-name="uni032E" unicode="&#x32e;" 
d="M-327.5 -190q-40.5 46 -57.5 141h93q10 -48 26 -71t49 -23t48.5 23t25.5 71h93q-16 -97 -56.5 -142t-110.5 -45t-110.5 46z" />
    <glyph glyph-name="uni0331" unicode="&#x331;" 
d="M-50 -91v-97h-255v97h255z" />
    <glyph glyph-name="uni0335" unicode="&#x335;" 
d="M-20 432v-130h-315v130h315z" />
    <glyph glyph-name="uni0308.case" 
d="M-370 734q22 21 50 21q26 0 48 -21.5t22 -51.5q0 -31 -22 -51.5t-48 -20.5q-28 0 -50 20.5t-22 51.5t22 52zM-170 734q22 21 50 21q26 0 48 -21.5t22 -51.5q0 -31 -22 -51.5t-48 -20.5q-28 0 -50 20.5t-22 51.5t22 52z" />
    <glyph glyph-name="uni0307.case" 
d="M-171.5 680.5q23.5 20.5 53.5 20.5q29 0 52 -20.5t23 -50.5t-23 -50t-52 -20q-30 0 -53.5 20t-23.5 50t23.5 50.5z" />
    <glyph glyph-name="gravecomb.case" 
d="M-132 717l62 -135h-85l-132 135h155z" />
    <glyph glyph-name="acutecomb.case" 
d="M-190 584h-85l78 135h155z" />
    <glyph glyph-name="uni030B.case" 
d="M-372 489h-85l78 135h155zM-188 487h-85l78 135h155z" />
    <glyph glyph-name="uni0302.case" 
d="M-146 489l-65 62l-58 -62h-126l185 184h1l189 -184h-126z" />
    <glyph glyph-name="uni030C.case" 
d="M-20 673l-185 -184h-1l-189 184h126l65 -62l58 62h126z" />
    <glyph glyph-name="uni0306.case" 
d="M-327.5 516q-40.5 46 -57.5 141h93q10 -48 26 -71t49 -23t48.5 23t25.5 71h93q-16 -97 -56.5 -142t-110.5 -45t-110.5 46z" />
    <glyph glyph-name="uni030A.case" 
d="M-234.5 641.5q31.5 28.5 80.5 28.5q48 0 79.5 -28.5t31.5 -75.5t-31.5 -76t-79.5 -29q-49 0 -80.5 29t-31.5 76t31.5 75.5zM-182.5 534q10.5 -11 28.5 -11t28.5 11t10.5 30q0 21 -10.5 31.5t-28.5 10.5t-28.5 -10.5t-10.5 -31.5q0 -19 10.5 -30z" />
    <glyph glyph-name="tildecomb.case" 
d="M-229 814q-21 11 -48 33q-27 23 -44 23q-16 0 -23.5 -14.5t-7.5 -36.5l1 -14h-70q-1 7 -1 22q0 55 29 93t80 38q22 0 39.5 -10.5t42.5 -31.5q20 -17 29.5 -23.5t20.5 -6.5q29 0 25 69h70q3 -16 3 -32q0 -52 -27.5 -86t-67.5 -34q-30 0 -51 11z" />
    <glyph glyph-name="uni0304.case" 
d="M-50 682v-97h-255v97h255z" />
    <glyph glyph-name="hookabovecomb.case" 
d="M-153.5 638.5q9.5 11.5 9.5 27.5q0 33 -29 33q-13 0 -23 -7.5t-16 -19.5l-50 30q17 35 46 53.5t62 18.5q43 0 65 -26.5t22 -61.5q0 -36 -23.5 -62.5t-63.5 -47.5l-29 37q20 14 29.5 25.5z" />
    <glyph glyph-name="uni030F.case" 
d="M-302 624l62 -135h-85l-132 135h155zM-132 624l62 -135h-85l-132 135h155z" />
    <glyph glyph-name="uni0311.case" 
d="M-107.5 641q40.5 -46 57.5 -141h-93q-10 48 -26 71t-49 23t-48.5 -23t-25.5 -71h-93q16 97 56.5 142t110.5 45t110.5 -46z" />
    <glyph glyph-name="uni031B.case" 
d="M-170 567.5q13 14.5 22 59.5h103q-11 -63 -33 -97.5t-55.5 -47t-83.5 -12.5v83q34 0 47 14.5z" />
    <glyph glyph-name="dotbelowcomb.case" 
d="M-171.5 -66.5q23.5 20.5 53.5 20.5q29 0 52 -20.5t23 -50.5t-23 -50t-52 -20q-30 0 -53.5 20t-23.5 50t23.5 50.5z" />
    <glyph glyph-name="uni0324.case" 
d="M-370 -49q22 21 50 21q26 0 48 -21.5t22 -51.5q0 -31 -22 -51.5t-48 -20.5q-28 0 -50 20.5t-22 51.5t22 52zM-170 -49q22 21 50 21q26 0 48 -21.5t22 -51.5q0 -31 -22 -51.5t-48 -20.5q-28 0 -50 20.5t-22 51.5t22 52z" />
    <glyph glyph-name="uni0326.case" 
d="M-208 -166q17 16 27 46t10 61q0 15 -3 30l122 -1q2 -14 2 -22q0 -43 -24 -90t-62 -72z" />
    <glyph glyph-name="uni0327.case" 
d="M-81.5 -60.5q31.5 -23.5 31.5 -64.5q0 -54 -45.5 -82.5t-110.5 -28.5q-74 0 -117 45l43 55q10 -12 26 -19.5t34 -7.5q19 0 36.5 9.5t17.5 26.5q0 33 -53 33q-20 0 -60 -11l-19 66l69 51h107l-41 -46q50 -3 81.5 -26.5z" />
    <glyph glyph-name="uni0328.case" 
d="M-292.5 -196.5q-41.5 35.5 -41.5 93.5q0 34 22.5 65.5t62.5 47.5l158 -10q-66 -25 -97 -45t-31 -47q0 -42 44 -42q39 0 72 49l50 -72q-22 -33 -61 -54t-74 -21q-63 0 -104.5 35.5z" />
    <glyph glyph-name="uni032E.case" 
d="M-327.5 -183q-40.5 46 -57.5 141h93q10 -48 26 -71t49 -23t48.5 23t25.5 71h93q-16 -97 -56.5 -142t-110.5 -45t-110.5 46z" />
    <glyph glyph-name="uni0331.case" 
d="M-50 -84v-97h-255v97h255z" />
    <glyph glyph-name="uni02BC" unicode="&#x2bc;" horiz-adv-x="205" 
d="M114 469h-112l45 118l34 92h121z" />
    <glyph glyph-name="uni02C9" unicode="&#x2c9;" horiz-adv-x="328" 
d="M278 666v-97h-255v97h255z" />
    <glyph glyph-name="acute" unicode="&#xb4;" horiz-adv-x="317" 
d="M127 489h-85l78 135h155z" />
    <glyph glyph-name="breve" unicode="&#x2d8;" horiz-adv-x="435" 
d="M107.5 516q-40.5 46 -57.5 141h93q10 -48 26 -71t49 -23t48.5 23t25.5 71h93q-16 -97 -56.5 -142t-110.5 -45t-110.5 46z" />
    <glyph glyph-name="caron" unicode="&#x2c7;" horiz-adv-x="405" 
d="M385 673l-185 -184h-1l-189 184h126l65 -62l58 62h126z" />
    <glyph glyph-name="cedilla" unicode="&#xb8;" horiz-adv-x="373" 
d="M291.5 -60.5q31.5 -23.5 31.5 -64.5q0 -54 -45.5 -82.5t-110.5 -28.5q-74 0 -117 45l43 55q10 -12 26 -19.5t34 -7.5q19 0 36.5 9.5t17.5 26.5q0 33 -53 33q-20 0 -60 -11l-19 66l69 51h107l-41 -46q50 -3 81.5 -26.5z" />
    <glyph glyph-name="circumflex" unicode="&#x2c6;" horiz-adv-x="405" 
d="M259 489l-65 62l-58 -62h-126l185 184h1l189 -184h-126z" />
    <glyph glyph-name="dieresis" unicode="&#xa8;" horiz-adv-x="442" 
d="M72 594q22 21 50 21q26 0 48 -21.5t22 -51.5q0 -31 -22 -51.5t-48 -20.5q-28 0 -50 20.5t-22 51.5t22 52zM272 594q22 21 50 21q26 0 48 -21.5t22 -51.5q0 -31 -22 -51.5t-48 -20.5q-28 0 -50 20.5t-22 51.5t22 52z" />
    <glyph glyph-name="dotaccent" unicode="&#x2d9;" horiz-adv-x="238" 
d="M66.5 662.5q23.5 20.5 53.5 20.5q29 0 52 -20.5t23 -50.5t-23 -50t-52 -20q-30 0 -53.5 20t-23.5 50t23.5 50.5z" />
    <glyph glyph-name="grave" unicode="`" horiz-adv-x="317" 
d="M185 624l62 -135h-85l-132 135h155z" />
    <glyph glyph-name="hungarumlaut" unicode="&#x2dd;" horiz-adv-x="501" 
d="M127 489h-85l78 135h155zM311 487h-85l78 135h155z" />
    <glyph glyph-name="macron" unicode="&#xaf;" horiz-adv-x="355" 
d="M305 556v-97h-255v97h255z" />
    <glyph glyph-name="ogonek" unicode="&#x2db;" horiz-adv-x="384" 
d="M91.5 -196.5q-41.5 35.5 -41.5 93.5q0 34 22.5 65.5t62.5 47.5l158 -10q-66 -25 -97 -45t-31 -47q0 -42 44 -42q39 0 72 49l50 -72q-22 -33 -61 -54t-74 -21q-63 0 -104.5 35.5z" />
    <glyph glyph-name="ring" unicode="&#x2da;" horiz-adv-x="289" 
d="M54.5 641.5q31.5 28.5 80.5 28.5q48 0 79.5 -28.5t31.5 -75.5t-31.5 -76t-79.5 -29q-49 0 -80.5 29t-31.5 76t31.5 75.5zM106.5 534q10.5 -11 28.5 -11t28.5 11t10.5 30q0 21 -10.5 31.5t-28.5 10.5t-28.5 -10.5t-10.5 -31.5q0 -19 10.5 -30z" />
    <glyph glyph-name="tilde" unicode="&#x2dc;" horiz-adv-x="485" 
d="M274 473.5q-25 13.5 -58 39.5q-17 14 -29 21t-24 7q-19 0 -28.5 -18t-9.5 -44q0 -11 1 -17h-85q-2 18 -2 26q0 66 36 112.5t97 46.5q27 0 49 -13t51 -38q22 -19 34.5 -27.5t25.5 -8.5q31 0 31 60q0 16 -1 24h85q3 -19 3 -38q0 -42 -15 -75.5t-41.5 -52t-57.5 -18.5
q-37 0 -62 13.5z" />
    <glyph glyph-name="uni03060301" 
d="M-327.5 516q-40.5 46 -57.5 141h93q10 -48 26 -71t49 -23t48.5 23t25.5 71h93q-16 -97 -56.5 -142t-110.5 -45t-110.5 46zM-185 680h-85l78 135h155z" />
    <glyph glyph-name="uni03060300" 
d="M-385.5 516q-40.5 46 -57.5 141h93q10 -48 26 -71t49 -23t48.5 23t25.5 71h93q-16 -97 -56.5 -142t-110.5 -45t-110.5 46zM-290 816l62 -135h-85l-132 135h155z" />
    <glyph glyph-name="uni03060309" 
d="M-328.5 516q-40.5 46 -57.5 141h93q10 -48 26 -71t49 -23t48.5 23t25.5 71h93q-16 -97 -56.5 -142t-110.5 -45t-110.5 46zM-191.5 736.5q9.5 11.5 9.5 27.5q0 33 -29 33q-13 0 -23 -7.5t-16 -19.5l-50 30q17 35 46 53.5t62 18.5q43 0 65 -26.5t22 -61.5
q0 -36 -23.5 -62.5t-63.5 -47.5l-29 37q20 14 29.5 25.5z" />
    <glyph glyph-name="uni03060303" 
d="M-360.5 516q-40.5 46 -57.5 141h93q10 -48 26 -71t49 -23t48.5 23t25.5 71h93q-16 -97 -56.5 -142t-110.5 -45t-110.5 46zM-216 697q-21 11 -48 33q-27 23 -44 23q-16 0 -23.5 -14.5t-7.5 -36.5l1 -14h-70q-1 7 -1 22q0 55 29 93t80 38q22 0 39.5 -10.5t42.5 -31.5
q20 -17 29.5 -23.5t20.5 -6.5q29 0 25 69h70q3 -16 3 -32q0 -52 -27.5 -86t-67.5 -34q-30 0 -51 11z" />
    <glyph glyph-name="uni03020301" 
d="M-327 489l-65 62l-58 -62h-126l185 184h1l189 -184h-126zM-169 596h-85l78 135h155z" />
    <glyph glyph-name="uni03020300" 
d="M-146 489l-65 62l-58 -62h-126l185 184h1l189 -184h-126zM-404 735l62 -135h-85l-132 135h155z" />
    <glyph glyph-name="uni03020309" 
d="M-310 489l-65 62l-58 -62h-126l185 184h1l189 -184h-126zM-153.5 625.5q9.5 11.5 9.5 27.5q0 33 -29 33q-13 0 -23 -7.5t-16 -19.5l-50 30q17 35 46 53.5t62 18.5q43 0 65 -26.5t22 -61.5q0 -36 -23.5 -62.5t-63.5 -47.5l-29 37q20 14 29.5 25.5z" />
    <glyph glyph-name="uni03020303" 
d="M-188 489l-65 62l-58 -62h-126l185 184h1l189 -184h-126zM-220 713q-21 11 -48 33q-27 23 -44 23q-16 0 -23.5 -14.5t-7.5 -36.5l1 -14h-70q-1 7 -1 22q0 55 29 93t80 38q22 0 39.5 -10.5t42.5 -31.5q20 -17 29.5 -23.5t20.5 -6.5q29 0 25 69h70q3 -16 3 -32
q0 -52 -27.5 -86t-67.5 -34q-30 0 -51 11z" />
    <glyph glyph-name="IJacute" horiz-adv-x="760" 
d="M240 736v-736h-145v736h145zM602.5 -7.5q-37.5 -68.5 -105.5 -105.5t-157 -40v141q154 8 154 170v578h146v-581q0 -94 -37.5 -162.5zM611 784h-85l78 135h155zM200 772h-85l78 135h155z" />
    <glyph glyph-name="ijacute" horiz-adv-x="589" 
d="M172 491h-85l78 135h155zM464 491h-85l78 135h155zM212 437v-437h-140v437h140z" />
    <glyph glyph-name="macronbelowcomba" horiz-adv-x="328" 
d="M278 -91v-97h-255v97h255z" />
    </font>
</defs>
</svg>
